<svg width="484" height="484" viewBox="0 0 484 484" fill="none" xmlns="http://www.w3.org/2000/svg">
<path d="M149.973 218.902L98.3282 277.213H69.6367L119.129 218.902L69.6367 160.59H98.3282L149.973 218.902ZM236.046 218.902L184.401 277.213H109.087L162.166 218.902L109.087 160.59H184.401L236.046 218.902ZM109.087 218.182L76.0918 256.336H57.4424L89.7207 218.182L58.877 180.747H76.0918L109.087 218.182Z" fill="#ED1C24"/>
<path d="M149.973 218.902L151.293 220.071L152.328 218.902L151.293 217.733L149.973 218.902ZM98.3282 277.213V278.976H99.1219L99.6482 278.382L98.3282 277.213ZM69.6367 277.213L68.2924 276.072L65.8274 278.976H69.6367V277.213ZM119.129 218.902L120.473 220.043L121.442 218.902L120.473 217.761L119.129 218.902ZM69.6367 160.59V158.827H65.8274L68.2924 161.731L69.6367 160.59ZM98.3282 160.59L99.6482 159.421L99.1219 158.827H98.3282V160.59ZM236.046 218.902L237.366 220.071L238.401 218.902L237.366 217.733L236.046 218.902ZM184.401 277.213V278.976H185.195L185.721 278.382L184.401 277.213ZM109.087 277.213L107.783 276.026L105.097 278.976H109.087V277.213ZM162.166 218.902L163.47 220.089L164.55 218.902L163.47 217.715L162.166 218.902ZM109.087 160.59V158.827H105.097L107.783 161.777L109.087 160.59ZM184.401 160.59L185.721 159.421L185.195 158.827H184.401V160.59ZM109.087 218.182L110.421 219.335L111.428 218.171L110.41 217.016L109.087 218.182ZM76.0918 256.336V258.099H76.8981L77.4256 257.49L76.0918 256.336ZM57.4424 256.336L56.0962 255.197L53.641 258.099H57.4424V256.336ZM89.7207 218.182L91.0669 219.321L92.0177 218.197L91.0816 217.061L89.7207 218.182ZM58.877 180.747V178.984H55.1394L57.5161 181.869L58.877 180.747ZM76.0918 180.747L77.4146 179.581L76.8881 178.984H76.0918V180.747ZM149.973 218.902L148.653 217.733L97.0081 276.044L98.3282 277.213L99.6482 278.382L151.293 220.071L149.973 218.902ZM98.3282 277.213V275.45H69.6367V277.213V278.976H98.3282V277.213ZM69.6367 277.213L70.9811 278.354L120.473 220.043L119.129 218.902L117.785 217.761L68.2924 276.072L69.6367 277.213ZM119.129 218.902L120.473 217.761L70.9811 159.449L69.6367 160.59L68.2924 161.731L117.785 220.043L119.129 218.902ZM69.6367 160.59V162.353H98.3282V160.59V158.827H69.6367V160.59ZM98.3282 160.59L97.0081 161.759L148.653 220.071L149.973 218.902L151.293 217.733L99.6482 159.421L98.3282 160.59ZM236.046 218.902L234.726 217.733L183.081 276.044L184.401 277.213L185.721 278.382L237.366 220.071L236.046 218.902ZM184.401 277.213V275.45H109.087V277.213V278.976H184.401V277.213ZM109.087 277.213L110.391 278.4L163.47 220.089L162.166 218.902L160.862 217.715L107.783 276.026L109.087 277.213ZM162.166 218.902L163.47 217.715L110.391 159.403L109.087 160.59L107.783 161.777L160.862 220.089L162.166 218.902ZM109.087 160.59V162.353H184.401V160.59V158.827H109.087V160.59ZM184.401 160.59L183.081 161.759L234.726 220.071L236.046 218.902L237.366 217.733L185.721 159.421L184.401 160.59ZM109.087 218.182L107.753 217.028L74.7581 255.183L76.0918 256.336L77.4256 257.49L110.421 219.335L109.087 218.182ZM76.0918 256.336V254.573H57.4424V256.336V258.099H76.0918V256.336ZM57.4424 256.336L58.7886 257.475L91.0669 219.321L89.7207 218.182L88.3746 217.043L56.0962 255.197L57.4424 256.336ZM89.7207 218.182L91.0816 217.061L60.2378 179.626L58.877 180.747L57.5161 181.869L88.3599 219.303L89.7207 218.182ZM58.877 180.747V182.511H76.0918V180.747V178.984H58.877V180.747ZM76.0918 180.747L74.769 181.913L107.764 219.348L109.087 218.182L110.41 217.016L77.4146 179.581L76.0918 180.747Z" fill="black"/>
<path d="M334.753 217.479L385.993 277.214H414.459L365.354 217.479L414.459 157.746H385.993L334.753 217.479ZM249.354 217.479L300.594 277.214H375.318L322.655 217.479L375.318 157.746H300.594L249.354 217.479ZM375.318 216.742L408.055 255.827H426.558L394.533 216.742L425.134 178.394H408.055L375.318 216.742Z" fill="#FFDE16"/>
<path d="M334.753 217.479L333.415 218.627L332.43 217.479L333.415 216.331L334.753 217.479ZM385.993 277.214V278.977H385.183L384.655 278.362L385.993 277.214ZM414.459 277.214L415.821 276.094L418.191 278.977H414.459V277.214ZM365.354 217.479L363.992 218.599L363.072 217.479L363.992 216.359L365.354 217.479ZM414.459 157.746V155.982H418.191L415.821 158.865L414.459 157.746ZM385.993 157.746L384.655 156.598L385.183 155.982H385.993V157.746ZM249.354 217.479L248.016 218.627L247.031 217.479L248.016 216.331L249.354 217.479ZM300.594 277.214V278.977H299.783L299.255 278.362L300.594 277.214ZM375.318 277.214L376.641 276.047L379.224 278.977H375.318V277.214ZM322.655 217.479L321.333 218.645L320.305 217.479L321.333 216.313L322.655 217.479ZM375.318 157.746V155.982H379.224L376.641 158.912L375.318 157.746ZM300.594 157.746L299.255 156.598L299.783 155.982H300.594V157.746ZM375.318 216.742L373.967 217.874L373.009 216.731L373.977 215.597L375.318 216.742ZM408.055 255.827V257.59H407.231L406.703 256.959L408.055 255.827ZM426.558 255.827L427.922 254.709L430.282 257.59H426.558V255.827ZM394.533 216.742L393.169 217.859L392.266 216.756L393.155 215.642L394.533 216.742ZM425.134 178.394V176.631H428.797L426.512 179.494L425.134 178.394ZM408.055 178.394L406.714 177.249L407.242 176.631H408.055V178.394ZM334.753 217.479L336.091 216.331L387.332 276.065L385.993 277.214L384.655 278.362L333.415 218.627L334.753 217.479ZM385.993 277.214V275.45H414.459V277.214V278.977H385.993V277.214ZM414.459 277.214L413.097 278.333L363.992 218.599L365.354 217.479L366.717 216.359L415.821 276.094L414.459 277.214ZM365.354 217.479L363.992 216.359L413.097 156.626L414.459 157.746L415.821 158.865L366.717 218.599L365.354 217.479ZM414.459 157.746V159.509H385.993V157.746V155.982H414.459V157.746ZM385.993 157.746L387.332 158.894L336.091 218.627L334.753 217.479L333.415 216.331L384.655 156.598L385.993 157.746ZM249.354 217.479L250.693 216.331L301.932 276.065L300.594 277.214L299.255 278.362L248.016 218.627L249.354 217.479ZM300.594 277.214V275.45H375.318V277.214V278.977H300.594V277.214ZM375.318 277.214L373.996 278.38L321.333 218.645L322.655 217.479L323.978 216.313L376.641 276.047L375.318 277.214ZM322.655 217.479L321.333 216.313L373.996 156.58L375.318 157.746L376.641 158.912L323.978 218.645L322.655 217.479ZM375.318 157.746V159.509H300.594V157.746V155.982H375.318V157.746ZM300.594 157.746L301.932 158.894L250.693 218.627L249.354 217.479L248.016 216.331L299.255 156.598L300.594 157.746ZM375.318 216.742L376.67 215.61L409.406 254.695L408.055 255.827L406.703 256.959L373.967 217.874L375.318 216.742ZM408.055 255.827V254.063H426.558V255.827V257.59H408.055V255.827ZM426.558 255.827L425.194 256.944L393.169 217.859L394.533 216.742L395.897 215.624L427.922 254.709L426.558 255.827ZM394.533 216.742L393.155 215.642L423.756 177.294L425.134 178.394L426.512 179.494L395.911 217.842L394.533 216.742ZM425.134 178.394V180.157H408.055V178.394V176.631H425.134V178.394ZM408.055 178.394L409.396 179.539L376.659 217.887L375.318 216.742L373.977 215.597L406.714 177.249L408.055 178.394Z" fill="black"/>
<path d="M241.65 115.199L292.78 56.3903L292.78 23.7194L241.65 80.0768L190.52 23.7194L190.52 56.3903L241.65 115.199ZM241.65 213.213L292.78 154.404L292.78 68.6422L241.65 129.084L190.52 68.6422L190.52 154.404L241.65 213.213ZM241.018 68.6422L274.474 31.07L274.474 9.83362L241.018 46.5885L208.195 11.4674L208.195 31.0699L241.018 68.6422Z" fill="white"/>
<path d="M241.65 115.199L242.981 116.356L241.65 117.886L240.319 116.356L241.65 115.199ZM292.78 56.3903L294.543 56.3903L294.543 57.0496L294.11 57.5472L292.78 56.3903ZM292.78 23.7194L291.474 22.5346L294.543 19.1516L294.543 23.7194L292.78 23.7194ZM241.65 80.0768L242.956 81.2616L241.65 82.701L240.344 81.2616L241.65 80.0768ZM190.52 23.7194L188.757 23.7194L188.757 19.1516L191.826 22.5346L190.52 23.7194ZM190.52 56.3903L189.189 57.5472L188.757 57.0496L188.757 56.3903L190.52 56.3903ZM241.65 213.213L242.981 214.369L241.65 215.9L240.319 214.369L241.65 213.213ZM292.78 154.404L294.543 154.404L294.543 155.063L294.11 155.561L292.78 154.404ZM292.78 68.6422L291.434 67.5034L294.543 63.8276L294.543 68.6422L292.78 68.6422ZM241.65 129.084L242.996 130.222L241.65 131.814L240.304 130.222L241.65 129.084ZM190.52 68.6422L188.757 68.6422L188.757 63.8276L191.866 67.5034L190.52 68.6422ZM190.52 154.404L189.189 155.561L188.757 155.063L188.757 154.404L190.52 154.404ZM241.018 68.6422L242.335 69.8148L241.005 71.3079L239.69 69.8023L241.018 68.6422ZM274.474 31.07L276.237 31.07L276.237 31.7412L275.791 32.2426L274.474 31.07ZM274.474 9.83362L273.17 8.64668L276.237 5.27698L276.237 9.83362L274.474 9.83362ZM241.018 46.5885L242.322 47.7754L241.035 49.1892L239.73 47.7925L241.018 46.5885ZM208.195 11.4674L206.431 11.4674L206.431 6.99825L209.483 10.2634L208.195 11.4674ZM208.195 31.0699L206.867 32.23L206.431 31.7317L206.431 31.0699L208.195 31.0699ZM241.65 115.199L240.319 114.042L291.449 55.2333L292.78 56.3903L294.11 57.5472L242.981 116.356L241.65 115.199ZM292.78 56.3903L291.016 56.3903L291.016 23.7194L292.78 23.7194L294.543 23.7194L294.543 56.3903L292.78 56.3903ZM292.78 23.7194L294.086 24.9042L242.956 81.2616L241.65 80.0768L240.344 78.892L291.474 22.5346L292.78 23.7194ZM241.65 80.0768L240.344 81.2616L189.214 24.9042L190.52 23.7194L191.826 22.5346L242.956 78.892L241.65 80.0768ZM190.52 23.7194L192.283 23.7194L192.283 56.3903L190.52 56.3903L188.757 56.3903L188.757 23.7194L190.52 23.7194ZM190.52 56.3903L191.851 55.2333L242.981 114.042L241.65 115.199L240.319 116.356L189.189 57.5472L190.52 56.3903ZM241.65 213.213L240.319 212.056L291.449 153.247L292.78 154.404L294.11 155.561L242.981 214.369L241.65 213.213ZM292.78 154.404L291.016 154.404L291.016 68.6422L292.78 68.6422L294.543 68.6422L294.543 154.404L292.78 154.404ZM292.78 68.6422L294.126 69.781L242.996 130.222L241.65 129.084L240.304 127.945L291.434 67.5034L292.78 68.6422ZM241.65 129.084L240.304 130.222L189.174 69.781L190.52 68.6422L191.866 67.5034L242.996 127.945L241.65 129.084ZM190.52 68.6422L192.283 68.6422L192.283 154.404L190.52 154.404L188.757 154.404L188.757 68.6422L190.52 68.6422ZM190.52 154.404L191.851 153.247L242.981 212.056L241.65 213.213L240.319 214.369L189.189 155.561L190.52 154.404ZM241.018 68.6422L239.701 67.4696L273.157 29.8973L274.474 31.07L275.791 32.2426L242.335 69.8148L241.018 68.6422ZM274.474 31.07L272.711 31.0699L272.711 9.83362L274.474 9.83362L276.237 9.83362L276.237 31.07L274.474 31.07ZM274.474 9.83362L275.778 11.0206L242.322 47.7754L241.018 46.5885L239.714 45.4016L273.17 8.64668L274.474 9.83362ZM241.018 46.5885L239.73 47.7925L206.906 12.6714L208.195 11.4674L209.483 10.2634L242.306 45.3845L241.018 46.5885ZM208.195 11.4674L209.958 11.4674L209.958 31.0699L208.195 31.0699L206.431 31.0699L206.431 11.4674L208.195 11.4674ZM208.195 31.0699L209.523 29.9099L242.346 67.4821L241.018 68.6422L239.69 69.8023L206.867 32.23L208.195 31.0699Z" fill="black"/>
<path d="M241.65 368.236L292.78 425.811L292.78 457.796L241.65 402.62L190.52 457.796L190.52 425.811L241.65 368.236ZM241.65 326.238L292.78 383.812L292.78 415.798L241.65 360.622L190.52 415.798L190.52 383.812L241.65 326.238ZM241.65 230.28L292.78 287.854L292.78 371.817L241.65 312.643L190.52 371.817L190.52 287.854L241.65 230.28ZM241.018 416.592L274.474 453.375L274.474 474.166L241.018 438.182L208.195 472.567L208.195 453.375L241.018 416.592Z" fill="black"/>
<path d="M241.65 368.236L242.968 367.065L241.65 365.58L240.331 367.065L241.65 368.236ZM292.78 425.811L294.543 425.811L294.543 425.141L294.098 424.64L292.78 425.811ZM292.78 457.796L291.486 458.995L294.543 462.293L294.543 457.796L292.78 457.796ZM241.65 402.62L242.943 401.422L241.65 400.026L240.356 401.422L241.65 402.62ZM190.52 457.796L188.757 457.796L188.757 462.293L191.813 458.995L190.52 457.796ZM190.52 425.811L189.202 424.64L188.757 425.141L188.757 425.811L190.52 425.811ZM241.65 326.238L242.968 325.067L241.65 323.582L240.331 325.067L241.65 326.238ZM292.78 383.812L294.543 383.812L294.543 383.142L294.098 382.641L292.78 383.812ZM292.78 415.798L291.486 416.997L294.543 420.295L294.543 415.798L292.78 415.798ZM241.65 360.622L242.943 359.424L241.65 358.028L240.356 359.424L241.65 360.622ZM190.52 415.798L188.757 415.798L188.757 420.295L191.813 416.997L190.52 415.798ZM190.52 383.812L189.202 382.641L188.757 383.142L188.757 383.812L190.52 383.812ZM241.65 230.28L242.968 229.109L241.65 227.624L240.331 229.109L241.65 230.28ZM292.78 287.854L294.543 287.854L294.543 287.184L294.098 286.683L292.78 287.854ZM292.78 371.817L291.446 372.97L294.543 376.554L294.543 371.817L292.78 371.817ZM241.65 312.643L242.984 311.49L241.65 309.946L240.316 311.49L241.65 312.643ZM190.52 371.817L188.757 371.817L188.757 376.554L191.854 372.97L190.52 371.817ZM190.52 287.854L189.202 286.683L188.757 287.184L188.757 287.854L190.52 287.854ZM241.018 416.592L242.322 415.406L241.005 413.958L239.702 415.418L241.018 416.592ZM274.474 453.375L276.237 453.375L276.237 452.693L275.778 452.189L274.474 453.375ZM274.474 474.166L273.183 475.367L276.237 478.653L276.237 474.166L274.474 474.166ZM241.018 438.182L242.309 436.981L241.035 435.611L239.743 436.964L241.018 438.182ZM208.195 472.567L206.431 472.567L206.431 476.968L209.47 473.784L208.195 472.567ZM208.195 453.375L206.879 452.201L206.431 452.703L206.431 453.375L208.195 453.375ZM241.65 368.236L240.331 369.407L291.461 426.982L292.78 425.811L294.098 424.64L242.968 367.065L241.65 368.236ZM292.78 425.811L291.016 425.811L291.016 457.796L292.78 457.796L294.543 457.796L294.543 425.811L292.78 425.811ZM292.78 457.796L294.073 456.598L242.943 401.422L241.65 402.62L240.356 403.819L291.486 458.995L292.78 457.796ZM241.65 402.62L240.356 401.422L189.227 456.598L190.52 457.796L191.813 458.995L242.943 403.819L241.65 402.62ZM190.52 457.796L192.283 457.796L192.283 425.811L190.52 425.811L188.757 425.811L188.757 457.796L190.52 457.796ZM190.52 425.811L191.838 426.982L242.968 369.407L241.65 368.236L240.331 367.065L189.202 424.64L190.52 425.811ZM241.65 326.238L240.331 327.409L291.461 384.983L292.78 383.812L294.098 382.641L242.968 325.067L241.65 326.238ZM292.78 383.812L291.016 383.812L291.016 415.798L292.78 415.798L294.543 415.798L294.543 383.812L292.78 383.812ZM292.78 415.798L294.073 414.6L242.943 359.424L241.65 360.622L240.356 361.821L291.486 416.997L292.78 415.798ZM241.65 360.622L240.356 359.424L189.227 414.6L190.52 415.798L191.813 416.997L242.943 361.821L241.65 360.622ZM190.52 415.798L192.283 415.798L192.283 383.812L190.52 383.812L188.757 383.812L188.757 415.798L190.52 415.798ZM190.52 383.812L191.838 384.983L242.968 327.409L241.65 326.238L240.331 325.067L189.202 382.641L190.52 383.812ZM241.65 230.28L240.331 231.451L291.461 289.025L292.78 287.854L294.098 286.683L242.968 229.109L241.65 230.28ZM292.78 287.854L291.016 287.854L291.016 371.817L292.78 371.817L294.543 371.817L294.543 287.854L292.78 287.854ZM292.78 371.817L294.114 370.664L242.984 311.49L241.65 312.643L240.316 313.796L291.446 372.97L292.78 371.817ZM241.65 312.643L240.316 311.49L189.186 370.664L190.52 371.817L191.854 372.97L242.984 313.796L241.65 312.643ZM190.52 371.817L192.283 371.817L192.283 287.854L190.52 287.854L188.757 287.854L188.757 371.817L190.52 371.817ZM190.52 287.854L191.838 289.025L242.968 231.451L241.65 230.28L240.331 229.109L189.202 286.683L190.52 287.854ZM241.018 416.592L239.714 417.779L273.17 454.562L274.474 453.375L275.778 452.189L242.322 415.406L241.018 416.592ZM274.474 453.375L272.711 453.375L272.711 474.166L274.474 474.166L276.237 474.166L276.237 453.375L274.474 453.375ZM274.474 474.166L275.765 472.966L242.309 436.981L241.018 438.182L239.727 439.383L273.183 475.367L274.474 474.166ZM241.018 438.182L239.743 436.964L206.919 471.349L208.195 472.567L209.47 473.784L242.293 439.4L241.018 438.182ZM208.195 472.567L209.958 472.567L209.958 453.375L208.195 453.375L206.431 453.375L206.431 472.567L208.195 472.567ZM208.195 453.375L209.51 454.549L242.334 417.766L241.018 416.592L239.702 415.418L206.879 452.201L208.195 453.375Z" fill="white"/>
</svg>
