<svg width="964" height="611" viewBox="0 0 964 611" fill="none" xmlns="http://www.w3.org/2000/svg">
<rect width="964" height="611" fill="#DFDFDF"/>
<rect x="586" y="419" width="168" height="168" fill="#EBE9E4"/>
<path d="M636.48 494.492C636.48 494.62 636.429 494.735 636.327 494.837C636.25 494.914 636.147 494.953 636.019 494.953H627.722C627.594 494.953 627.53 495.017 627.53 495.145V502.405C627.53 502.533 627.594 502.597 627.722 502.597H632.639C632.767 502.597 632.869 502.648 632.946 502.75C633.049 502.827 633.1 502.93 633.1 503.058V506.015C633.1 506.143 633.049 506.259 632.946 506.361C632.869 506.438 632.767 506.476 632.639 506.476H627.722C627.594 506.476 627.53 506.54 627.53 506.668V513.967C627.53 514.095 627.594 514.159 627.722 514.159H636.019C636.147 514.159 636.25 514.21 636.327 514.312C636.429 514.389 636.48 514.492 636.48 514.62V517.539C636.48 517.667 636.429 517.782 636.327 517.885C636.25 517.962 636.147 518 636.019 518H623.535C623.407 518 623.292 517.962 623.19 517.885C623.113 517.782 623.074 517.667 623.074 517.539V491.572C623.074 491.444 623.113 491.342 623.19 491.265C623.292 491.163 623.407 491.111 623.535 491.111H636.019C636.147 491.111 636.25 491.163 636.327 491.265C636.429 491.342 636.48 491.444 636.48 491.572V494.492ZM653.077 510.625C653.077 512.981 652.386 514.799 651.003 516.079C649.646 517.36 647.866 518 645.663 518H638.903C638.775 518 638.66 517.962 638.557 517.885C638.48 517.782 638.442 517.667 638.442 517.539V491.572C638.442 491.444 638.48 491.342 638.557 491.265C638.66 491.163 638.775 491.111 638.903 491.111H644.972C647.405 491.111 649.313 491.726 650.695 492.955C652.078 494.184 652.77 495.977 652.77 498.333C652.77 500.971 651.835 502.853 649.966 503.979C649.838 504.056 649.812 504.133 649.889 504.21C650.888 504.85 651.669 505.708 652.232 506.784C652.795 507.859 653.077 509.14 653.077 510.625ZM643.09 494.953C642.962 494.953 642.898 495.017 642.898 495.145V502.289C642.898 502.417 642.962 502.481 643.09 502.481H645.049C646.099 502.481 646.918 502.161 647.507 501.521C648.096 500.881 648.391 499.972 648.391 498.794C648.391 497.565 648.096 496.617 647.507 495.951C646.918 495.285 646.099 494.953 645.049 494.953H643.09ZM645.318 514.12C646.342 514.12 647.149 513.762 647.738 513.045C648.327 512.328 648.621 511.316 648.621 510.01C648.621 508.679 648.327 507.641 647.738 506.899C647.149 506.131 646.342 505.746 645.318 505.746H643.09C642.962 505.746 642.898 505.81 642.898 505.939V513.928C642.898 514.056 642.962 514.12 643.09 514.12H645.318ZM668.116 494.492C668.116 494.62 668.065 494.735 667.962 494.837C667.885 494.914 667.783 494.953 667.655 494.953H659.358C659.23 494.953 659.166 495.017 659.166 495.145V502.405C659.166 502.533 659.23 502.597 659.358 502.597H664.275C664.403 502.597 664.505 502.648 664.582 502.75C664.684 502.827 664.735 502.93 664.735 503.058V506.015C664.735 506.143 664.684 506.259 664.582 506.361C664.505 506.438 664.403 506.476 664.275 506.476H659.358C659.23 506.476 659.166 506.54 659.166 506.668V513.967C659.166 514.095 659.23 514.159 659.358 514.159H667.655C667.783 514.159 667.885 514.21 667.962 514.312C668.065 514.389 668.116 514.492 668.116 514.62V517.539C668.116 517.667 668.065 517.782 667.962 517.885C667.885 517.962 667.783 518 667.655 518H655.171C655.043 518 654.928 517.962 654.825 517.885C654.748 517.782 654.71 517.667 654.71 517.539V491.572C654.71 491.444 654.748 491.342 654.825 491.265C654.928 491.163 655.043 491.111 655.171 491.111H667.655C667.783 491.111 667.885 491.163 667.962 491.265C668.065 491.342 668.116 491.444 668.116 491.572V494.492ZM682.754 511.547C682.754 513.621 682.113 515.273 680.833 516.502C679.578 517.706 677.914 518.307 675.839 518.307C673.893 518.307 672.305 517.693 671.076 516.464C669.847 515.234 669.232 513.595 669.232 511.547V510.586C669.232 510.458 669.271 510.356 669.348 510.279C669.45 510.177 669.565 510.125 669.693 510.125H673.227C673.355 510.125 673.458 510.177 673.535 510.279C673.637 510.356 673.688 510.458 673.688 510.586V511.316C673.688 512.187 673.893 512.917 674.303 513.506C674.738 514.069 675.25 514.351 675.839 514.351C676.556 514.351 677.133 514.069 677.568 513.506C678.029 512.942 678.259 512.213 678.259 511.316V507.398C678.259 507.321 678.234 507.27 678.183 507.245C678.131 507.219 678.08 507.232 678.029 507.283C677.286 507.949 676.364 508.282 675.263 508.282C673.496 508.282 672.062 507.718 670.961 506.592C669.86 505.465 669.22 503.967 669.04 502.097C668.912 501.252 668.848 500.356 668.848 499.408C668.848 498.538 668.887 497.705 668.964 496.912C669.066 494.965 669.719 493.467 670.923 492.417C672.152 491.342 673.778 490.804 675.801 490.804C677.67 490.804 679.194 491.303 680.372 492.302C681.55 493.275 682.267 494.722 682.523 496.643C682.651 497.411 682.715 498.218 682.715 499.063L682.754 511.547ZM678.106 502.328C678.208 501.431 678.259 500.561 678.259 499.716C678.259 498.947 678.221 498.09 678.144 497.142C677.862 495.452 677.094 494.607 675.839 494.607C675.199 494.607 674.674 494.837 674.264 495.298C673.855 495.759 673.586 496.412 673.458 497.257C673.407 497.872 673.381 498.691 673.381 499.716C673.381 500.663 673.445 501.572 673.573 502.443C673.701 503.16 673.957 503.711 674.341 504.095C674.751 504.479 675.25 504.671 675.839 504.671C676.454 504.671 676.953 504.479 677.337 504.095C677.747 503.685 678.003 503.096 678.106 502.328ZM698.401 494.492C698.401 494.62 698.35 494.735 698.247 494.837C698.17 494.914 698.068 494.953 697.94 494.953H689.643C689.515 494.953 689.451 495.017 689.451 495.145V502.405C689.451 502.533 689.515 502.597 689.643 502.597H694.56C694.688 502.597 694.79 502.648 694.867 502.75C694.969 502.827 695.021 502.93 695.021 503.058V506.015C695.021 506.143 694.969 506.259 694.867 506.361C694.79 506.438 694.688 506.476 694.56 506.476H689.643C689.515 506.476 689.451 506.54 689.451 506.668V513.967C689.451 514.095 689.515 514.159 689.643 514.159H697.94C698.068 514.159 698.17 514.21 698.247 514.312C698.35 514.389 698.401 514.492 698.401 514.62V517.539C698.401 517.667 698.35 517.782 698.247 517.885C698.17 517.962 698.068 518 697.94 518H685.456C685.328 518 685.213 517.962 685.11 517.885C685.033 517.782 684.995 517.667 684.995 517.539V491.572C684.995 491.444 685.033 491.342 685.11 491.265C685.213 491.163 685.328 491.111 685.456 491.111H697.94C698.068 491.111 698.17 491.163 698.247 491.265C698.35 491.342 698.401 491.444 698.401 491.572V494.492ZM714.844 506.976C714.972 506.976 715.075 507.027 715.151 507.129C715.254 507.206 715.305 507.309 715.305 507.437V510.548C715.305 510.676 715.254 510.791 715.151 510.894C715.075 510.971 714.972 511.009 714.844 511.009H713.692C713.564 511.009 713.5 511.073 713.5 511.201V517.539C713.5 517.667 713.448 517.782 713.346 517.885C713.269 517.962 713.167 518 713.039 518H709.505C709.377 518 709.262 517.962 709.159 517.885C709.082 517.782 709.044 517.667 709.044 517.539V511.201C709.044 511.073 708.98 511.009 708.852 511.009H699.402C699.274 511.009 699.159 510.971 699.057 510.894C698.98 510.791 698.941 510.676 698.941 510.548V508.051C698.941 507.821 698.967 507.629 699.018 507.475L704.358 491.495C704.434 491.239 704.601 491.111 704.857 491.111H708.698C708.852 491.111 708.967 491.163 709.044 491.265C709.121 491.342 709.133 491.47 709.082 491.649L704.165 506.745C704.14 506.899 704.191 506.976 704.319 506.976H708.852C708.98 506.976 709.044 506.912 709.044 506.784V502.174C709.044 502.046 709.082 501.944 709.159 501.867C709.262 501.764 709.377 501.713 709.505 501.713H713.039C713.167 501.713 713.269 501.764 713.346 501.867C713.448 501.944 713.5 502.046 713.5 502.174V506.784C713.5 506.912 713.564 506.976 713.692 506.976H714.844Z" fill="#282924"/>
<rect x="10" y="10" width="168" height="168" fill="#ED1C24"/>
<path d="M63.4802 85.4916C63.4802 85.6197 63.429 85.7349 63.3265 85.8373C63.2497 85.9142 63.1473 85.9526 63.0192 85.9526H54.7222C54.5941 85.9526 54.5301 86.0166 54.5301 86.1446V93.4046C54.5301 93.5326 54.5941 93.5966 54.7222 93.5966H59.6389C59.767 93.5966 59.8694 93.6479 59.9462 93.7503C60.0487 93.8271 60.0999 93.9295 60.0999 94.0576V97.0153C60.0999 97.1434 60.0487 97.2586 59.9462 97.3611C59.8694 97.4379 59.767 97.4763 59.6389 97.4763H54.7222C54.5941 97.4763 54.5301 97.5403 54.5301 97.6684V104.967C54.5301 105.095 54.5941 105.159 54.7222 105.159H63.0192C63.1473 105.159 63.2497 105.21 63.3265 105.312C63.429 105.389 63.4802 105.492 63.4802 105.62V108.539C63.4802 108.667 63.429 108.782 63.3265 108.885C63.2497 108.962 63.1473 109 63.0192 109H50.5352C50.4072 109 50.2919 108.962 50.1895 108.885C50.1127 108.782 50.0743 108.667 50.0743 108.539V82.5723C50.0743 82.4442 50.1127 82.3418 50.1895 82.265C50.2919 82.1626 50.4072 82.1113 50.5352 82.1113H63.0192C63.1473 82.1113 63.2497 82.1626 63.3265 82.265C63.429 82.3418 63.4802 82.4442 63.4802 82.5723V85.4916ZM65.9029 109C65.7748 109 65.6596 108.962 65.5572 108.885C65.4803 108.782 65.4419 108.667 65.4419 108.539V82.5723C65.4419 82.4442 65.4803 82.3418 65.5572 82.265C65.6596 82.1626 65.7748 82.1113 65.9029 82.1113H72.4714C74.6737 82.1113 76.4279 82.7772 77.7339 84.1088C79.0655 85.4404 79.7313 87.2202 79.7313 89.4481V101.663C79.7313 103.891 79.0655 105.671 77.7339 107.003C76.4279 108.334 74.6737 109 72.4714 109H65.9029ZM69.8978 104.967C69.8978 105.095 69.9618 105.159 70.0898 105.159L72.3946 105.12C73.2396 105.12 73.9182 104.787 74.4304 104.122C74.9682 103.43 75.2499 102.521 75.2755 101.394V89.717C75.2755 88.5646 75.0066 87.6555 74.4688 86.9897C73.9567 86.2983 73.2524 85.9526 72.3561 85.9526H70.0898C69.9618 85.9526 69.8978 86.0166 69.8978 86.1446V104.967ZM84.2709 82.2266C84.4501 82.1498 84.6422 82.1113 84.8471 82.1113H88.5347C88.6627 82.1113 88.7651 82.1626 88.842 82.265C88.9444 82.3418 88.9956 82.4442 88.9956 82.5723V108.539C88.9956 108.667 88.9444 108.782 88.842 108.885C88.7651 108.962 88.6627 109 88.5347 109H85.0007C84.8727 109 84.7574 108.962 84.655 108.885C84.5782 108.782 84.5398 108.667 84.5398 108.539V86.8745C84.5398 86.8233 84.5142 86.772 84.4629 86.7208C84.4373 86.6696 84.3989 86.6568 84.3477 86.6824L81.1979 87.297H81.0827C80.801 87.297 80.6601 87.1562 80.6601 86.8745L80.5449 84.3008C80.5449 84.0448 80.6473 83.8655 80.8522 83.7631L84.2709 82.2266ZM98.2113 109.307C96.0346 109.307 94.2804 108.654 92.9488 107.348C91.6428 106.017 90.9897 104.262 90.9897 102.086V88.9872C90.9897 86.7848 91.6428 85.0435 92.9488 83.7631C94.2804 82.4571 96.0346 81.804 98.2113 81.804C100.414 81.804 102.181 82.4571 103.512 83.7631C104.844 85.0435 105.51 86.7848 105.51 88.9872V89.4481C105.51 89.5761 105.458 89.6914 105.356 89.7938C105.279 89.8962 105.177 89.9475 105.049 89.9475L101.476 90.1011C101.169 90.1011 101.015 89.9475 101.015 89.6402V88.6799C101.015 87.7836 100.759 87.0537 100.247 86.4904C99.735 85.927 99.0563 85.6453 98.2113 85.6453C97.3918 85.6453 96.726 85.927 96.2138 86.4904C95.7017 87.0537 95.4456 87.7836 95.4456 88.6799V102.431C95.4456 103.328 95.7017 104.058 96.2138 104.621C96.726 105.184 97.3918 105.466 98.2113 105.466C99.0563 105.466 99.735 105.184 100.247 104.621C100.759 104.058 101.015 103.328 101.015 102.431V101.471C101.015 101.343 101.054 101.241 101.131 101.164C101.233 101.061 101.348 101.01 101.476 101.01L105.049 101.164C105.177 101.164 105.279 101.215 105.356 101.318C105.458 101.394 105.51 101.497 105.51 101.625V102.086C105.51 104.262 104.844 106.017 103.512 107.348C102.181 108.654 100.414 109.307 98.2113 109.307ZM112.137 104.928C112.086 104.98 112.073 105.031 112.099 105.082C112.124 105.133 112.175 105.159 112.252 105.159H120.664C120.793 105.159 120.895 105.21 120.972 105.312C121.074 105.389 121.125 105.492 121.125 105.62V108.539C121.125 108.667 121.074 108.782 120.972 108.885C120.895 108.962 120.793 109 120.664 109H107.259C107.131 109 107.015 108.962 106.913 108.885C106.836 108.782 106.798 108.667 106.798 108.539V105.466C106.798 105.236 106.862 105.044 106.99 104.89L108.488 102.854C109.486 101.522 110.46 100.165 111.407 98.7823C112.38 97.3995 113.2 96.1575 113.866 95.0563C115.351 92.5979 116.093 90.5621 116.093 88.9487C116.093 87.9244 115.863 87.1178 115.402 86.5288C114.967 85.9398 114.378 85.6453 113.635 85.6453C112.892 85.6453 112.303 85.9398 111.868 86.5288C111.433 87.0921 111.228 87.8476 111.253 88.7951V90.2932C111.253 90.4212 111.202 90.5365 111.1 90.6389C111.023 90.7157 110.921 90.7541 110.793 90.7541H107.182C107.054 90.7541 106.938 90.7157 106.836 90.6389C106.759 90.5365 106.721 90.4212 106.721 90.2932V88.6414C106.823 86.5928 107.515 84.9411 108.795 83.6862C110.101 82.4314 111.778 81.804 113.827 81.804C115.85 81.804 117.476 82.4699 118.705 83.8015C119.96 85.1075 120.588 86.8361 120.588 88.9872C120.588 90.2676 120.37 91.5352 119.935 92.79C119.499 94.0448 118.808 95.3892 117.86 96.8233C117.22 97.8476 116.452 98.9744 115.556 100.204C114.685 101.433 114.109 102.239 113.827 102.624C113.059 103.648 112.495 104.416 112.137 104.928ZM137.155 97.9757C137.283 97.9757 137.386 98.0269 137.462 98.1293C137.565 98.2061 137.616 98.3086 137.616 98.4366V101.548C137.616 101.676 137.565 101.791 137.462 101.894C137.386 101.971 137.283 102.009 137.155 102.009H136.003C135.875 102.009 135.811 102.073 135.811 102.201V108.539C135.811 108.667 135.759 108.782 135.657 108.885C135.58 108.962 135.478 109 135.35 109H131.816C131.688 109 131.573 108.962 131.47 108.885C131.393 108.782 131.355 108.667 131.355 108.539V102.201C131.355 102.073 131.291 102.009 131.163 102.009H121.713C121.585 102.009 121.47 101.971 121.368 101.894C121.291 101.791 121.252 101.676 121.252 101.548V99.0512C121.252 98.8207 121.278 98.6287 121.329 98.475L126.669 82.4955C126.745 82.2394 126.912 82.1113 127.168 82.1113H131.009C131.163 82.1113 131.278 82.1626 131.355 82.265C131.432 82.3418 131.444 82.4699 131.393 82.6491L126.476 97.7452C126.451 97.8988 126.502 97.9757 126.63 97.9757H131.163C131.291 97.9757 131.355 97.9116 131.355 97.7836V93.1741C131.355 93.0461 131.393 92.9436 131.47 92.8668C131.573 92.7644 131.688 92.7132 131.816 92.7132H135.35C135.478 92.7132 135.58 92.7644 135.657 92.8668C135.759 92.9436 135.811 93.0461 135.811 93.1741V97.7836C135.811 97.9116 135.875 97.9757 136.003 97.9757H137.155Z" fill="white"/>
<rect x="202" y="10" width="168" height="168" fill="#FFDE16"/>
<path d="M255.442 85.4916C255.442 85.6197 255.391 85.7349 255.288 85.8373C255.211 85.9142 255.109 85.9526 254.981 85.9526H246.722C246.594 85.9526 246.53 86.0166 246.53 86.1446V93.4046C246.53 93.5326 246.594 93.5966 246.722 93.5966H251.601C251.729 93.5966 251.831 93.6479 251.908 93.7503C252.01 93.8271 252.061 93.9295 252.061 94.0576V97.0153C252.061 97.1434 252.01 97.2586 251.908 97.3611C251.831 97.4379 251.729 97.4763 251.601 97.4763H246.722C246.594 97.4763 246.53 97.5403 246.53 97.6684V108.539C246.53 108.667 246.479 108.782 246.376 108.885C246.3 108.962 246.197 109 246.069 109H242.535C242.407 109 242.292 108.962 242.19 108.885C242.113 108.782 242.074 108.667 242.074 108.539V82.5723C242.074 82.4442 242.113 82.3418 242.19 82.265C242.292 82.1626 242.407 82.1113 242.535 82.1113H254.981C255.109 82.1113 255.211 82.1626 255.288 82.265C255.391 82.3418 255.442 82.4442 255.442 82.5723V85.4916ZM270.059 85.4916C270.059 85.6197 270.008 85.7349 269.906 85.8373C269.829 85.9142 269.726 85.9526 269.598 85.9526H261.34C261.212 85.9526 261.148 86.0166 261.148 86.1446V93.4046C261.148 93.5326 261.212 93.5966 261.34 93.5966H266.218C266.346 93.5966 266.448 93.6479 266.525 93.7503C266.628 93.8271 266.679 93.9295 266.679 94.0576V97.0153C266.679 97.1434 266.628 97.2586 266.525 97.3611C266.448 97.4379 266.346 97.4763 266.218 97.4763H261.34C261.212 97.4763 261.148 97.5403 261.148 97.6684V108.539C261.148 108.667 261.096 108.782 260.994 108.885C260.917 108.962 260.815 109 260.687 109H257.153C257.025 109 256.909 108.962 256.807 108.885C256.73 108.782 256.692 108.667 256.692 108.539V82.5723C256.692 82.4442 256.73 82.3418 256.807 82.265C256.909 82.1626 257.025 82.1113 257.153 82.1113H269.598C269.726 82.1113 269.829 82.1626 269.906 82.265C270.008 82.3418 270.059 82.4442 270.059 82.5723V85.4916ZM271.77 109C271.642 109 271.527 108.962 271.424 108.885C271.347 108.782 271.309 108.667 271.309 108.539V82.5723C271.309 82.4442 271.347 82.3418 271.424 82.265C271.527 82.1626 271.642 82.1113 271.77 82.1113H278.339C280.541 82.1113 282.295 82.7772 283.601 84.1088C284.933 85.4404 285.598 87.2202 285.598 89.4481V101.663C285.598 103.891 284.933 105.671 283.601 107.003C282.295 108.334 280.541 109 278.339 109H271.77ZM275.765 104.967C275.765 105.095 275.829 105.159 275.957 105.159L278.262 105.12C279.107 105.12 279.785 104.787 280.298 104.122C280.835 103.43 281.117 102.521 281.143 101.394V89.717C281.143 88.5646 280.874 87.6555 280.336 86.9897C279.824 86.2983 279.12 85.9526 278.223 85.9526H275.957C275.829 85.9526 275.765 86.0166 275.765 86.1446V104.967ZM301.358 85.4916C301.358 85.6197 301.307 85.7349 301.204 85.8373C301.128 85.9142 301.025 85.9526 300.897 85.9526H292.6C292.472 85.9526 292.408 86.0166 292.408 86.1446V93.4046C292.408 93.5326 292.472 93.5966 292.6 93.5966H297.517C297.645 93.5966 297.747 93.6479 297.824 93.7503C297.927 93.8271 297.978 93.9295 297.978 94.0576V97.0153C297.978 97.1434 297.927 97.2586 297.824 97.3611C297.747 97.4379 297.645 97.4763 297.517 97.4763H292.6C292.472 97.4763 292.408 97.5403 292.408 97.6684V104.967C292.408 105.095 292.472 105.159 292.6 105.159H300.897C301.025 105.159 301.128 105.21 301.204 105.312C301.307 105.389 301.358 105.492 301.358 105.62V108.539C301.358 108.667 301.307 108.782 301.204 108.885C301.128 108.962 301.025 109 300.897 109H288.413C288.285 109 288.17 108.962 288.067 108.885C287.991 108.782 287.952 108.667 287.952 108.539V82.5723C287.952 82.4442 287.991 82.3418 288.067 82.265C288.17 82.1626 288.285 82.1113 288.413 82.1113H300.897C301.025 82.1113 301.128 82.1626 301.204 82.265C301.307 82.3418 301.358 82.4442 301.358 82.5723V85.4916ZM305.356 82.2266C305.535 82.1498 305.727 82.1113 305.932 82.1113H309.619C309.747 82.1113 309.85 82.1626 309.927 82.265C310.029 82.3418 310.08 82.4442 310.08 82.5723V108.539C310.08 108.667 310.029 108.782 309.927 108.885C309.85 108.962 309.747 109 309.619 109H306.085C305.957 109 305.842 108.962 305.74 108.885C305.663 108.782 305.625 108.667 305.625 108.539V86.8745C305.625 86.8233 305.599 86.772 305.548 86.7208C305.522 86.6696 305.484 86.6568 305.432 86.6824L302.283 87.297H302.167C301.886 87.297 301.745 87.1562 301.745 86.8745L301.63 84.3008C301.63 84.0448 301.732 83.8655 301.937 83.7631L305.356 82.2266ZM325.672 98.0141C325.801 98.8591 325.865 99.7554 325.865 100.703C325.865 101.292 325.839 102.124 325.788 103.2C325.66 105.146 324.981 106.657 323.752 107.732C322.548 108.782 320.948 109.307 318.95 109.307C317.055 109.307 315.519 108.821 314.341 107.848C313.163 106.849 312.459 105.389 312.228 103.469C312.075 102.777 311.998 101.971 311.998 101.049L311.959 88.5646C311.959 86.4904 312.587 84.8514 313.841 83.6478C315.122 82.4186 316.799 81.804 318.873 81.804C320.82 81.804 322.407 82.4186 323.637 83.6478C324.866 84.877 325.48 86.516 325.48 88.5646V89.5249C325.48 89.653 325.429 89.7682 325.327 89.8706C325.25 89.9475 325.148 89.9859 325.019 89.9859H321.486C321.357 89.9859 321.242 89.9475 321.14 89.8706C321.063 89.7682 321.025 89.653 321.025 89.5249V88.7951C321.025 87.9244 320.807 87.2074 320.372 86.644C319.962 86.055 319.462 85.7605 318.873 85.7605C318.156 85.7605 317.567 86.0422 317.107 86.6056C316.671 87.169 316.454 87.8988 316.454 88.7951V92.7516C316.454 92.8284 316.479 92.8796 316.53 92.9052C316.582 92.9308 316.633 92.918 316.684 92.8668C317.427 92.1754 318.349 91.8297 319.45 91.8297C321.217 91.8297 322.651 92.3931 323.752 93.5198C324.853 94.6466 325.493 96.1447 325.672 98.0141ZM321.255 102.854C321.332 101.932 321.37 101.113 321.37 100.396C321.37 99.7298 321.306 98.8207 321.178 97.6684C320.871 96.1831 320.115 95.4404 318.912 95.4404C318.297 95.4404 317.785 95.6453 317.375 96.055C316.991 96.4392 316.735 97.0153 316.607 97.7836C316.505 98.6799 316.454 99.5506 316.454 100.396C316.454 101.138 316.492 101.996 316.569 102.969C316.697 103.789 316.953 104.416 317.337 104.851C317.747 105.287 318.272 105.504 318.912 105.504C319.552 105.504 320.064 105.274 320.448 104.813C320.858 104.352 321.127 103.699 321.255 102.854Z" fill="black"/>
<rect x="394" y="10" width="168" height="168" fill="black"/>
<path d="M440.604 109.423C438.453 109.423 436.725 108.744 435.419 107.387C434.113 106.004 433.46 104.198 433.46 101.971V89.1408C433.46 86.9129 434.113 85.1203 435.419 83.7631C436.725 82.3802 438.453 81.6888 440.604 81.6888C442.781 81.6888 444.522 82.3802 445.828 83.7631C447.16 85.1203 447.826 86.9129 447.826 89.1408V101.971C447.826 104.198 447.16 106.004 445.828 107.387C444.522 108.744 442.781 109.423 440.604 109.423ZM440.604 105.543C441.449 105.543 442.115 105.248 442.602 104.659C443.114 104.045 443.37 103.238 443.37 102.239V88.8719C443.37 87.8732 443.114 87.0793 442.602 86.4904C442.115 85.8758 441.449 85.5685 440.604 85.5685C439.785 85.5685 439.132 85.8758 438.645 86.4904C438.159 87.0793 437.916 87.8732 437.916 88.8719V102.239C437.916 103.238 438.159 104.045 438.645 104.659C439.132 105.248 439.785 105.543 440.604 105.543ZM456.572 109.423C454.421 109.423 452.693 108.744 451.387 107.387C450.081 106.004 449.428 104.198 449.428 101.971V89.1408C449.428 86.9129 450.081 85.1203 451.387 83.7631C452.693 82.3802 454.421 81.6888 456.572 81.6888C458.749 81.6888 460.49 82.3802 461.796 83.7631C463.128 85.1203 463.794 86.9129 463.794 89.1408V101.971C463.794 104.198 463.128 106.004 461.796 107.387C460.49 108.744 458.749 109.423 456.572 109.423ZM456.572 105.543C457.417 105.543 458.083 105.248 458.57 104.659C459.082 104.045 459.338 103.238 459.338 102.239V88.8719C459.338 87.8732 459.082 87.0793 458.57 86.4904C458.083 85.8758 457.417 85.5685 456.572 85.5685C455.753 85.5685 455.1 85.8758 454.613 86.4904C454.127 87.0793 453.883 87.8732 453.883 88.8719V102.239C453.883 103.238 454.127 104.045 454.613 104.659C455.1 105.248 455.753 105.543 456.572 105.543ZM472.54 109.423C470.389 109.423 468.66 108.744 467.354 107.387C466.048 106.004 465.395 104.198 465.395 101.971V89.1408C465.395 86.9129 466.048 85.1203 467.354 83.7631C468.66 82.3802 470.389 81.6888 472.54 81.6888C474.717 81.6888 476.458 82.3802 477.764 83.7631C479.096 85.1203 479.762 86.9129 479.762 89.1408V101.971C479.762 104.198 479.096 106.004 477.764 107.387C476.458 108.744 474.717 109.423 472.54 109.423ZM472.54 105.543C473.385 105.543 474.051 105.248 474.537 104.659C475.05 104.045 475.306 103.238 475.306 102.239V88.8719C475.306 87.8732 475.05 87.0793 474.537 86.4904C474.051 85.8758 473.385 85.5685 472.54 85.5685C471.721 85.5685 471.068 85.8758 470.581 86.4904C470.094 87.0793 469.851 87.8732 469.851 88.8719V102.239C469.851 103.238 470.094 104.045 470.581 104.659C471.068 105.248 471.721 105.543 472.54 105.543ZM488.508 109.423C486.357 109.423 484.628 108.744 483.322 107.387C482.016 106.004 481.363 104.198 481.363 101.971V89.1408C481.363 86.9129 482.016 85.1203 483.322 83.7631C484.628 82.3802 486.357 81.6888 488.508 81.6888C490.685 81.6888 492.426 82.3802 493.732 83.7631C495.064 85.1203 495.729 86.9129 495.729 89.1408V101.971C495.729 104.198 495.064 106.004 493.732 107.387C492.426 108.744 490.685 109.423 488.508 109.423ZM488.508 105.543C489.353 105.543 490.019 105.248 490.505 104.659C491.018 104.045 491.274 103.238 491.274 102.239V88.8719C491.274 87.8732 491.018 87.0793 490.505 86.4904C490.019 85.8758 489.353 85.5685 488.508 85.5685C487.688 85.5685 487.035 85.8758 486.549 86.4904C486.062 87.0793 485.819 87.8732 485.819 88.8719V102.239C485.819 103.238 486.062 104.045 486.549 104.659C487.035 105.248 487.688 105.543 488.508 105.543ZM504.476 109.423C502.325 109.423 500.596 108.744 499.29 107.387C497.984 106.004 497.331 104.198 497.331 101.971V89.1408C497.331 86.9129 497.984 85.1203 499.29 83.7631C500.596 82.3802 502.325 81.6888 504.476 81.6888C506.652 81.6888 508.394 82.3802 509.7 83.7631C511.031 85.1203 511.697 86.9129 511.697 89.1408V101.971C511.697 104.198 511.031 106.004 509.7 107.387C508.394 108.744 506.652 109.423 504.476 109.423ZM504.476 105.543C505.321 105.543 505.987 105.248 506.473 104.659C506.985 104.045 507.241 103.238 507.241 102.239V88.8719C507.241 87.8732 506.985 87.0793 506.473 86.4904C505.987 85.8758 505.321 85.5685 504.476 85.5685C503.656 85.5685 503.003 85.8758 502.517 86.4904C502.03 87.0793 501.787 87.8732 501.787 88.8719V102.239C501.787 103.238 502.03 104.045 502.517 104.659C503.003 105.248 503.656 105.543 504.476 105.543ZM520.444 109.423C518.292 109.423 516.564 108.744 515.258 107.387C513.952 106.004 513.299 104.198 513.299 101.971V89.1408C513.299 86.9129 513.952 85.1203 515.258 83.7631C516.564 82.3802 518.292 81.6888 520.444 81.6888C522.62 81.6888 524.362 82.3802 525.668 83.7631C526.999 85.1203 527.665 86.9129 527.665 89.1408V101.971C527.665 104.198 526.999 106.004 525.668 107.387C524.362 108.744 522.62 109.423 520.444 109.423ZM520.444 105.543C521.289 105.543 521.954 105.248 522.441 104.659C522.953 104.045 523.209 103.238 523.209 102.239V88.8719C523.209 87.8732 522.953 87.0793 522.441 86.4904C521.954 85.8758 521.289 85.5685 520.444 85.5685C519.624 85.5685 518.971 85.8758 518.485 86.4904C517.998 87.0793 517.755 87.8732 517.755 88.8719V102.239C517.755 103.238 517.998 104.045 518.485 104.659C518.971 105.248 519.624 105.543 520.444 105.543Z" fill="white"/>
<rect x="586" y="10" width="168" height="168" fill="#282924"/>
<rect x="586" y="209" width="168" height="168" fill="#F2F2F2"/>
<rect x="782" y="10" width="168" height="168" fill="white"/>
<path d="M627.53 104.928C627.479 104.98 627.466 105.031 627.492 105.082C627.517 105.133 627.569 105.159 627.645 105.159H636.058C636.186 105.159 636.288 105.21 636.365 105.312C636.467 105.389 636.519 105.492 636.519 105.62V108.539C636.519 108.667 636.467 108.782 636.365 108.885C636.288 108.962 636.186 109 636.058 109H622.652C622.524 109 622.408 108.962 622.306 108.885C622.229 108.782 622.191 108.667 622.191 108.539V105.466C622.191 105.236 622.255 105.044 622.383 104.89L623.881 102.854C624.88 101.522 625.853 100.165 626.8 98.7823C627.773 97.3995 628.593 96.1575 629.259 95.0563C630.744 92.5979 631.487 90.5621 631.487 88.9487C631.487 87.9244 631.256 87.1178 630.795 86.5288C630.36 85.9398 629.771 85.6453 629.028 85.6453C628.286 85.6453 627.697 85.9398 627.261 86.5288C626.826 87.0921 626.621 87.8476 626.647 88.7951V90.2932C626.647 90.4212 626.595 90.5365 626.493 90.6389C626.416 90.7157 626.314 90.7541 626.186 90.7541H622.575C622.447 90.7541 622.332 90.7157 622.229 90.6389C622.152 90.5365 622.114 90.4212 622.114 90.2932V88.6414C622.216 86.5928 622.908 84.9411 624.188 83.6862C625.494 82.4314 627.172 81.804 629.22 81.804C631.243 81.804 632.869 82.4699 634.099 83.8015C635.353 85.1075 635.981 86.8361 635.981 88.9872C635.981 90.2676 635.763 91.5352 635.328 92.79C634.892 94.0448 634.201 95.3892 633.254 96.8233C632.613 97.8476 631.845 98.9744 630.949 100.204C630.078 101.433 629.502 102.239 629.22 102.624C628.452 103.648 627.889 104.416 627.53 104.928ZM648.477 94.749C648.323 94.8514 648.323 94.9411 648.477 95.0179C649.322 95.5045 649.962 96.2471 650.397 97.2458C650.935 98.4494 651.204 99.8066 651.204 101.318C651.204 102.675 650.999 103.866 650.589 104.89C650.077 106.273 649.27 107.361 648.169 108.155C647.094 108.923 645.8 109.307 644.29 109.307C642.804 109.307 641.511 108.923 640.41 108.155C639.334 107.387 638.541 106.311 638.028 104.928C637.644 103.853 637.452 102.649 637.452 101.318C637.452 99.8066 637.683 98.5134 638.144 97.4379C638.528 96.4135 639.206 95.6197 640.179 95.0563C640.282 94.9795 640.282 94.9027 640.179 94.8258C639.334 94.2881 638.681 93.5454 638.22 92.5979C637.708 91.4968 637.452 90.2676 637.452 88.9103C637.452 87.4251 637.708 86.1831 638.22 85.1843C638.733 84.0576 639.514 83.1869 640.564 82.5723C641.639 81.9577 642.881 81.6504 644.29 81.6504C645.672 81.6504 646.889 81.9577 647.939 82.5723C649.014 83.1613 649.821 84.0192 650.359 85.1459C650.922 86.2215 651.204 87.4763 651.204 88.9103C651.204 90.242 650.948 91.4455 650.436 92.5211C649.975 93.4686 649.322 94.2112 648.477 94.749ZM642.1 87.5275C641.921 87.9884 641.831 88.5774 641.831 89.2945C641.831 90.0627 641.959 90.7925 642.215 91.484C642.395 92.0217 642.663 92.4443 643.022 92.7516C643.381 93.0589 643.803 93.2125 644.29 93.2125C644.827 93.2125 645.276 93.0589 645.634 92.7516C646.018 92.4187 646.3 91.9577 646.479 91.3687C646.684 90.7541 646.786 90.0627 646.786 89.2945C646.786 88.4238 646.658 87.7195 646.402 87.1818C646.223 86.644 645.954 86.2343 645.596 85.9526C645.237 85.6453 644.802 85.4916 644.29 85.4916C643.829 85.4916 643.419 85.6325 643.06 85.9142C642.727 86.1702 642.471 86.5288 642.292 86.9897L642.1 87.5275ZM646.594 103.123C646.722 102.431 646.786 101.753 646.786 101.087C646.786 100.114 646.671 99.2817 646.441 98.5902C646.287 97.9756 646.018 97.5019 645.634 97.169C645.276 96.8105 644.827 96.6312 644.29 96.6312C643.752 96.6312 643.291 96.8105 642.907 97.169C642.548 97.5275 642.292 98.0397 642.139 98.7055C641.934 99.3713 641.831 100.14 641.831 101.01C641.831 101.804 641.908 102.534 642.062 103.2C642.19 103.917 642.446 104.48 642.83 104.89C643.24 105.274 643.726 105.466 644.29 105.466C644.879 105.466 645.378 105.261 645.788 104.851C646.197 104.442 646.466 103.866 646.594 103.123ZM657.853 104.928C657.802 104.98 657.789 105.031 657.814 105.082C657.84 105.133 657.891 105.159 657.968 105.159H666.38C666.508 105.159 666.611 105.21 666.688 105.312C666.79 105.389 666.841 105.492 666.841 105.62V108.539C666.841 108.667 666.79 108.782 666.688 108.885C666.611 108.962 666.508 109 666.38 109H652.974C652.846 109 652.731 108.962 652.629 108.885C652.552 108.782 652.513 108.667 652.513 108.539V105.466C652.513 105.236 652.577 105.044 652.706 104.89L654.204 102.854C655.202 101.522 656.175 100.165 657.123 98.7823C658.096 97.3995 658.916 96.1575 659.581 95.0563C661.067 92.5979 661.809 90.5621 661.809 88.9487C661.809 87.9244 661.579 87.1178 661.118 86.5288C660.682 85.9398 660.093 85.6453 659.351 85.6453C658.608 85.6453 658.019 85.9398 657.584 86.5288C657.149 87.0921 656.944 87.8476 656.969 88.7951V90.2932C656.969 90.4212 656.918 90.5365 656.816 90.6389C656.739 90.7157 656.636 90.7541 656.508 90.7541H652.898C652.77 90.7541 652.654 90.7157 652.552 90.6389C652.475 90.5365 652.437 90.4212 652.437 90.2932V88.6414C652.539 86.5928 653.23 84.9411 654.511 83.6862C655.817 82.4314 657.494 81.804 659.543 81.804C661.566 81.804 663.192 82.4699 664.421 83.8015C665.676 85.1075 666.303 86.8361 666.303 88.9872C666.303 90.2676 666.086 91.5352 665.65 92.79C665.215 94.0448 664.524 95.3892 663.576 96.8233C662.936 97.8476 662.168 98.9744 661.271 100.204C660.401 101.433 659.825 102.239 659.543 102.624C658.775 103.648 658.211 104.416 657.853 104.928ZM681.066 102.547C681.066 104.621 680.425 106.273 679.145 107.502C677.89 108.706 676.226 109.307 674.151 109.307C672.205 109.307 670.617 108.693 669.388 107.464C668.159 106.234 667.544 104.595 667.544 102.547V101.586C667.544 101.458 667.583 101.356 667.66 101.279C667.762 101.177 667.877 101.125 668.005 101.125H671.539C671.667 101.125 671.77 101.177 671.847 101.279C671.949 101.356 672 101.458 672 101.586V102.316C672 103.187 672.205 103.917 672.615 104.506C673.05 105.069 673.562 105.351 674.151 105.351C674.868 105.351 675.445 105.069 675.88 104.506C676.341 103.942 676.571 103.213 676.571 102.316V98.3982C676.571 98.3214 676.546 98.2701 676.494 98.2445C676.443 98.2189 676.392 98.2317 676.341 98.2829C675.598 98.9488 674.676 99.2817 673.575 99.2817C671.808 99.2817 670.374 98.7183 669.273 97.5915C668.172 96.4648 667.532 94.9667 667.352 93.0973C667.224 92.2522 667.16 91.3559 667.16 90.4084C667.16 89.5377 667.199 88.7055 667.276 87.9116C667.378 85.9654 668.031 84.4673 669.235 83.4174C670.464 82.3418 672.09 81.804 674.113 81.804C675.982 81.804 677.506 82.3034 678.684 83.3021C679.862 84.2752 680.579 85.7221 680.835 87.6427C680.963 88.411 681.027 89.2176 681.027 90.0627L681.066 102.547ZM676.418 93.3278C676.52 92.4315 676.571 91.5608 676.571 90.7157C676.571 89.9475 676.533 89.0896 676.456 88.1421C676.174 86.4519 675.406 85.6069 674.151 85.6069C673.511 85.6069 672.986 85.8373 672.576 86.2983C672.167 86.7592 671.898 87.4122 671.77 88.2573C671.719 88.8719 671.693 89.6914 671.693 90.7157C671.693 91.6632 671.757 92.5723 671.885 93.443C672.013 94.16 672.269 94.7106 672.653 95.0947C673.063 95.4788 673.562 95.6709 674.151 95.6709C674.766 95.6709 675.265 95.4788 675.649 95.0947C676.059 94.685 676.315 94.096 676.418 93.3278ZM687.763 104.928C687.712 104.98 687.699 105.031 687.724 105.082C687.75 105.133 687.801 105.159 687.878 105.159H696.29C696.418 105.159 696.521 105.21 696.598 105.312C696.7 105.389 696.751 105.492 696.751 105.62V108.539C696.751 108.667 696.7 108.782 696.598 108.885C696.521 108.962 696.418 109 696.29 109H682.884C682.756 109 682.641 108.962 682.539 108.885C682.462 108.782 682.423 108.667 682.423 108.539V105.466C682.423 105.236 682.488 105.044 682.616 104.89L684.114 102.854C685.112 101.522 686.085 100.165 687.033 98.7823C688.006 97.3995 688.826 96.1575 689.491 95.0563C690.977 92.5979 691.719 90.5621 691.719 88.9487C691.719 87.9244 691.489 87.1178 691.028 86.5288C690.593 85.9398 690.004 85.6453 689.261 85.6453C688.518 85.6453 687.929 85.9398 687.494 86.5288C687.059 87.0921 686.854 87.8476 686.879 88.7951V90.2932C686.879 90.4212 686.828 90.5365 686.726 90.6389C686.649 90.7157 686.546 90.7541 686.418 90.7541H682.808C682.68 90.7541 682.564 90.7157 682.462 90.6389C682.385 90.5365 682.347 90.4212 682.347 90.2932V88.6414C682.449 86.5928 683.141 84.9411 684.421 83.6862C685.727 82.4314 687.404 81.804 689.453 81.804C691.476 81.804 693.102 82.4699 694.331 83.8015C695.586 85.1075 696.214 86.8361 696.214 88.9872C696.214 90.2676 695.996 91.5352 695.561 92.79C695.125 94.0448 694.434 95.3892 693.486 96.8233C692.846 97.8476 692.078 98.9744 691.182 100.204C690.311 101.433 689.735 102.239 689.453 102.624C688.685 103.648 688.121 104.416 687.763 104.928ZM712.781 97.9757C712.909 97.9757 713.011 98.0269 713.088 98.1293C713.191 98.2061 713.242 98.3086 713.242 98.4366V101.548C713.242 101.676 713.191 101.791 713.088 101.894C713.011 101.971 712.909 102.009 712.781 102.009H711.629C711.501 102.009 711.437 102.073 711.437 102.201V108.539C711.437 108.667 711.385 108.782 711.283 108.885C711.206 108.962 711.104 109 710.976 109H707.442C707.314 109 707.198 108.962 707.096 108.885C707.019 108.782 706.981 108.667 706.981 108.539V102.201C706.981 102.073 706.917 102.009 706.789 102.009H697.339C697.211 102.009 697.096 101.971 696.993 101.894C696.917 101.791 696.878 101.676 696.878 101.548V99.0512C696.878 98.8207 696.904 98.6287 696.955 98.475L702.294 82.4955C702.371 82.2394 702.538 82.1113 702.794 82.1113H706.635C706.789 82.1113 706.904 82.1626 706.981 82.265C707.058 82.3418 707.07 82.4699 707.019 82.6491L702.102 97.7452C702.077 97.8988 702.128 97.9757 702.256 97.9757H706.789C706.917 97.9757 706.981 97.9116 706.981 97.7836V93.1741C706.981 93.0461 707.019 92.9436 707.096 92.8668C707.198 92.7644 707.314 92.7132 707.442 92.7132H710.976C711.104 92.7132 711.206 92.7644 711.283 92.8668C711.385 92.9436 711.437 93.0461 711.437 93.1741V97.7836C711.437 97.9116 711.501 97.9757 711.629 97.9757H712.781Z" fill="white"/>
<path d="M636.442 284.492C636.442 284.62 636.391 284.735 636.288 284.837C636.211 284.914 636.109 284.953 635.981 284.953H627.722C627.594 284.953 627.53 285.017 627.53 285.145V292.405C627.53 292.533 627.594 292.597 627.722 292.597H632.601C632.729 292.597 632.831 292.648 632.908 292.75C633.01 292.827 633.061 292.93 633.061 293.058V296.015C633.061 296.143 633.01 296.259 632.908 296.361C632.831 296.438 632.729 296.476 632.601 296.476H627.722C627.594 296.476 627.53 296.54 627.53 296.668V307.539C627.53 307.667 627.479 307.782 627.376 307.885C627.3 307.962 627.197 308 627.069 308H623.535C623.407 308 623.292 307.962 623.19 307.885C623.113 307.782 623.074 307.667 623.074 307.539V281.572C623.074 281.444 623.113 281.342 623.19 281.265C623.292 281.163 623.407 281.111 623.535 281.111H635.981C636.109 281.111 636.211 281.163 636.288 281.265C636.391 281.342 636.442 281.444 636.442 281.572V284.492ZM642.148 303.928C642.096 303.98 642.083 304.031 642.109 304.082C642.135 304.133 642.186 304.159 642.263 304.159H650.675C650.803 304.159 650.906 304.21 650.982 304.312C651.085 304.389 651.136 304.492 651.136 304.62V307.539C651.136 307.667 651.085 307.782 650.982 307.885C650.906 307.962 650.803 308 650.675 308H637.269C637.141 308 637.026 307.962 636.923 307.885C636.847 307.782 636.808 307.667 636.808 307.539V304.466C636.808 304.236 636.872 304.044 637 303.89L638.498 301.854C639.497 300.522 640.47 299.165 641.418 297.782C642.391 296.399 643.21 295.157 643.876 294.056C645.361 291.598 646.104 289.562 646.104 287.949C646.104 286.924 645.874 286.118 645.413 285.529C644.977 284.94 644.388 284.645 643.646 284.645C642.903 284.645 642.314 284.94 641.879 285.529C641.443 286.092 641.238 286.848 641.264 287.795V289.293C641.264 289.421 641.213 289.536 641.11 289.639C641.034 289.716 640.931 289.754 640.803 289.754H637.192C637.064 289.754 636.949 289.716 636.847 289.639C636.77 289.536 636.731 289.421 636.731 289.293V287.641C636.834 285.593 637.525 283.941 638.806 282.686C640.112 281.431 641.789 280.804 643.838 280.804C645.861 280.804 647.487 281.47 648.716 282.801C649.971 284.108 650.598 285.836 650.598 287.987C650.598 289.268 650.381 290.535 649.945 291.79C649.51 293.045 648.818 294.389 647.871 295.823C647.231 296.848 646.462 297.974 645.566 299.204C644.696 300.433 644.119 301.239 643.838 301.624C643.069 302.648 642.506 303.416 642.148 303.928ZM666.052 284.492C666.052 284.62 666 284.735 665.898 284.837C665.821 284.914 665.719 284.953 665.591 284.953H657.332C657.204 284.953 657.14 285.017 657.14 285.145V292.405C657.14 292.533 657.204 292.597 657.332 292.597H662.21C662.339 292.597 662.441 292.648 662.518 292.75C662.62 292.827 662.671 292.93 662.671 293.058V296.015C662.671 296.143 662.62 296.259 662.518 296.361C662.441 296.438 662.339 296.476 662.21 296.476H657.332C657.204 296.476 657.14 296.54 657.14 296.668V307.539C657.14 307.667 657.089 307.782 656.986 307.885C656.91 307.962 656.807 308 656.679 308H653.145C653.017 308 652.902 307.962 652.799 307.885C652.723 307.782 652.684 307.667 652.684 307.539V281.572C652.684 281.444 652.723 281.342 652.799 281.265C652.902 281.163 653.017 281.111 653.145 281.111H665.591C665.719 281.111 665.821 281.163 665.898 281.265C666 281.342 666.052 281.444 666.052 281.572V284.492ZM671.757 303.928C671.706 303.98 671.693 304.031 671.719 304.082C671.745 304.133 671.796 304.159 671.873 304.159H680.285C680.413 304.159 680.515 304.21 680.592 304.312C680.695 304.389 680.746 304.492 680.746 304.62V307.539C680.746 307.667 680.695 307.782 680.592 307.885C680.515 307.962 680.413 308 680.285 308H666.879C666.751 308 666.636 307.962 666.533 307.885C666.457 307.782 666.418 307.667 666.418 307.539V304.466C666.418 304.236 666.482 304.044 666.61 303.89L668.108 301.854C669.107 300.522 670.08 299.165 671.028 297.782C672.001 296.399 672.82 295.157 673.486 294.056C674.971 291.598 675.714 289.562 675.714 287.949C675.714 286.924 675.483 286.118 675.022 285.529C674.587 284.94 673.998 284.645 673.256 284.645C672.513 284.645 671.924 284.94 671.489 285.529C671.053 286.092 670.848 286.848 670.874 287.795V289.293C670.874 289.421 670.823 289.536 670.72 289.639C670.643 289.716 670.541 289.754 670.413 289.754H666.802C666.674 289.754 666.559 289.716 666.457 289.639C666.38 289.536 666.341 289.421 666.341 289.293V287.641C666.444 285.593 667.135 283.941 668.416 282.686C669.722 281.431 671.399 280.804 673.448 280.804C675.471 280.804 677.097 281.47 678.326 282.801C679.581 284.108 680.208 285.836 680.208 287.987C680.208 289.268 679.99 290.535 679.555 291.79C679.12 293.045 678.428 294.389 677.481 295.823C676.841 296.848 676.072 297.974 675.176 299.204C674.305 300.433 673.729 301.239 673.448 301.624C672.679 302.648 672.116 303.416 671.757 303.928ZM695.662 284.492C695.662 284.62 695.61 284.735 695.508 284.837C695.431 284.914 695.329 284.953 695.201 284.953H686.942C686.814 284.953 686.75 285.017 686.75 285.145V292.405C686.75 292.533 686.814 292.597 686.942 292.597H691.82C691.948 292.597 692.051 292.648 692.128 292.75C692.23 292.827 692.281 292.93 692.281 293.058V296.015C692.281 296.143 692.23 296.259 692.128 296.361C692.051 296.438 691.948 296.476 691.82 296.476H686.942C686.814 296.476 686.75 296.54 686.75 296.668V307.539C686.75 307.667 686.699 307.782 686.596 307.885C686.52 307.962 686.417 308 686.289 308H682.755C682.627 308 682.512 307.962 682.409 307.885C682.333 307.782 682.294 307.667 682.294 307.539V281.572C682.294 281.444 682.333 281.342 682.409 281.265C682.512 281.163 682.627 281.111 682.755 281.111H695.201C695.329 281.111 695.431 281.163 695.508 281.265C695.61 281.342 695.662 281.444 695.662 281.572V284.492ZM701.367 303.928C701.316 303.98 701.303 304.031 701.329 304.082C701.355 304.133 701.406 304.159 701.483 304.159H709.895C710.023 304.159 710.125 304.21 710.202 304.312C710.305 304.389 710.356 304.492 710.356 304.62V307.539C710.356 307.667 710.305 307.782 710.202 307.885C710.125 307.962 710.023 308 709.895 308H696.489C696.361 308 696.246 307.962 696.143 307.885C696.066 307.782 696.028 307.667 696.028 307.539V304.466C696.028 304.236 696.092 304.044 696.22 303.89L697.718 301.854C698.717 300.522 699.69 299.165 700.638 297.782C701.611 296.399 702.43 295.157 703.096 294.056C704.581 291.598 705.324 289.562 705.324 287.949C705.324 286.924 705.093 286.118 704.632 285.529C704.197 284.94 703.608 284.645 702.865 284.645C702.123 284.645 701.534 284.94 701.098 285.529C700.663 286.092 700.458 286.848 700.484 287.795V289.293C700.484 289.421 700.433 289.536 700.33 289.639C700.253 289.716 700.151 289.754 700.023 289.754H696.412C696.284 289.754 696.169 289.716 696.066 289.639C695.99 289.536 695.951 289.421 695.951 289.293V287.641C696.054 285.593 696.745 283.941 698.026 282.686C699.332 281.431 701.009 280.804 703.058 280.804C705.081 280.804 706.707 281.47 707.936 282.801C709.191 284.108 709.818 285.836 709.818 287.987C709.818 289.268 709.6 290.535 709.165 291.79C708.73 293.045 708.038 294.389 707.091 295.823C706.451 296.848 705.682 297.974 704.786 299.204C703.915 300.433 703.339 301.239 703.058 301.624C702.289 302.648 701.726 303.416 701.367 303.928Z" fill="#282924"/>
<path d="M832.442 85.4916C832.442 85.6197 832.391 85.7349 832.288 85.8373C832.211 85.9142 832.109 85.9526 831.981 85.9526H823.722C823.594 85.9526 823.53 86.0166 823.53 86.1446V93.4046C823.53 93.5326 823.594 93.5966 823.722 93.5966H828.601C828.729 93.5966 828.831 93.6479 828.908 93.7503C829.01 93.8271 829.061 93.9295 829.061 94.0576V97.0153C829.061 97.1434 829.01 97.2586 828.908 97.3611C828.831 97.4379 828.729 97.4763 828.601 97.4763H823.722C823.594 97.4763 823.53 97.5403 823.53 97.6684V108.539C823.53 108.667 823.479 108.782 823.376 108.885C823.3 108.962 823.197 109 823.069 109H819.535C819.407 109 819.292 108.962 819.19 108.885C819.113 108.782 819.074 108.667 819.074 108.539V82.5723C819.074 82.4442 819.113 82.3418 819.19 82.265C819.292 82.1626 819.407 82.1113 819.535 82.1113H831.981C832.109 82.1113 832.211 82.1626 832.288 82.265C832.391 82.3418 832.442 82.4442 832.442 82.5723V85.4916ZM847.059 85.4916C847.059 85.6197 847.008 85.7349 846.906 85.8373C846.829 85.9142 846.726 85.9526 846.598 85.9526H838.34C838.212 85.9526 838.148 86.0166 838.148 86.1446V93.4046C838.148 93.5326 838.212 93.5966 838.34 93.5966H843.218C843.346 93.5966 843.448 93.6479 843.525 93.7503C843.628 93.8271 843.679 93.9295 843.679 94.0576V97.0153C843.679 97.1434 843.628 97.2586 843.525 97.3611C843.448 97.4379 843.346 97.4763 843.218 97.4763H838.34C838.212 97.4763 838.148 97.5403 838.148 97.6684V108.539C838.148 108.667 838.096 108.782 837.994 108.885C837.917 108.962 837.815 109 837.687 109H834.153C834.025 109 833.909 108.962 833.807 108.885C833.73 108.782 833.692 108.667 833.692 108.539V82.5723C833.692 82.4442 833.73 82.3418 833.807 82.265C833.909 82.1626 834.025 82.1113 834.153 82.1113H846.598C846.726 82.1113 846.829 82.1626 846.906 82.265C847.008 82.3418 847.059 82.4442 847.059 82.5723V85.4916ZM861.677 85.4916C861.677 85.6197 861.625 85.7349 861.523 85.8373C861.446 85.9142 861.344 85.9526 861.216 85.9526H852.957C852.829 85.9526 852.765 86.0166 852.765 86.1446V93.4046C852.765 93.5326 852.829 93.5966 852.957 93.5966H857.835C857.963 93.5966 858.066 93.6479 858.143 93.7503C858.245 93.8271 858.296 93.9295 858.296 94.0576V97.0153C858.296 97.1434 858.245 97.2586 858.143 97.3611C858.066 97.4379 857.963 97.4763 857.835 97.4763H852.957C852.829 97.4763 852.765 97.5403 852.765 97.6684V108.539C852.765 108.667 852.714 108.782 852.611 108.885C852.534 108.962 852.432 109 852.304 109H848.77C848.642 109 848.527 108.962 848.424 108.885C848.347 108.782 848.309 108.667 848.309 108.539V82.5723C848.309 82.4442 848.347 82.3418 848.424 82.265C848.527 82.1626 848.642 82.1113 848.77 82.1113H861.216C861.344 82.1113 861.446 82.1626 861.523 82.265C861.625 82.3418 861.677 82.4442 861.677 82.5723V85.4916ZM876.294 85.4916C876.294 85.6197 876.243 85.7349 876.14 85.8373C876.064 85.9142 875.961 85.9526 875.833 85.9526H867.574C867.446 85.9526 867.382 86.0166 867.382 86.1446V93.4046C867.382 93.5326 867.446 93.5966 867.574 93.5966H872.453C872.581 93.5966 872.683 93.6479 872.76 93.7503C872.862 93.8271 872.914 93.9295 872.914 94.0576V97.0153C872.914 97.1434 872.862 97.2586 872.76 97.3611C872.683 97.4379 872.581 97.4763 872.453 97.4763H867.574C867.446 97.4763 867.382 97.5403 867.382 97.6684V108.539C867.382 108.667 867.331 108.782 867.229 108.885C867.152 108.962 867.049 109 866.921 109H863.387C863.259 109 863.144 108.962 863.042 108.885C862.965 108.782 862.926 108.667 862.926 108.539V82.5723C862.926 82.4442 862.965 82.3418 863.042 82.265C863.144 82.1626 863.259 82.1113 863.387 82.1113H875.833C875.961 82.1113 876.064 82.1626 876.14 82.265C876.243 82.3418 876.294 82.4442 876.294 82.5723V85.4916ZM890.911 85.4916C890.911 85.6197 890.86 85.7349 890.758 85.8373C890.681 85.9142 890.578 85.9526 890.45 85.9526H882.192C882.064 85.9526 882 86.0166 882 86.1446V93.4046C882 93.5326 882.064 93.5966 882.192 93.5966H887.07C887.198 93.5966 887.301 93.6479 887.377 93.7503C887.48 93.8271 887.531 93.9295 887.531 94.0576V97.0153C887.531 97.1434 887.48 97.2586 887.377 97.3611C887.301 97.4379 887.198 97.4763 887.07 97.4763H882.192C882.064 97.4763 882 97.5403 882 97.6684V108.539C882 108.667 881.949 108.782 881.846 108.885C881.769 108.962 881.667 109 881.539 109H878.005C877.877 109 877.762 108.962 877.659 108.885C877.582 108.782 877.544 108.667 877.544 108.539V82.5723C877.544 82.4442 877.582 82.3418 877.659 82.265C877.762 82.1626 877.877 82.1113 878.005 82.1113H890.45C890.578 82.1113 890.681 82.1626 890.758 82.265C890.86 82.3418 890.911 82.4442 890.911 82.5723V85.4916ZM905.529 85.4916C905.529 85.6197 905.478 85.7349 905.375 85.8373C905.298 85.9142 905.196 85.9526 905.068 85.9526H896.809C896.681 85.9526 896.617 86.0166 896.617 86.1446V93.4046C896.617 93.5326 896.681 93.5966 896.809 93.5966H901.688C901.816 93.5966 901.918 93.6479 901.995 93.7503C902.097 93.8271 902.149 93.9295 902.149 94.0576V97.0153C902.149 97.1434 902.097 97.2586 901.995 97.3611C901.918 97.4379 901.816 97.4763 901.688 97.4763H896.809C896.681 97.4763 896.617 97.5403 896.617 97.6684V108.539C896.617 108.667 896.566 108.782 896.463 108.885C896.387 108.962 896.284 109 896.156 109H892.622C892.494 109 892.379 108.962 892.277 108.885C892.2 108.782 892.161 108.667 892.161 108.539V82.5723C892.161 82.4442 892.2 82.3418 892.277 82.265C892.379 82.1626 892.494 82.1113 892.622 82.1113H905.068C905.196 82.1113 905.298 82.1626 905.375 82.265C905.478 82.3418 905.529 82.4442 905.529 82.5723V85.4916Z" fill="#282924"/>
</svg>
