<svg width="763" height="763" viewBox="0 0 763 763" fill="none" xmlns="http://www.w3.org/2000/svg">
<path d="M288.109 587.088H308.852L318.101 653.28H318.365L327.614 587.088H348.356V679.572H334.616V609.548H334.352L323.782 679.572H311.627L301.057 609.548H300.793V679.572H288.109V587.088ZM359.202 587.088H373.735V679.572H359.202V587.088ZM384.619 587.088H402.852L416.989 642.446H417.253V587.088H430.201V679.572H415.271L397.832 612.059H397.567V679.572H384.619V587.088ZM441.003 587.088H455.536V679.572H441.003V587.088ZM485.314 680.894C478.268 680.894 472.939 678.912 469.327 674.948C465.716 670.896 463.91 665.127 463.91 657.64V652.355H477.651V658.697C477.651 664.687 480.161 667.681 485.182 667.681C487.648 667.681 489.498 666.977 490.731 665.568C492.052 664.07 492.713 661.692 492.713 658.433C492.713 654.558 491.832 651.166 490.07 648.26C488.309 645.265 485.05 641.698 480.293 637.558C474.304 632.273 470.12 627.517 467.742 623.289C465.364 618.973 464.175 614.129 464.175 608.756C464.175 601.445 466.024 595.808 469.724 591.844C473.423 587.793 478.796 585.767 485.843 585.767C492.801 585.767 498.042 587.793 501.565 591.844C505.176 595.808 506.982 601.533 506.982 609.02V612.851H493.241V608.095C493.241 604.924 492.625 602.634 491.392 601.225C490.158 599.727 488.353 598.979 485.975 598.979C481.13 598.979 478.708 601.929 478.708 607.831C478.708 611.178 479.589 614.305 481.35 617.211C483.2 620.118 486.503 623.641 491.259 627.781C497.337 633.066 501.521 637.866 503.811 642.182C506.101 646.498 507.246 651.563 507.246 657.376C507.246 664.951 505.352 670.764 501.565 674.816C497.865 678.868 492.449 680.894 485.314 680.894ZM526.941 600.3H511.747V587.088H556.668V600.3H541.475V679.572H526.941V600.3ZM563.705 587.088H585.241C592.727 587.088 598.188 588.849 601.624 592.373C605.059 595.808 606.776 601.137 606.776 608.359V614.04C606.776 623.641 603.605 629.719 597.264 632.273V632.537C600.787 633.594 603.253 635.752 604.662 639.011C606.16 642.27 606.908 646.63 606.908 652.091V668.342C606.908 670.985 606.996 673.142 607.173 674.816C607.349 676.401 607.789 677.987 608.494 679.572H593.696C593.168 678.075 592.816 676.666 592.639 675.344C592.463 674.023 592.375 671.645 592.375 668.21V651.299C592.375 647.071 591.67 644.12 590.261 642.446C588.94 640.773 586.606 639.936 583.259 639.936H578.238V679.572H563.705V587.088ZM583.523 626.724C586.43 626.724 588.588 625.975 589.997 624.478C591.494 622.981 592.243 620.47 592.243 616.947V609.813C592.243 606.466 591.626 604.043 590.393 602.546C589.248 601.049 587.399 600.3 584.844 600.3H578.238V626.724H583.523ZM616.992 587.088H631.525V679.572H616.992V587.088ZM642.41 587.088H682.046V600.3H656.943V624.742H676.893V637.954H656.943V666.36H682.046V679.572H642.41V587.088ZM709.558 680.894C702.511 680.894 697.183 678.912 693.571 674.948C689.96 670.896 688.154 665.127 688.154 657.64V652.355H701.895V658.697C701.895 664.687 704.405 667.681 709.426 667.681C711.892 667.681 713.742 666.977 714.975 665.568C716.296 664.07 716.957 661.692 716.957 658.433C716.957 654.558 716.076 651.166 714.314 648.26C712.553 645.265 709.294 641.698 704.537 637.558C698.548 632.273 694.364 627.517 691.986 623.289C689.608 618.973 688.419 614.129 688.419 608.756C688.419 601.445 690.268 595.808 693.968 591.844C697.667 587.793 703.04 585.767 710.086 585.767C717.045 585.767 722.286 587.793 725.809 591.844C729.42 595.808 731.226 601.533 731.226 609.02V612.851H717.485V608.095C717.485 604.924 716.869 602.634 715.635 601.225C714.402 599.727 712.597 598.979 710.219 598.979C705.374 598.979 702.952 601.929 702.952 607.831C702.952 611.178 703.833 614.305 705.594 617.211C707.444 620.118 710.747 623.641 715.503 627.781C721.581 633.066 725.765 637.866 728.055 642.182C730.345 646.498 731.49 651.563 731.49 657.376C731.49 664.951 729.596 670.764 725.809 674.816C722.109 678.868 716.692 680.894 709.558 680.894Z" fill="#ED1C24"/>
<path d="M288.314 363.469H302.847V442.742H326.761V455.954H288.314V363.469ZM354.87 457.275C347.823 457.275 342.45 455.293 338.751 451.329C335.051 447.278 333.202 441.508 333.202 434.022V363.469H347.735V435.079C347.735 438.249 348.352 440.54 349.585 441.949C350.906 443.358 352.756 444.063 355.134 444.063C357.512 444.063 359.318 443.358 360.551 441.949C361.872 440.54 362.533 438.249 362.533 435.079V363.469H376.537V434.022C376.537 441.508 374.688 447.278 370.988 451.329C367.289 455.293 361.916 457.275 354.87 457.275ZM398.251 376.681H383.057V363.469H427.978V376.681H412.784V455.954H398.251V376.681ZM435.014 363.469H449.547V401.124H465.138V363.469H479.671V455.954H465.138V414.336H449.547V455.954H435.014V363.469ZM490.495 363.469H530.131V376.681H505.028V401.124H524.978V414.336H505.028V442.742H530.131V455.954H490.495V363.469ZM538.491 363.469H560.027C567.514 363.469 572.975 365.231 576.41 368.754C579.845 372.189 581.563 377.518 581.563 384.741V390.422C581.563 400.023 578.392 406.1 572.05 408.654V408.919C575.573 409.976 578.04 412.134 579.449 415.393C580.946 418.652 581.695 423.012 581.695 428.473V444.723C581.695 447.366 581.783 449.524 581.959 451.197C582.135 452.783 582.576 454.368 583.28 455.954H568.483C567.954 454.456 567.602 453.047 567.426 451.726C567.25 450.405 567.162 448.026 567.162 444.591V427.68C567.162 423.452 566.457 420.501 565.048 418.828C563.727 417.154 561.392 416.317 558.045 416.317H553.025V455.954H538.491V363.469ZM558.31 403.105C561.216 403.105 563.374 402.357 564.783 400.859C566.281 399.362 567.03 396.852 567.03 393.328V386.194C567.03 382.847 566.413 380.425 565.18 378.927C564.035 377.43 562.185 376.681 559.631 376.681H553.025V403.105H558.31ZM603.009 363.469H622.695L637.756 455.954H623.223L620.581 437.589V437.853H604.066L601.423 455.954H587.947L603.009 363.469ZM618.863 425.302L612.389 379.588H612.125L605.783 425.302H618.863ZM644.807 363.469H663.04L677.177 418.828H677.441V363.469H690.389V455.954H675.459L658.019 388.44H657.755V455.954H644.807V363.469Z" fill="#ED1C24"/>
<path d="M288.314 473.572H302.847V566.056H288.314V473.572ZM313.731 473.572H331.964L346.101 528.93H346.365V473.572H359.313V566.056H344.383L326.944 498.542H326.679V566.056H313.731V473.572ZM370.115 473.572H392.311C399.534 473.572 404.951 475.509 408.562 479.385C412.173 483.26 413.979 488.942 413.979 496.428V543.199C413.979 550.686 412.173 556.367 408.562 560.243C404.951 564.118 399.534 566.056 392.311 566.056H370.115V473.572ZM392.047 552.844C394.425 552.844 396.231 552.139 397.464 550.73C398.785 549.321 399.446 547.031 399.446 543.86V495.768C399.446 492.597 398.785 490.307 397.464 488.898C396.231 487.488 394.425 486.784 392.047 486.784H384.648V552.844H392.047ZM423.789 473.572H438.322V566.056H423.789V473.572ZM460.437 473.572H480.123L495.185 566.056H480.652L478.009 547.691V547.955H461.494L458.852 566.056H445.375L460.437 473.572ZM476.292 535.404L469.818 489.69H469.553L463.212 535.404H476.292ZM502.236 473.572H520.468L534.605 528.93H534.87V473.572H547.817V566.056H532.888L515.448 498.542H515.184V566.056H502.236V473.572Z" fill="#ED1C24"/>
<path d="M101.53 257.068L49.8857 315.379H21.1943L70.6865 257.068L21.1943 198.756H49.8857L101.53 257.068ZM187.604 257.068L135.959 315.379H60.6445L113.724 257.068L60.6445 198.756H135.959L187.604 257.068ZM60.6445 256.348L27.6494 294.503H9L41.2783 256.348L10.4346 218.914H27.6494L60.6445 256.348Z" fill="#ED1C24"/>
<path d="M101.53 257.068L102.85 258.237L103.886 257.068L102.85 255.899L101.53 257.068ZM49.8857 315.379V317.143H50.6795L51.2057 316.549L49.8857 315.379ZM21.1943 315.379L19.85 314.238L17.3849 317.143H21.1943V315.379ZM70.6865 257.068L72.0309 258.209L72.9993 257.068L72.0309 255.927L70.6865 257.068ZM21.1943 198.756V196.993H17.3849L19.85 199.897L21.1943 198.756ZM49.8857 198.756L51.2057 197.587L50.6795 196.993H49.8857V198.756ZM187.604 257.068L188.924 258.237L189.959 257.068L188.924 255.899L187.604 257.068ZM135.959 315.379V317.143H136.753L137.279 316.549L135.959 315.379ZM60.6445 315.379L59.3406 314.193L56.6551 317.143H60.6445V315.379ZM113.724 257.068L115.028 258.255L116.108 257.068L115.028 255.881L113.724 257.068ZM60.6445 198.756V196.993H56.6551L59.3406 199.943L60.6445 198.756ZM135.959 198.756L137.279 197.587L136.753 196.993H135.959V198.756ZM60.6445 256.348L61.9783 257.502L62.9853 256.337L61.9673 255.182L60.6445 256.348ZM27.6494 294.503V296.266H28.4557L28.9832 295.656L27.6494 294.503ZM9 294.503L7.65382 293.364L5.19862 296.266H9V294.503ZM41.2783 256.348L42.6245 257.487L43.5753 256.363L42.6392 255.227L41.2783 256.348ZM10.4346 218.914V217.15H6.69701L9.07371 220.035L10.4346 218.914ZM27.6494 218.914L28.9722 217.748L28.4457 217.15H27.6494V218.914ZM101.53 257.068L100.21 255.899L48.5657 314.21L49.8857 315.379L51.2057 316.549L102.85 258.237L101.53 257.068ZM49.8857 315.379V313.616H21.1943V315.379V317.143H49.8857V315.379ZM21.1943 315.379L22.5387 316.521L72.0309 258.209L70.6865 257.068L69.3422 255.927L19.85 314.238L21.1943 315.379ZM70.6865 257.068L72.0309 255.927L22.5387 197.615L21.1943 198.756L19.85 199.897L69.3422 258.209L70.6865 257.068ZM21.1943 198.756V200.52H49.8857V198.756V196.993H21.1943V198.756ZM49.8857 198.756L48.5657 199.926L100.21 258.237L101.53 257.068L102.85 255.899L51.2057 197.587L49.8857 198.756ZM187.604 257.068L186.284 255.899L134.639 314.21L135.959 315.379L137.279 316.549L188.924 258.237L187.604 257.068ZM135.959 315.379V313.616H60.6445V315.379V317.143H135.959V315.379ZM60.6445 315.379L61.9485 316.566L115.028 258.255L113.724 257.068L112.42 255.881L59.3406 314.193L60.6445 315.379ZM113.724 257.068L115.028 255.881L61.9485 197.569L60.6445 198.756L59.3406 199.943L112.42 258.255L113.724 257.068ZM60.6445 198.756V200.52H135.959V198.756V196.993H60.6445V198.756ZM135.959 198.756L134.639 199.926L186.284 258.237L187.604 257.068L188.924 255.899L137.279 197.587L135.959 198.756ZM60.6445 256.348L59.3108 255.195L26.3157 293.349L27.6494 294.503L28.9832 295.656L61.9783 257.502L60.6445 256.348ZM27.6494 294.503V292.739H9V294.503V296.266H27.6494V294.503ZM9 294.503L10.3462 295.641L42.6245 257.487L41.2783 256.348L39.9321 255.209L7.65382 293.364L9 294.503ZM41.2783 256.348L42.6392 255.227L11.7954 217.792L10.4346 218.914L9.07371 220.035L39.9175 257.47L41.2783 256.348ZM10.4346 218.914V220.677H27.6494V218.914V217.15H10.4346V218.914ZM27.6494 218.914L26.3266 220.08L59.3217 257.514L60.6445 256.348L61.9673 255.182L28.9722 217.748L27.6494 218.914Z" fill="black"/>
<path d="M286.311 255.645L337.551 315.38H366.017L316.912 255.645L366.017 195.912H337.551L286.311 255.645ZM200.912 255.645L252.151 315.38H326.876L274.213 255.645L326.876 195.912H252.151L200.912 255.645ZM326.876 254.908L359.612 293.993H378.115L346.091 254.908L376.691 216.561H359.612L326.876 254.908Z" fill="#FFDE16"/>
<path d="M286.311 255.645L284.972 256.794L283.987 255.645L284.972 254.497L286.311 255.645ZM337.551 315.38V317.143H336.74L336.212 316.528L337.551 315.38ZM366.017 315.38L367.379 314.26L369.749 317.143H366.017V315.38ZM316.912 255.645L315.55 256.765L314.629 255.645L315.55 254.526L316.912 255.645ZM366.017 195.912V194.149H369.749L367.379 197.032L366.017 195.912ZM337.551 195.912L336.212 194.764L336.74 194.149H337.551V195.912ZM200.912 255.645L199.574 256.794L198.589 255.645L199.574 254.497L200.912 255.645ZM252.151 315.38V317.143H251.341L250.813 316.528L252.151 315.38ZM326.876 315.38L328.199 314.214L330.781 317.143H326.876V315.38ZM274.213 255.645L272.89 256.812L271.862 255.645L272.89 254.479L274.213 255.645ZM326.876 195.912V194.149H330.781L328.199 197.078L326.876 195.912ZM252.151 195.912L250.813 194.764L251.341 194.149H252.151V195.912ZM326.876 254.908L325.524 256.04L324.567 254.897L325.535 253.763L326.876 254.908ZM359.612 293.993V295.756H358.789L358.26 295.125L359.612 293.993ZM378.115 293.993L379.479 292.876L381.84 295.756H378.115V293.993ZM346.091 254.908L344.727 256.026L343.823 254.923L344.713 253.808L346.091 254.908ZM376.691 216.561V214.797H380.354L378.07 217.66L376.691 216.561ZM359.612 216.561L358.271 215.416L358.799 214.797H359.612V216.561ZM286.311 255.645L287.649 254.497L338.889 314.232L337.551 315.38L336.212 316.528L284.972 256.794L286.311 255.645ZM337.551 315.38V313.617H366.017V315.38V317.143H337.551V315.38ZM366.017 315.38L364.654 316.5L315.55 256.765L316.912 255.645L318.274 254.526L367.379 314.26L366.017 315.38ZM316.912 255.645L315.55 254.526L364.654 194.792L366.017 195.912L367.379 197.032L318.274 256.765L316.912 255.645ZM366.017 195.912V197.675H337.551V195.912V194.149H366.017V195.912ZM337.551 195.912L338.889 197.06L287.649 256.794L286.311 255.645L284.972 254.497L336.212 194.764L337.551 195.912ZM200.912 255.645L202.25 254.497L253.49 314.232L252.151 315.38L250.813 316.528L199.574 256.794L200.912 255.645ZM252.151 315.38V313.617H326.876V315.38V317.143H252.151V315.38ZM326.876 315.38L325.553 316.546L272.89 256.812L274.213 255.645L275.536 254.479L328.199 314.214L326.876 315.38ZM274.213 255.645L272.89 254.479L325.553 194.746L326.876 195.912L328.199 197.078L275.536 256.812L274.213 255.645ZM326.876 195.912V197.675H252.151V195.912V194.149H326.876V195.912ZM252.151 195.912L253.49 197.06L202.25 256.794L200.912 255.645L199.574 254.497L250.813 194.764L252.151 195.912ZM326.876 254.908L328.228 253.776L360.964 292.861L359.612 293.993L358.26 295.125L325.524 256.04L326.876 254.908ZM359.612 293.993V292.23H378.115V293.993V295.756H359.612V293.993ZM378.115 293.993L376.751 295.111L344.727 256.026L346.091 254.908L347.455 253.791L379.479 292.876L378.115 293.993ZM346.091 254.908L344.713 253.808L375.313 215.461L376.691 216.561L378.07 217.66L347.469 256.008L346.091 254.908ZM376.691 216.561V218.324H359.612V216.561V214.797H376.691V216.561ZM359.612 216.561L360.953 217.705L328.217 256.053L326.876 254.908L325.535 253.763L358.271 215.416L359.612 216.561Z" fill="black"/>
<path d="M193.207 153.365L244.337 94.5566L244.337 61.8857L193.207 118.243L142.078 61.8857L142.078 94.5566L193.207 153.365ZM193.207 251.379L244.337 192.57L244.337 106.809L193.207 167.25L142.078 106.809L142.078 192.57L193.207 251.379ZM192.576 106.809L226.032 69.2363L226.032 48L192.576 84.7549L159.752 49.6338L159.752 69.2363L192.576 106.809Z" fill="white"/>
<path d="M193.207 153.365L194.538 154.522L193.207 156.053L191.877 154.522L193.207 153.365ZM244.337 94.5566L246.101 94.5566L246.101 95.216L245.668 95.7136L244.337 94.5566ZM244.337 61.8857L243.031 60.701L246.101 57.3179L246.101 61.8857L244.337 61.8857ZM193.207 118.243L194.513 119.428L193.207 120.867L191.901 119.428L193.207 118.243ZM142.078 61.8857L140.314 61.8857L140.314 57.3179L143.383 60.7009L142.078 61.8857ZM142.078 94.5566L140.747 95.7136L140.314 95.216L140.314 94.5566L142.078 94.5566ZM193.207 251.379L194.538 252.536L193.207 254.066L191.877 252.536L193.207 251.379ZM244.337 192.57L246.101 192.57L246.101 193.23L245.668 193.727L244.337 192.57ZM244.337 106.809L242.991 105.67L246.101 101.994L246.101 106.809L244.337 106.809ZM193.207 167.25L194.554 168.389L193.207 169.98L191.861 168.389L193.207 167.25ZM142.078 106.809L140.314 106.809L140.314 101.994L143.424 105.67L142.078 106.809ZM142.078 192.57L140.747 193.727L140.314 193.23L140.314 192.57L142.078 192.57ZM192.576 106.809L193.892 107.981L192.563 109.474L191.248 107.969L192.576 106.809ZM226.032 69.2363L227.795 69.2363L227.795 69.9076L227.348 70.4089L226.032 69.2363ZM226.032 48L224.728 46.8131L227.795 43.4434L227.795 48L226.032 48ZM192.576 84.7549L193.88 85.9418L192.593 87.3556L191.287 85.9589L192.576 84.7549ZM159.752 49.6338L157.989 49.6338L157.989 45.1646L161.041 48.4298L159.752 49.6338ZM159.752 69.2363L158.424 70.3964L157.989 69.8981L157.989 69.2363L159.752 69.2363ZM193.207 153.365L191.877 152.208L243.007 93.3997L244.337 94.5566L245.668 95.7136L194.538 154.522L193.207 153.365ZM244.337 94.5566L242.574 94.5566L242.574 61.8857L244.337 61.8857L246.101 61.8857L246.101 94.5566L244.337 94.5566ZM244.337 61.8857L245.643 63.0705L194.513 119.428L193.207 118.243L191.901 117.058L243.031 60.701L244.337 61.8857ZM193.207 118.243L191.901 119.428L140.772 63.0705L142.078 61.8857L143.383 60.7009L194.513 117.058L193.207 118.243ZM142.078 61.8857L143.841 61.8857L143.841 94.5566L142.078 94.5566L140.314 94.5566L140.314 61.8857L142.078 61.8857ZM142.078 94.5566L143.408 93.3997L194.538 152.208L193.207 153.365L191.877 154.522L140.747 95.7136L142.078 94.5566ZM193.207 251.379L191.877 250.222L243.007 191.413L244.337 192.57L245.668 193.727L194.538 252.536L193.207 251.379ZM244.337 192.57L242.574 192.57L242.574 106.809L244.337 106.809L246.101 106.809L246.101 192.57L244.337 192.57ZM244.337 106.809L245.683 107.947L194.554 168.389L193.207 167.25L191.861 166.111L242.991 105.67L244.337 106.809ZM193.207 167.25L191.861 168.389L140.731 107.947L142.078 106.809L143.424 105.67L194.554 166.111L193.207 167.25ZM142.078 106.809L143.841 106.809L143.841 192.57L142.078 192.57L140.314 192.57L140.314 106.809L142.078 106.809ZM142.078 192.57L143.408 191.413L194.538 250.222L193.207 251.379L191.877 252.536L140.747 193.727L142.078 192.57ZM192.576 106.809L191.259 105.636L224.715 68.0637L226.032 69.2363L227.348 70.4089L193.892 107.981L192.576 106.809ZM226.032 69.2363L224.268 69.2363L224.268 48L226.032 48L227.795 48L227.795 69.2363L226.032 69.2363ZM226.032 48L227.336 49.1869L193.88 85.9418L192.576 84.7549L191.272 83.5679L224.728 46.8131L226.032 48ZM192.576 84.7549L191.287 85.9589L158.464 50.8378L159.752 49.6338L161.041 48.4298L193.864 83.5509L192.576 84.7549ZM159.752 49.6338L161.516 49.6338L161.516 69.2363L159.752 69.2363L157.989 69.2363L157.989 49.6338L159.752 49.6338ZM159.752 69.2363L161.08 68.0762L193.903 105.649L192.576 106.809L191.248 107.969L158.424 70.3964L159.752 69.2363Z" fill="black"/>
<path d="M193.207 406.402L244.337 463.977L244.337 495.963L193.207 440.787L142.078 495.963L142.078 463.977L193.207 406.402ZM193.207 364.404L244.337 421.978L244.337 453.965L193.207 398.789L142.078 453.965L142.078 421.978L193.207 364.404ZM193.207 268.446L244.337 326.02L244.337 409.983L193.207 350.809L142.078 409.983L142.078 326.02L193.207 268.446ZM192.576 454.759L226.032 491.542L226.032 512.333L192.576 476.348L159.752 510.733L159.752 491.542L192.576 454.759Z" fill="black"/>
<path d="M193.207 406.402L194.526 405.231L193.207 403.747L191.889 405.231L193.207 406.402ZM244.337 463.977L246.101 463.977L246.101 463.307L245.656 462.806L244.337 463.977ZM244.337 495.963L243.044 497.161L246.101 500.46L246.101 495.963L244.337 495.963ZM193.207 440.787L194.501 439.588L193.207 438.193L191.914 439.588L193.207 440.787ZM142.078 495.963L140.314 495.963L140.314 500.46L143.371 497.161L142.078 495.963ZM142.078 463.977L140.759 462.806L140.314 463.307L140.314 463.977L142.078 463.977ZM193.207 364.404L194.526 363.233L193.207 361.749L191.889 363.233L193.207 364.404ZM244.337 421.978L246.101 421.978L246.101 421.308L245.656 420.807L244.337 421.978ZM244.337 453.965L243.044 455.163L246.101 458.462L246.101 453.965L244.337 453.965ZM193.207 398.789L194.501 397.59L193.207 396.195L191.914 397.59L193.207 398.789ZM142.078 453.965L140.314 453.965L140.314 458.462L143.371 455.163L142.078 453.965ZM142.078 421.978L140.759 420.807L140.314 421.308L140.314 421.978L142.078 421.978ZM193.207 268.446L194.526 267.275L193.207 265.791L191.889 267.275L193.207 268.446ZM244.337 326.02L246.101 326.02L246.101 325.35L245.656 324.849L244.337 326.02ZM244.337 409.983L243.003 411.136L246.101 414.721L246.101 409.983L244.337 409.983ZM193.207 350.809L194.542 349.657L193.207 348.112L191.873 349.657L193.207 350.809ZM142.078 409.983L140.314 409.983L140.314 414.721L143.412 411.136L142.078 409.983ZM142.078 326.02L140.759 324.849L140.314 325.35L140.314 326.02L142.078 326.02ZM192.576 454.759L193.88 453.572L192.563 452.124L191.26 453.585L192.576 454.759ZM226.032 491.542L227.795 491.542L227.795 490.86L227.336 490.355L226.032 491.542ZM226.032 512.333L224.74 513.533L227.795 516.819L227.795 512.333L226.032 512.333ZM192.576 476.348L193.867 475.148L192.592 473.777L191.3 475.131L192.576 476.348ZM159.752 510.733L157.989 510.733L157.989 515.134L161.028 511.951L159.752 510.733ZM159.752 491.542L158.437 490.368L157.989 490.869L157.989 491.542L159.752 491.542ZM193.207 406.402L191.889 407.573L243.019 465.148L244.337 463.977L245.656 462.806L194.526 405.231L193.207 406.402ZM244.337 463.977L242.574 463.977L242.574 495.963L244.337 495.963L246.101 495.963L246.101 463.977L244.337 463.977ZM244.337 495.963L245.631 494.764L194.501 439.588L193.207 440.787L191.914 441.985L243.044 497.161L244.337 495.963ZM193.207 440.787L191.914 439.588L140.784 494.764L142.078 495.963L143.371 497.161L194.501 441.985L193.207 440.787ZM142.078 495.963L143.841 495.963L143.841 463.977L142.078 463.977L140.314 463.977L140.314 495.963L142.078 495.963ZM142.078 463.977L143.396 465.148L194.526 407.573L193.207 406.402L191.889 405.231L140.759 462.806L142.078 463.977ZM193.207 364.404L191.889 365.575L243.019 423.149L244.337 421.978L245.656 420.807L194.526 363.233L193.207 364.404ZM244.337 421.978L242.574 421.978L242.574 453.965L244.337 453.965L246.101 453.965L246.101 421.978L244.337 421.978ZM244.337 453.965L245.631 452.766L194.501 397.59L193.207 398.789L191.914 399.987L243.044 455.163L244.337 453.965ZM193.207 398.789L191.914 397.59L140.784 452.766L142.078 453.965L143.371 455.163L194.501 399.987L193.207 398.789ZM142.078 453.965L143.841 453.965L143.841 421.978L142.078 421.978L140.314 421.978L140.314 453.965L142.078 453.965ZM142.078 421.978L143.396 423.149L194.526 365.575L193.207 364.404L191.889 363.233L140.759 420.807L142.078 421.978ZM193.207 268.446L191.889 269.617L243.019 327.191L244.337 326.02L245.656 324.849L194.526 267.275L193.207 268.446ZM244.337 326.02L242.574 326.02L242.574 409.983L244.337 409.983L246.101 409.983L246.101 326.02L244.337 326.02ZM244.337 409.983L245.671 408.83L194.542 349.657L193.207 350.809L191.873 351.962L243.003 411.136L244.337 409.983ZM193.207 350.809L191.873 349.657L140.743 408.83L142.078 409.983L143.412 411.136L194.542 351.962L193.207 350.809ZM142.078 409.983L143.841 409.983L143.841 326.02L142.078 326.02L140.314 326.02L140.314 409.983L142.078 409.983ZM142.078 326.02L143.396 327.191L194.526 269.617L193.207 268.446L191.889 267.275L140.759 324.849L142.078 326.02ZM192.576 454.759L191.271 455.945L224.727 492.728L226.032 491.542L227.336 490.355L193.88 453.572L192.576 454.759ZM226.032 491.542L224.268 491.542L224.268 512.333L226.032 512.333L227.795 512.333L227.795 491.542L226.032 491.542ZM226.032 512.333L227.323 511.132L193.867 475.148L192.576 476.348L191.284 477.549L224.74 513.533L226.032 512.333ZM192.576 476.348L191.3 475.131L158.477 509.516L159.752 510.733L161.028 511.951L193.851 477.566L192.576 476.348ZM159.752 510.733L161.516 510.733L161.516 491.542L159.752 491.542L157.989 491.542L157.989 510.733L159.752 510.733ZM159.752 491.542L161.068 492.716L193.891 455.933L192.576 454.759L191.26 453.585L158.437 490.368L159.752 491.542Z" fill="white"/>
</svg>
