<svg width="689" height="828" viewBox="0 0 689 828" fill="none" xmlns="http://www.w3.org/2000/svg">
<g clip-path="url(#clip0_1606_462)">
<path d="M266.714 193.85L222.78 243.455H198.373L240.476 193.85L198.373 144.246H222.78L266.714 193.85ZM339.936 193.85L296.002 243.455H231.934L277.087 193.85L231.934 144.246H296.002L339.936 193.85ZM231.934 193.238L203.865 225.695H188L215.458 193.238L189.221 161.393H203.865L231.934 193.238Z" fill="#ED1C24"/>
<path d="M266.714 193.85L267.837 194.845L268.718 193.85L267.837 192.856L266.714 193.85ZM222.78 243.455V244.955H223.455L223.903 244.449L222.78 243.455ZM198.373 243.455L197.229 242.484L195.132 244.955H198.373V243.455ZM240.476 193.85L241.619 194.821L242.443 193.85L241.619 192.88L240.476 193.85ZM198.373 144.246V142.746H195.132L197.229 145.217L198.373 144.246ZM222.78 144.246L223.903 143.251L223.455 142.746H222.78V144.246ZM339.936 193.85L341.058 194.845L341.939 193.85L341.058 192.856L339.936 193.85ZM296.002 243.455V244.955H296.677L297.125 244.449L296.002 243.455ZM231.934 243.455L230.824 242.445L228.54 244.955H231.934V243.455ZM277.087 193.85L278.196 194.86L279.115 193.85L278.196 192.841L277.087 193.85ZM231.934 144.246V142.746H228.54L230.824 145.256L231.934 144.246ZM296.002 144.246L297.125 143.251L296.677 142.746H296.002V144.246ZM231.934 193.238L233.068 194.219L233.925 193.229L233.059 192.246L231.934 193.238ZM203.865 225.695V227.195H204.551L205 226.676L203.865 225.695ZM188 225.695L186.855 224.726L184.766 227.195H188V225.695ZM215.458 193.238L216.603 194.207L217.412 193.251L216.616 192.284L215.458 193.238ZM189.221 161.393V159.893H186.041L188.063 162.347L189.221 161.393ZM203.865 161.393L204.991 160.402L204.543 159.893H203.865V161.393ZM266.714 193.85L265.591 192.856L221.657 242.46L222.78 243.455L223.903 244.449L267.837 194.845L266.714 193.85ZM222.78 243.455V241.955H198.373V243.455V244.955H222.78V243.455ZM198.373 243.455L199.517 244.426L241.619 194.821L240.476 193.85L239.332 192.88L197.229 242.484L198.373 243.455ZM240.476 193.85L241.619 192.88L199.517 143.275L198.373 144.246L197.229 145.217L239.332 194.821L240.476 193.85ZM198.373 144.246V145.746H222.78V144.246V142.746H198.373V144.246ZM222.78 144.246L221.657 145.241L265.591 194.845L266.714 193.85L267.837 192.856L223.903 143.251L222.78 144.246ZM339.936 193.85L338.813 192.856L294.879 242.46L296.002 243.455L297.125 244.449L341.058 194.845L339.936 193.85ZM296.002 243.455V241.955H231.934V243.455V244.955H296.002V243.455ZM231.934 243.455L233.043 244.465L278.196 194.86L277.087 193.85L275.978 192.841L230.824 242.445L231.934 243.455ZM277.087 193.85L278.196 192.841L233.043 143.236L231.934 144.246L230.824 145.256L275.978 194.86L277.087 193.85ZM231.934 144.246V145.746H296.002V144.246V142.746H231.934V144.246ZM296.002 144.246L294.879 145.241L338.813 194.845L339.936 193.85L341.058 192.856L297.125 143.251L296.002 144.246ZM231.934 193.238L230.799 192.257L202.731 224.714L203.865 225.695L205 226.676L233.068 194.219L231.934 193.238ZM203.865 225.695V224.195H188V225.695V227.195H203.865V225.695ZM188 225.695L189.145 226.664L216.603 194.207L215.458 193.238L214.313 192.269L186.855 224.726L188 225.695ZM215.458 193.238L216.616 192.284L190.378 160.44L189.221 161.393L188.063 162.347L214.3 194.192L215.458 193.238ZM189.221 161.393V162.893H203.865V161.393V159.893H189.221V161.393ZM203.865 161.393L202.74 162.385L230.808 194.23L231.934 193.238L233.059 192.246L204.991 160.402L203.865 161.393Z" fill="black"/>
<path d="M423.904 192.641L467.492 243.455H491.708L449.936 192.641L491.708 141.826H467.492L423.904 192.641ZM351.256 192.641L394.845 243.455H458.411L413.612 192.641L458.411 141.826H394.845L351.256 192.641ZM458.411 192.014L486.26 225.263H502L474.757 192.014L500.789 159.392H486.26L458.411 192.014Z" fill="#FFDE16"/>
<path d="M423.904 192.641L422.766 193.617L421.928 192.641L422.766 191.664L423.904 192.641ZM467.492 243.455V244.955H466.803L466.354 244.432L467.492 243.455ZM491.708 243.455L492.867 242.503L494.883 244.955H491.708V243.455ZM449.936 192.641L448.777 193.593L447.994 192.641L448.777 191.688L449.936 192.641ZM491.708 141.826V140.326H494.883L492.867 142.779L491.708 141.826ZM467.492 141.826L466.354 140.85L466.803 140.326H467.492V141.826ZM351.256 192.641L350.117 193.617L349.28 192.641L350.117 191.664L351.256 192.641ZM394.845 243.455V244.955H394.155L393.706 244.432L394.845 243.455ZM458.411 243.455L459.536 242.463L461.733 244.955H458.411V243.455ZM413.612 192.641L412.487 193.633L411.613 192.641L412.487 191.649L413.612 192.641ZM458.411 141.826V140.326H461.733L459.536 142.818L458.411 141.826ZM394.845 141.826L393.706 140.85L394.155 140.326H394.845V141.826ZM458.411 192.014L457.261 192.977L456.447 192.005L457.27 191.04L458.411 192.014ZM486.26 225.263V226.763H485.559L485.11 226.226L486.26 225.263ZM502 225.263L503.16 224.312L505.168 226.763H502V225.263ZM474.757 192.014L473.597 192.964L472.828 192.026L473.584 191.078L474.757 192.014ZM500.789 159.392V157.892H503.905L501.962 160.327L500.789 159.392ZM486.26 159.392L485.119 158.418L485.568 157.892H486.26V159.392ZM423.904 192.641L425.043 191.664L468.631 242.479L467.492 243.455L466.354 244.432L422.766 193.617L423.904 192.641ZM467.492 243.455V241.955H491.708V243.455V244.955H467.492V243.455ZM491.708 243.455L490.549 244.408L448.777 193.593L449.936 192.641L451.094 191.688L492.867 242.503L491.708 243.455ZM449.936 192.641L448.777 191.688L490.549 140.874L491.708 141.826L492.867 142.779L451.094 193.593L449.936 192.641ZM491.708 141.826V143.326H467.492V141.826V140.326H491.708V141.826ZM467.492 141.826L468.631 142.803L425.043 193.617L423.904 192.641L422.766 191.664L466.354 140.85L467.492 141.826ZM351.256 192.641L352.394 191.664L395.983 242.479L394.845 243.455L393.706 244.432L350.117 193.617L351.256 192.641ZM394.845 243.455V241.955H458.411V243.455V244.955H394.845V243.455ZM458.411 243.455L457.286 244.447L412.487 193.633L413.612 192.641L414.737 191.649L459.536 242.463L458.411 243.455ZM413.612 192.641L412.487 191.649L457.286 140.834L458.411 141.826L459.536 142.818L414.737 193.633L413.612 192.641ZM458.411 141.826V143.326H394.845V141.826V140.326H458.411V141.826ZM394.845 141.826L395.983 142.803L352.394 193.617L351.256 192.641L350.117 191.664L393.706 140.85L394.845 141.826ZM458.411 192.014L459.561 191.051L487.41 224.3L486.26 225.263L485.11 226.226L457.261 192.977L458.411 192.014ZM486.26 225.263V223.763H502V225.263V226.763H486.26V225.263ZM502 225.263L500.84 226.214L473.597 192.964L474.757 192.014L475.917 191.063L503.16 224.312L502 225.263ZM474.757 192.014L473.584 191.078L499.617 158.456L500.789 159.392L501.962 160.327L475.929 192.949L474.757 192.014ZM500.789 159.392V160.892H486.26V159.392V157.892H500.789V159.392ZM486.26 159.392L487.401 160.366L459.552 192.988L458.411 192.014L457.27 191.04L485.119 158.418L486.26 159.392Z" fill="black"/>
<path d="M344.702 105.632L388.197 55.6055L388.197 27.8125L344.702 75.7549L301.207 27.8125L301.207 55.6055L344.702 105.632ZM344.702 189.011L388.197 138.983L388.197 66.0273L344.702 117.444L301.207 66.0273L301.207 138.983L344.702 189.011ZM344.165 66.0273L372.625 34.0654L372.625 16L344.165 47.2666L316.242 17.3896L316.242 34.0654L344.165 66.0273Z" fill="white"/>
<path d="M344.702 105.632L345.834 106.616L344.702 107.918L343.57 106.616L344.702 105.632ZM388.197 55.6055L389.697 55.6055L389.697 56.1664L389.329 56.5897L388.197 55.6055ZM388.197 27.8125L387.086 26.8046L389.697 23.9267L389.697 27.8125L388.197 27.8125ZM344.702 75.7549L345.813 76.7628L344.702 77.9873L343.591 76.7628L344.702 75.7549ZM301.207 27.8125L299.707 27.8125L299.707 23.9267L302.318 26.8046L301.207 27.8125ZM301.207 55.6055L300.075 56.5897L299.707 56.1664L299.707 55.6055L301.207 55.6055ZM344.702 189.011L345.834 189.995L344.702 191.297L343.57 189.995L344.702 189.011ZM388.197 138.983L389.697 138.983L389.697 139.544L389.329 139.968L388.197 138.983ZM388.197 66.0273L387.052 65.0586L389.697 61.9316L389.697 66.0273L388.197 66.0273ZM344.702 117.444L345.847 118.413L344.702 119.767L343.557 118.413L344.702 117.444ZM301.207 66.0273L299.707 66.0273L299.707 61.9316L302.352 65.0586L301.207 66.0273ZM301.207 138.983L300.075 139.968L299.707 139.544L299.707 138.983L301.207 138.983ZM344.165 66.0273L345.285 67.0249L344.154 68.295L343.035 67.0142L344.165 66.0273ZM372.625 34.0654L374.125 34.0654L374.125 34.6365L373.745 35.0629L372.625 34.0654ZM372.625 16L371.516 14.9903L374.125 12.1237L374.125 16L372.625 16ZM344.165 47.2666L345.274 48.2763L344.179 49.479L343.069 48.2908L344.165 47.2666ZM316.242 17.3896L314.742 17.3896L314.742 13.5879L317.338 16.3654L316.242 17.3896ZM316.242 34.0654L315.112 35.0523L314.742 34.6284L314.742 34.0654L316.242 34.0654ZM344.702 105.632L343.57 104.648L387.065 54.6213L388.197 55.6055L389.329 56.5897L345.834 106.616L344.702 105.632ZM388.197 55.6055L386.697 55.6055L386.697 27.8125L388.197 27.8125L389.697 27.8125L389.697 55.6055L388.197 55.6055ZM388.197 27.8125L389.308 28.8204L345.813 76.7628L344.702 75.7549L343.591 74.747L387.086 26.8046L388.197 27.8125ZM344.702 75.7549L343.591 76.7628L300.096 28.8204L301.207 27.8125L302.318 26.8046L345.813 74.747L344.702 75.7549ZM301.207 27.8125L302.707 27.8125L302.707 55.6055L301.207 55.6055L299.707 55.6055L299.707 27.8125L301.207 27.8125ZM301.207 55.6055L302.339 54.6213L345.834 104.648L344.702 105.632L343.57 106.616L300.075 56.5897L301.207 55.6055ZM344.702 189.011L343.57 188.027L387.065 137.999L388.197 138.983L389.329 139.968L345.834 189.995L344.702 189.011ZM388.197 138.983L386.697 138.983L386.697 66.0273L388.197 66.0273L389.697 66.0273L389.697 138.983L388.197 138.983ZM388.197 66.0273L389.342 66.9961L345.847 118.413L344.702 117.444L343.557 116.476L387.052 65.0586L388.197 66.0273ZM344.702 117.444L343.557 118.413L300.062 66.9961L301.207 66.0273L302.352 65.0586L345.847 116.476L344.702 117.444ZM301.207 66.0273L302.707 66.0273L302.707 138.983L301.207 138.983L299.707 138.983L299.707 66.0273L301.207 66.0273ZM301.207 138.983L302.339 137.999L345.834 188.027L344.702 189.011L343.57 189.995L300.075 139.968L301.207 138.983ZM344.165 66.0273L343.045 65.0298L371.505 33.0679L372.625 34.0654L373.745 35.0629L345.285 67.0249L344.165 66.0273ZM372.625 34.0654L371.125 34.0654L371.125 16L372.625 16L374.125 16L374.125 34.0654L372.625 34.0654ZM372.625 16L373.734 17.0097L345.274 48.2763L344.165 47.2666L343.056 46.2569L371.516 14.9903L372.625 16ZM344.165 47.2666L343.069 48.2908L315.146 18.4139L316.242 17.3896L317.338 16.3654L345.261 46.2424L344.165 47.2666ZM316.242 17.3896L317.742 17.3896L317.742 34.0654L316.242 34.0654L314.742 34.0654L314.742 17.3896L316.242 17.3896ZM316.242 34.0654L317.372 33.0786L345.294 65.0405L344.165 66.0273L343.035 67.0142L315.112 35.0523L316.242 34.0654Z" fill="black"/>
<path d="M344.702 320.887L388.197 369.864L388.197 397.074L344.702 350.138L301.207 397.074L301.207 369.864L344.702 320.887ZM344.702 285.159L388.197 334.137L388.197 361.347L344.702 314.41L301.207 361.347L301.207 334.137L344.702 285.159ZM344.702 203.529L388.197 252.508L388.197 323.934L344.702 273.595L301.207 323.934L301.207 252.508L344.702 203.529ZM344.165 362.022L372.625 393.313L372.625 411L344.165 380.389L316.242 409.64L316.242 393.313L344.165 362.022Z" fill="black"/>
<path d="M344.702 320.887L345.824 319.891L344.702 318.628L343.58 319.891L344.702 320.887ZM388.197 369.864L389.697 369.864L389.697 369.294L389.319 368.868L388.197 369.864ZM388.197 397.074L387.097 398.094L389.697 400.9L389.697 397.074L388.197 397.074ZM344.702 350.138L345.802 349.118L344.702 347.931L343.602 349.118L344.702 350.138ZM301.207 397.074L299.707 397.074L299.707 400.9L302.307 398.094L301.207 397.074ZM301.207 369.864L300.085 368.868L299.707 369.294L299.707 369.864L301.207 369.864ZM344.702 285.159L345.824 284.163L344.702 282.9L343.58 284.163L344.702 285.159ZM388.197 334.137L389.697 334.137L389.697 333.567L389.319 333.141L388.197 334.137ZM388.197 361.347L387.097 362.366L389.697 365.172L389.697 361.347L388.197 361.347ZM344.702 314.41L345.802 313.391L344.702 312.203L343.602 313.391L344.702 314.41ZM301.207 361.347L299.707 361.347L299.707 365.172L302.307 362.366L301.207 361.347ZM301.207 334.137L300.085 333.141L299.707 333.567L299.707 334.137L301.207 334.137ZM344.702 203.529L345.824 202.533L344.702 201.27L343.58 202.533L344.702 203.529ZM388.197 252.508L389.697 252.508L389.697 251.938L389.319 251.512L388.197 252.508ZM388.197 323.934L387.062 324.914L389.697 327.964L389.697 323.934L388.197 323.934ZM344.702 273.595L345.837 272.614L344.702 271.3L343.567 272.614L344.702 273.595ZM301.207 323.934L299.707 323.934L299.707 327.964L302.342 324.914L301.207 323.934ZM301.207 252.508L300.085 251.512L299.707 251.938L299.707 252.508L301.207 252.508ZM344.165 362.022L345.275 361.013L344.154 359.781L343.046 361.024L344.165 362.022ZM372.625 393.313L374.125 393.313L374.125 392.733L373.734 392.304L372.625 393.313ZM372.625 411L371.526 412.021L374.125 414.816L374.125 411L372.625 411ZM344.165 380.389L345.263 379.367L344.179 378.201L343.08 379.353L344.165 380.389ZM316.242 409.64L314.742 409.64L314.742 413.383L317.327 410.675L316.242 409.64ZM316.242 393.313L315.123 392.315L314.742 392.742L314.742 393.313L316.242 393.313ZM344.702 320.887L343.58 321.883L387.076 370.86L388.197 369.864L389.319 368.868L345.824 319.891L344.702 320.887ZM388.197 369.864L386.697 369.864L386.697 397.074L388.197 397.074L389.697 397.074L389.697 369.864L388.197 369.864ZM388.197 397.074L389.297 396.055L345.802 349.118L344.702 350.138L343.602 351.157L387.097 398.094L388.197 397.074ZM344.702 350.138L343.602 349.118L300.107 396.055L301.207 397.074L302.307 398.094L345.802 351.157L344.702 350.138ZM301.207 397.074L302.707 397.074L302.707 369.864L301.207 369.864L299.707 369.864L299.707 397.074L301.207 397.074ZM301.207 369.864L302.328 370.86L345.824 321.883L344.702 320.887L343.58 319.891L300.085 368.868L301.207 369.864ZM344.702 285.159L343.58 286.155L387.076 335.133L388.197 334.137L389.319 333.141L345.824 284.163L344.702 285.159ZM388.197 334.137L386.697 334.137L386.697 361.347L388.197 361.347L389.697 361.347L389.697 334.137L388.197 334.137ZM388.197 361.347L389.297 360.327L345.802 313.391L344.702 314.41L343.602 315.43L387.097 362.366L388.197 361.347ZM344.702 314.41L343.602 313.391L300.107 360.327L301.207 361.347L302.307 362.366L345.802 315.43L344.702 314.41ZM301.207 361.347L302.707 361.347L302.707 334.137L301.207 334.137L299.707 334.137L299.707 361.347L301.207 361.347ZM301.207 334.137L302.328 335.133L345.824 286.155L344.702 285.159L343.58 284.163L300.085 333.141L301.207 334.137ZM344.702 203.529L343.58 204.525L387.076 253.504L388.197 252.508L389.319 251.512L345.824 202.533L344.702 203.529ZM388.197 252.508L386.697 252.508L386.697 323.934L388.197 323.934L389.697 323.934L389.697 252.508L388.197 252.508ZM388.197 323.934L389.332 322.953L345.837 272.614L344.702 273.595L343.567 274.575L387.062 324.914L388.197 323.934ZM344.702 273.595L343.567 272.614L300.072 322.953L301.207 323.934L302.342 324.914L345.837 274.575L344.702 273.595ZM301.207 323.934L302.707 323.934L302.707 252.508L301.207 252.508L299.707 252.508L299.707 323.934L301.207 323.934ZM301.207 252.508L302.328 253.504L345.824 204.525L344.702 203.529L343.58 202.533L300.085 251.512L301.207 252.508ZM344.165 362.022L343.055 363.032L371.515 394.323L372.625 393.313L373.734 392.304L345.275 361.013L344.165 362.022ZM372.625 393.313L371.125 393.313L371.125 411L372.625 411L374.125 411L374.125 393.313L372.625 393.313ZM372.625 411L373.723 409.979L345.263 379.367L344.165 380.389L343.066 381.41L371.526 412.021L372.625 411ZM344.165 380.389L343.08 379.353L315.157 408.604L316.242 409.64L317.327 410.675L345.25 381.424L344.165 380.389ZM316.242 409.64L317.742 409.64L317.742 393.313L316.242 393.313L314.742 393.313L314.742 409.64L316.242 409.64ZM316.242 393.313L317.361 394.312L345.284 363.021L344.165 362.022L343.046 361.024L315.123 392.315L316.242 393.313Z" fill="white"/>
<path d="M212.085 568.995H227.015V664H212.085V568.995ZM238.196 568.995H256.925L271.447 625.862H271.719V568.995H285.019V664H269.683L251.768 594.647H251.496V664H238.196V568.995ZM296.115 568.995H318.917C326.336 568.995 331.901 570.986 335.61 574.967C339.32 578.948 341.175 584.784 341.175 592.475V640.52C341.175 648.211 339.32 654.047 335.61 658.028C331.901 662.009 326.336 664 318.917 664H296.115V568.995ZM318.645 650.428C321.088 650.428 322.943 649.704 324.21 648.256C325.567 646.809 326.245 644.456 326.245 641.199V591.797C326.245 588.539 325.567 586.187 324.21 584.739C322.943 583.291 321.088 582.568 318.645 582.568H311.045V650.428H318.645ZM351.252 568.995H366.181V664H351.252V568.995ZM388.899 568.995H409.121L424.593 664H409.664L406.949 645.135V645.406H389.984L387.27 664H373.426L388.899 568.995ZM405.185 632.513L398.535 585.553H398.263L391.749 632.513H405.185ZM431.836 568.995H450.566L465.088 625.862H465.359V568.995H478.66V664H463.323L445.408 594.647H445.137V664H431.836V568.995Z" fill="#ED1C24"/>
<path d="M138.812 440.995H153.742V522.428H178.307V536H138.812V440.995ZM207.182 537.357C199.943 537.357 194.424 535.321 190.624 531.25C186.824 527.088 184.923 521.161 184.923 513.47V440.995H199.853V514.556C199.853 517.813 200.486 520.166 201.753 521.614C203.11 523.061 205.01 523.785 207.453 523.785C209.896 523.785 211.751 523.061 213.018 521.614C214.375 520.166 215.053 517.813 215.053 514.556V440.995H229.44V513.47C229.44 521.161 227.54 527.088 223.74 531.25C219.939 535.321 214.42 537.357 207.182 537.357ZM251.745 454.568H236.137V440.995H282.282V454.568H266.674V536H251.745V454.568ZM289.51 440.995H304.439V479.676H320.454V440.995H335.384V536H320.454V493.248H304.439V536H289.51V440.995ZM346.502 440.995H387.218V454.568H361.432V479.676H381.925V493.248H361.432V522.428H387.218V536H346.502V440.995ZM395.807 440.995H417.93C425.62 440.995 431.23 442.805 434.759 446.424C438.288 449.953 440.052 455.427 440.052 462.847V468.682C440.052 478.545 436.795 484.788 430.28 487.412V487.683C433.899 488.769 436.433 490.986 437.88 494.334C439.419 497.682 440.188 502.16 440.188 507.77V524.464C440.188 527.178 440.278 529.395 440.459 531.114C440.64 532.743 441.093 534.371 441.816 536H426.616C426.073 534.462 425.711 533.014 425.53 531.657C425.349 530.3 425.258 527.857 425.258 524.328V506.956C425.258 502.613 424.535 499.582 423.087 497.862C421.73 496.143 419.332 495.284 415.894 495.284H410.736V536H395.807V440.995ZM416.165 481.712C419.151 481.712 421.368 480.943 422.815 479.404C424.354 477.866 425.123 475.288 425.123 471.668V464.339C425.123 460.901 424.489 458.413 423.223 456.875C422.046 455.337 420.146 454.568 417.522 454.568H410.736V481.712H416.165ZM462.082 440.995H482.305L497.777 536H482.848L480.133 517.135V517.406H463.168L460.454 536H446.61L462.082 440.995ZM478.369 504.513L471.718 457.553H471.447L464.932 504.513H478.369ZM505.02 440.995H523.749L538.271 497.862H538.543V440.995H551.843V536H536.507L518.592 466.647H518.32V536H505.02V440.995Z" fill="#ED1C24"/>
<path d="M118.174 696.995H139.482L148.983 764.992H149.254L158.755 696.995H180.063V792H165.948V720.068H165.676L154.819 792H142.332L131.475 720.068H131.203V792H118.174V696.995ZM191.203 696.995H206.133V792H191.203V696.995ZM217.314 696.995H236.043L250.565 753.862H250.837V696.995H264.137V792H248.801L230.886 722.647H230.614V792H217.314V696.995ZM275.234 696.995H290.163V792H275.234V696.995ZM320.752 793.357C313.514 793.357 308.04 791.321 304.33 787.25C300.62 783.088 298.765 777.161 298.765 769.47V764.042H312.88V770.556C312.88 776.709 315.459 779.785 320.616 779.785C323.15 779.785 325.05 779.061 326.317 777.614C327.674 776.075 328.352 773.632 328.352 770.285C328.352 766.304 327.448 762.82 325.638 759.834C323.828 756.758 320.481 753.093 315.595 748.841C309.442 743.412 305.144 738.526 302.701 734.183C300.258 729.749 299.037 724.773 299.037 719.254C299.037 711.744 300.937 705.953 304.737 701.881C308.537 697.719 314.057 695.638 321.295 695.638C328.443 695.638 333.827 697.719 337.446 701.881C341.155 705.953 343.01 711.834 343.01 719.525V723.461H328.895V718.575C328.895 715.318 328.262 712.965 326.995 711.518C325.729 709.979 323.874 709.21 321.431 709.21C316.454 709.21 313.966 712.241 313.966 718.304C313.966 721.742 314.871 724.954 316.68 727.94C318.581 730.926 321.974 734.545 326.86 738.797C333.103 744.226 337.401 749.157 339.753 753.591C342.106 758.025 343.282 763.227 343.282 769.199C343.282 776.98 341.336 782.952 337.446 787.114C333.646 791.276 328.081 793.357 320.752 793.357ZM363.514 710.568H347.906V696.995H394.051V710.568H378.443V792H363.514V710.568ZM401.279 696.995H423.402C431.092 696.995 436.702 698.805 440.231 702.424C443.76 705.953 445.524 711.427 445.524 718.847V724.682C445.524 734.545 442.267 740.788 435.752 743.412V743.683C439.371 744.769 441.905 746.986 443.352 750.334C444.891 753.682 445.66 758.16 445.66 763.77V780.464C445.66 783.178 445.75 785.395 445.931 787.114C446.112 788.743 446.565 790.371 447.288 792H432.088C431.545 790.462 431.183 789.014 431.002 787.657C430.821 786.3 430.73 783.857 430.73 780.328V762.956C430.73 758.613 430.007 755.582 428.559 753.862C427.202 752.143 424.804 751.284 421.366 751.284H416.208V792H401.279V696.995ZM421.637 737.712C424.623 737.712 426.84 736.943 428.287 735.404C429.826 733.866 430.595 731.288 430.595 727.668V720.339C430.595 716.901 429.961 714.413 428.695 712.875C427.518 711.337 425.618 710.568 422.994 710.568H416.208V737.712H421.637ZM456.018 696.995H470.947V792H456.018V696.995ZM482.128 696.995H522.845V710.568H497.058V735.676H517.551V749.248H497.058V778.428H522.845V792H482.128V696.995ZM551.106 793.357C543.868 793.357 538.394 791.321 534.684 787.25C530.974 783.088 529.12 777.161 529.12 769.47V764.042H543.234V770.556C543.234 776.709 545.813 779.785 550.971 779.785C553.504 779.785 555.404 779.061 556.671 777.614C558.028 776.075 558.707 773.632 558.707 770.285C558.707 766.304 557.802 762.82 555.992 759.834C554.183 756.758 550.835 753.093 545.949 748.841C539.796 743.412 535.498 738.526 533.055 734.183C530.612 729.749 529.391 724.773 529.391 719.254C529.391 711.744 531.291 705.953 535.091 701.881C538.891 697.719 544.411 695.638 551.649 695.638C558.797 695.638 564.181 697.719 567.8 701.881C571.51 705.953 573.364 711.834 573.364 719.525V723.461H559.25V718.575C559.25 715.318 558.616 712.965 557.349 711.518C556.083 709.979 554.228 709.21 551.785 709.21C546.808 709.21 544.32 712.241 544.32 718.304C544.32 721.742 545.225 724.954 547.035 727.94C548.935 730.926 552.328 734.545 557.214 738.797C563.457 744.226 567.755 749.157 570.107 753.591C572.46 758.025 573.636 763.227 573.636 769.199C573.636 776.98 571.691 782.952 567.8 787.114C564 791.276 558.435 793.357 551.106 793.357Z" fill="#ED1C24"/>
</g>
<defs>
<clipPath id="clip0_1606_462">
<rect width="689" height="828" fill="white"/>
</clipPath>
</defs>
</svg>
