<svg width="1496" height="330" viewBox="0 0 1496 330" fill="none" xmlns="http://www.w3.org/2000/svg">
<g clip-path="url(#clip0_1606_97)">
<path d="M199.742 222.961H215.148V306.994H240.498V321H199.742V222.961ZM270.295 322.401C262.826 322.401 257.13 320.3 253.208 316.098C249.287 311.803 247.326 305.687 247.326 297.751V222.961H262.732V298.871C262.732 302.233 263.386 304.66 264.693 306.154C266.094 307.648 268.054 308.395 270.575 308.395C273.096 308.395 275.01 307.648 276.318 306.154C277.718 304.66 278.418 302.233 278.418 298.871V222.961H293.264V297.751C293.264 305.687 291.304 311.803 287.382 316.098C283.46 320.3 277.765 322.401 270.295 322.401ZM316.282 236.967H300.175V222.961H347.794V236.967H331.688V321H316.282V236.967ZM355.253 222.961H370.659V262.877H387.186V222.961H402.592V321H387.186V276.883H370.659V321H355.253V222.961ZM414.065 222.961H456.082V236.967H429.472V262.877H450.62V276.883H429.472V306.994H456.082V321H414.065V222.961ZM464.945 222.961H487.774C495.71 222.961 501.499 224.829 505.141 228.563C508.782 232.205 510.603 237.854 510.603 245.51V251.532C510.603 261.71 507.242 268.152 500.519 270.86V271.14C504.254 272.261 506.868 274.548 508.362 278.003C509.949 281.458 510.743 286.08 510.743 291.868V309.095C510.743 311.896 510.836 314.184 511.023 315.958C511.21 317.639 511.677 319.319 512.424 321H496.738C496.177 319.413 495.804 317.919 495.617 316.518C495.43 315.118 495.337 312.597 495.337 308.955V291.028C495.337 286.546 494.59 283.418 493.096 281.644C491.696 279.87 489.221 278.983 485.673 278.983H480.351V321H464.945V222.961ZM485.953 264.978C489.034 264.978 491.322 264.184 492.816 262.597C494.403 261.01 495.197 258.349 495.197 254.614V247.051C495.197 243.503 494.543 240.935 493.236 239.348C492.022 237.76 490.062 236.967 487.354 236.967H480.351V264.978H485.953ZM533.337 222.961H554.205L570.171 321H554.765L551.964 301.532V301.812H534.457L531.656 321H517.371L533.337 222.961ZM550.144 288.507L543.281 240.048H543.001L536.278 288.507H550.144ZM577.646 222.961H596.973L611.959 281.644H612.24V222.961H625.965V321H610.139L591.651 249.432H591.371V321H577.646V222.961ZM659.846 222.961H675.252V321H659.846V222.961ZM686.791 222.961H706.118L721.104 281.644H721.384V222.961H735.11V321H719.283L700.796 249.432H700.516V321H686.791V222.961ZM746.56 222.961H770.09C777.746 222.961 783.488 225.015 787.316 229.124C791.145 233.232 793.059 239.254 793.059 247.191V296.77C793.059 304.707 791.145 310.729 787.316 314.838C783.488 318.946 777.746 321 770.09 321H746.56V222.961ZM769.81 306.994C772.331 306.994 774.245 306.247 775.552 304.754C776.952 303.26 777.653 300.832 777.653 297.471V246.49C777.653 243.129 776.952 240.702 775.552 239.208C774.245 237.714 772.331 236.967 769.81 236.967H761.966V306.994H769.81ZM803.458 222.961H818.864V321H803.458V222.961ZM842.307 222.961H863.175L879.141 321H863.735L860.934 301.532V301.812H843.427L840.626 321H826.341L842.307 222.961ZM859.113 288.507L852.251 240.048H851.971L845.248 288.507H859.113ZM886.616 222.961H905.943L920.929 281.644H921.21V222.961H934.935V321H919.109L900.621 249.432H900.341V321H886.616V222.961ZM968.816 222.961H990.805L1000.61 293.129H1000.89L1010.69 222.961H1032.68V321H1018.12V246.771H1017.84L1006.63 321H993.746L982.542 246.771H982.262V321H968.816V222.961ZM1044.18 222.961H1059.58V321H1044.18V222.961ZM1071.12 222.961H1090.45L1105.44 281.644H1105.72V222.961H1119.44V321H1103.62L1085.13 249.432H1084.85V321H1071.12V222.961ZM1130.89 222.961H1146.3V321H1130.89V222.961ZM1177.86 322.401C1170.39 322.401 1164.75 320.3 1160.92 316.098C1157.09 311.803 1155.18 305.687 1155.18 297.751V292.149H1169.74V298.871C1169.74 305.22 1172.4 308.395 1177.72 308.395C1180.34 308.395 1182.3 307.648 1183.61 306.154C1185.01 304.567 1185.71 302.046 1185.71 298.591C1185.71 294.483 1184.77 290.888 1182.91 287.807C1181.04 284.632 1177.58 280.851 1172.54 276.462C1166.19 270.86 1161.76 265.818 1159.24 261.336C1156.72 256.761 1155.46 251.626 1155.46 245.93C1155.46 238.181 1157.42 232.205 1161.34 228.003C1165.26 223.708 1170.95 221.561 1178.42 221.561C1185.8 221.561 1191.36 223.708 1195.09 228.003C1198.92 232.205 1200.83 238.274 1200.83 246.21V250.272H1186.27V245.23C1186.27 241.869 1185.61 239.441 1184.31 237.947C1183 236.36 1181.09 235.566 1178.56 235.566C1173.43 235.566 1170.86 238.694 1170.86 244.95C1170.86 248.498 1171.8 251.813 1173.66 254.894C1175.62 257.975 1179.12 261.71 1184.17 266.098C1190.61 271.7 1195.04 276.789 1197.47 281.364C1199.9 285.939 1201.11 291.308 1201.11 297.471C1201.11 305.501 1199.11 311.663 1195.09 315.958C1191.17 320.253 1185.43 322.401 1177.86 322.401ZM1221.99 236.967H1205.89V222.961H1253.5V236.967H1237.4V321H1221.99V236.967ZM1260.96 222.961H1283.79C1291.73 222.961 1297.52 224.829 1301.16 228.563C1304.8 232.205 1306.62 237.854 1306.62 245.51V251.532C1306.62 261.71 1303.26 268.152 1296.54 270.86V271.14C1300.27 272.261 1302.89 274.548 1304.38 278.003C1305.97 281.458 1306.76 286.08 1306.76 291.868V309.095C1306.76 311.896 1306.85 314.184 1307.04 315.958C1307.23 317.639 1307.7 319.319 1308.44 321H1292.76C1292.2 319.413 1291.82 317.919 1291.64 316.518C1291.45 315.118 1291.36 312.597 1291.36 308.955V291.028C1291.36 286.546 1290.61 283.418 1289.11 281.644C1287.71 279.87 1285.24 278.983 1281.69 278.983H1276.37V321H1260.96V222.961ZM1281.97 264.978C1285.05 264.978 1287.34 264.184 1288.83 262.597C1290.42 261.01 1291.22 258.349 1291.22 254.614V247.051C1291.22 243.503 1290.56 240.935 1289.25 239.348C1288.04 237.76 1286.08 236.967 1283.37 236.967H1276.37V264.978H1281.97ZM1317.45 222.961H1332.86V321H1317.45V222.961ZM1344.39 222.961H1386.41V236.967H1359.8V262.877H1380.95V276.883H1359.8V306.994H1386.41V321H1344.39V222.961ZM1415.58 322.401C1408.11 322.401 1402.46 320.3 1398.63 316.098C1394.8 311.803 1392.89 305.687 1392.89 297.751V292.149H1407.45V298.871C1407.45 305.22 1410.11 308.395 1415.44 308.395C1418.05 308.395 1420.01 307.648 1421.32 306.154C1422.72 304.567 1423.42 302.046 1423.42 298.591C1423.42 294.483 1422.49 290.888 1420.62 287.807C1418.75 284.632 1415.3 280.851 1410.25 276.462C1403.9 270.86 1399.47 265.818 1396.95 261.336C1394.43 256.761 1393.17 251.626 1393.17 245.93C1393.17 238.181 1395.13 232.205 1399.05 228.003C1402.97 223.708 1408.67 221.561 1416.14 221.561C1423.51 221.561 1429.07 223.708 1432.8 228.003C1436.63 232.205 1438.54 238.274 1438.54 246.21V250.272H1423.98V245.23C1423.98 241.869 1423.33 239.441 1422.02 237.947C1420.71 236.36 1418.8 235.566 1416.28 235.566C1411.14 235.566 1408.57 238.694 1408.57 244.95C1408.57 248.498 1409.51 251.813 1411.37 254.894C1413.33 257.975 1416.84 261.71 1421.88 266.098C1428.32 271.7 1432.76 276.789 1435.18 281.364C1437.61 285.939 1438.82 291.308 1438.82 297.471C1438.82 305.501 1436.82 311.663 1432.8 315.958C1428.88 320.253 1423.14 322.401 1415.58 322.401Z" fill="#ED1C24"/>
<path d="M70.0547 151L33.1865 192H12.7051L48.0361 151L12.7051 110H33.1865L70.0547 151ZM131.5 151L94.6328 192H40.8672L78.7588 151L40.8672 110H94.6328L131.5 151ZM40.8672 150.494L17.3135 177.321H4L27.042 150.494L5.02441 124.173H17.3135L40.8672 150.494Z" fill="#ED1C24"/>
<path d="M70.0547 151L70.7983 151.669L71.3995 151L70.7983 150.331L70.0547 151ZM33.1865 192V193H33.6321L33.9301 192.669L33.1865 192ZM12.7051 192L11.9475 191.347L10.5233 193H12.7051V192ZM48.0361 151L48.7937 151.653L49.3562 151L48.7937 150.347L48.0361 151ZM12.7051 110V109H10.5233L11.9475 110.653L12.7051 110ZM33.1865 110L33.9301 109.331L33.6321 109H33.1865V110ZM131.5 151L132.244 151.669L132.845 151L132.244 150.331L131.5 151ZM94.6328 192V193H95.0784L95.3764 192.669L94.6328 192ZM40.8672 192L40.1328 191.321L38.5813 193H40.8672V192ZM78.7588 151L79.4932 151.679L80.1205 151L79.4932 150.321L78.7588 151ZM40.8672 110V109H38.5813L40.1328 110.679L40.8672 110ZM94.6328 110L95.3764 109.331L95.0784 109H94.6328V110ZM40.8672 150.494L41.6187 151.154L42.2035 150.488L41.6124 149.827L40.8672 150.494ZM17.3135 177.321V178.321H17.7662L18.0649 177.981L17.3135 177.321ZM4 177.321L3.2414 176.67L1.82287 178.321H4V177.321ZM27.042 150.494L27.8006 151.146L28.3529 150.503L27.809 149.853L27.042 150.494ZM5.02441 124.173V123.173H2.88419L4.25739 124.814L5.02441 124.173ZM17.3135 124.173L18.0587 123.506L17.7605 123.173H17.3135V124.173ZM70.0547 151L69.3111 150.331L32.4429 191.331L33.1865 192L33.9301 192.669L70.7983 151.669L70.0547 151ZM33.1865 192V191H12.7051V192V193H33.1865V192ZM12.7051 192L13.4626 192.653L48.7937 151.653L48.0361 151L47.2786 150.347L11.9475 191.347L12.7051 192ZM48.0361 151L48.7937 150.347L13.4626 109.347L12.7051 110L11.9475 110.653L47.2786 151.653L48.0361 151ZM12.7051 110V111H33.1865V110V109H12.7051V110ZM33.1865 110L32.4429 110.669L69.3111 151.669L70.0547 151L70.7983 150.331L33.9301 109.331L33.1865 110ZM131.5 151L130.756 150.331L93.8892 191.331L94.6328 192L95.3764 192.669L132.244 151.669L131.5 151ZM94.6328 192V191H40.8672V192V193H94.6328V192ZM40.8672 192L41.6016 192.679L79.4932 151.679L78.7588 151L78.0244 150.321L40.1328 191.321L40.8672 192ZM78.7588 151L79.4932 150.321L41.6016 109.321L40.8672 110L40.1328 110.679L78.0244 151.679L78.7588 151ZM40.8672 110V111H94.6328V110V109H40.8672V110ZM94.6328 110L93.8892 110.669L130.756 151.669L131.5 151L132.244 150.331L95.3764 109.331L94.6328 110ZM40.8672 150.494L40.1157 149.834L16.562 176.662L17.3135 177.321L18.0649 177.981L41.6187 151.154L40.8672 150.494ZM17.3135 177.321V176.321H4V177.321V178.321H17.3135V177.321ZM4 177.321L4.7586 177.973L27.8006 151.146L27.042 150.494L26.2834 149.843L3.2414 176.67L4 177.321ZM27.042 150.494L27.809 149.853L5.79144 123.531L5.02441 124.173L4.25739 124.814L26.275 151.136L27.042 150.494ZM5.02441 124.173V125.173H17.3135V124.173V123.173H5.02441V124.173ZM17.3135 124.173L16.5683 124.84L40.122 151.161L40.8672 150.494L41.6124 149.827L18.0587 123.506L17.3135 124.173Z" fill="black"/>
<path d="M201.964 150L238.542 192H258.863L223.81 150L258.863 108H238.542L201.964 150ZM141 150L177.578 192H230.922L193.327 150L230.922 108H177.578L141 150ZM230.922 149.481L254.291 176.963H267.5L244.639 149.481L266.484 122.519H254.291L230.922 149.481Z" fill="#FFDE16"/>
<path d="M201.964 150L201.21 150.657L200.638 150L201.21 149.343L201.964 150ZM238.542 192V193H238.087L237.788 192.657L238.542 192ZM258.863 192L259.631 191.359L261 193H258.863V192ZM223.81 150L223.042 150.641L222.507 150L223.042 149.359L223.81 150ZM258.863 108V107H261L259.631 108.641L258.863 108ZM238.542 108L237.788 107.343L238.087 107H238.542V108ZM141 150L140.246 150.657L139.674 150L140.246 149.343L141 150ZM177.578 192V193H177.123L176.824 192.657L177.578 192ZM230.922 192L231.667 191.333L233.159 193H230.922V192ZM193.327 150L192.582 150.667L191.985 150L192.582 149.333L193.327 150ZM230.922 108V107H233.159L231.667 108.667L230.922 108ZM177.578 108L176.824 107.343L177.123 107H177.578V108ZM230.922 149.481L230.16 150.129L229.604 149.475L230.166 148.826L230.922 149.481ZM254.291 176.963V177.963H253.829L253.529 177.611L254.291 176.963ZM267.5 176.963L268.269 176.323L269.633 177.963H267.5V176.963ZM244.639 149.481L243.87 150.121L243.345 149.49L243.862 148.852L244.639 149.481ZM266.484 122.519V121.519H268.582L267.261 123.148L266.484 122.519ZM254.291 122.519L253.535 121.864L253.834 121.519H254.291V122.519ZM201.964 150L202.718 149.343L239.296 191.343L238.542 192L237.788 192.657L201.21 150.657L201.964 150ZM238.542 192V191H258.863V192V193H238.542V192ZM258.863 192L258.096 192.641L223.042 150.641L223.81 150L224.577 149.359L259.631 191.359L258.863 192ZM223.81 150L223.042 149.359L258.096 107.359L258.863 108L259.631 108.641L224.577 150.641L223.81 150ZM258.863 108V109H238.542V108V107H258.863V108ZM238.542 108L239.296 108.657L202.718 150.657L201.964 150L201.21 149.343L237.788 107.343L238.542 108ZM141 150L141.754 149.343L178.332 191.343L177.578 192L176.824 192.657L140.246 150.657L141 150ZM177.578 192V191H230.922V192V193H177.578V192ZM230.922 192L230.177 192.667L192.582 150.667L193.327 150L194.072 149.333L231.667 191.333L230.922 192ZM193.327 150L192.582 149.333L230.177 107.333L230.922 108L231.667 108.667L194.072 150.667L193.327 150ZM230.922 108V109H177.578V108V107H230.922V108ZM177.578 108L178.332 108.657L141.754 150.657L141 150L140.246 149.343L176.824 107.343L177.578 108ZM230.922 149.481L231.684 148.834L255.053 176.315L254.291 176.963L253.529 177.611L230.16 150.129L230.922 149.481ZM254.291 176.963V175.963H267.5V176.963V177.963H254.291V176.963ZM267.5 176.963L266.731 177.602L243.87 150.121L244.639 149.481L245.407 148.842L268.269 176.323L267.5 176.963ZM244.639 149.481L243.862 148.852L265.707 121.889L266.484 122.519L267.261 123.148L245.416 150.111L244.639 149.481ZM266.484 122.519V123.519H254.291V122.519V121.519H266.484V122.519ZM254.291 122.519L255.047 123.174L231.678 150.136L230.922 149.481L230.166 148.826L253.535 121.864L254.291 122.519Z" fill="black"/>
<path d="M135.5 78.084L172 36.7354L172 13.7627L135.5 53.3897L99 13.7627L99 36.7354L135.5 78.084ZM135.5 147L172 105.65L172 45.3496L135.5 87.8477L99 45.3496L99 105.65L135.5 147ZM135.05 45.3496L158.932 18.9316L158.932 4L135.05 29.8438L111.617 5.14844L111.617 18.9316L135.05 45.3496Z" fill="white"/>
<path d="M135.5 78.084L136.25 78.7458L135.5 79.5951L134.75 78.7458L135.5 78.084ZM172 36.7354L173 36.7354L173 37.1136L172.75 37.3971L172 36.7354ZM172 13.7627L171.264 13.0852L173 11.201L173 13.7627L172 13.7627ZM135.5 53.3897L136.236 54.0671L135.5 54.8657L134.764 54.0671L135.5 53.3897ZM99 13.7627L98 13.7627L98 11.201L99.7355 13.0852L99 13.7627ZM99 36.7354L98.2503 37.3971L98 37.1136L98 36.7354L99 36.7354ZM135.5 147L136.25 147.662L135.5 148.511L134.75 147.662L135.5 147ZM172 105.65L173 105.65L173 106.029L172.75 106.312L172 105.65ZM172 45.3496L171.241 44.6981L173 42.6505L173 45.3496L172 45.3496ZM135.5 87.8477L136.259 88.4992L135.5 89.3825L134.741 88.4992L135.5 87.8477ZM99 45.3496L98 45.3496L98 42.6505L99.7586 44.6981L99 45.3496ZM99 105.65L98.2503 106.312L98 106.029L98 105.65L99 105.65ZM135.05 45.3496L135.792 46.0202L135.043 46.8486L134.302 46.0132L135.05 45.3496ZM158.932 18.9316L159.932 18.9316L159.932 19.3166L159.673 19.6022L158.932 18.9316ZM158.932 4L158.197 3.32132L159.932 1.4444L159.932 4L158.932 4ZM135.05 29.8438L135.784 30.5224L135.059 31.3067L134.324 30.5321L135.05 29.8438ZM111.617 5.14844L110.617 5.14844L110.617 2.64174L112.343 4.46012L111.617 5.14844ZM111.617 18.9316L110.869 19.5952L110.617 19.3112L110.617 18.9316L111.617 18.9316ZM135.5 78.084L134.75 77.4222L171.25 36.0736L172 36.7354L172.75 37.3971L136.25 78.7458L135.5 78.084ZM172 36.7354L171 36.7354L171 13.7627L172 13.7627L173 13.7627L173 36.7354L172 36.7354ZM172 13.7627L172.736 14.4402L136.236 54.0671L135.5 53.3897L134.764 52.7122L171.264 13.0852L172 13.7627ZM135.5 53.3897L134.764 54.0671L98.2645 14.4402L99 13.7627L99.7355 13.0852L136.236 52.7122L135.5 53.3897ZM99 13.7627L100 13.7627L100 36.7354L99 36.7354L98 36.7354L98 13.7627L99 13.7627ZM99 36.7354L99.7497 36.0736L136.25 77.4222L135.5 78.084L134.75 78.7458L98.2503 37.3971L99 36.7354ZM135.5 147L134.75 146.338L171.25 104.989L172 105.65L172.75 106.312L136.25 147.662L135.5 147ZM172 105.65L171 105.65L171 45.3496L172 45.3496L173 45.3496L173 105.65L172 105.65ZM172 45.3496L172.759 46.0012L136.259 88.4992L135.5 87.8477L134.741 87.1961L171.241 44.6981L172 45.3496ZM135.5 87.8477L134.741 88.4992L98.2414 46.0012L99 45.3496L99.7586 44.6981L136.259 87.1961L135.5 87.8477ZM99 45.3496L100 45.3496L100 105.65L99 105.65L98 105.65L98 45.3496L99 45.3496ZM99 105.65L99.7497 104.989L136.25 146.338L135.5 147L134.75 147.662L98.2503 106.312L99 105.65ZM135.05 45.3496L134.308 44.679L158.19 18.261L158.932 18.9316L159.673 19.6022L135.792 46.0202L135.05 45.3496ZM158.932 18.9316L157.932 18.9316L157.932 4L158.932 4L159.932 4L159.932 18.9316L158.932 18.9316ZM158.932 4L159.666 4.67868L135.784 30.5224L135.05 29.8438L134.315 29.1651L158.197 3.32132L158.932 4ZM135.05 29.8438L134.324 30.5321L110.892 5.83676L111.617 5.14844L112.343 4.46012L135.775 29.1554L135.05 29.8438ZM111.617 5.14844L112.617 5.14844L112.617 18.9316L111.617 18.9316L110.617 18.9316L110.617 5.14844L111.617 5.14844ZM111.617 18.9316L112.365 18.2681L135.798 44.686L135.05 45.3496L134.302 46.0132L110.869 19.5952L111.617 18.9316Z" fill="black"/>
<path d="M135.5 256L172 296.482L172 318.972L135.5 280.176L99 318.972L99 296.482L135.5 256ZM135.5 226.47L172 266.952L172 289.442L135.5 250.647L99 289.442L99 266.952L135.5 226.47ZM135.5 159L172 199.482L172 258.518L135.5 216.912L99 258.518L99 199.482L135.5 159ZM135.05 290L158.932 315.864L158.932 330.482L135.05 305.181L111.617 329.358L111.617 315.864L135.05 290Z" fill="black"/>
<path d="M135.5 256L136.243 255.331L135.5 254.507L134.757 255.331L135.5 256ZM172 296.482L173 296.482L173 296.098L172.743 295.812L172 296.482ZM172 318.972L171.272 319.657L173 321.494L173 318.972L172 318.972ZM135.5 280.176L136.228 279.491L135.5 278.717L134.772 279.491L135.5 280.176ZM99 318.972L98 318.972L98 321.494L99.7283 319.657L99 318.972ZM99 296.482L98.2573 295.812L98 296.098L98 296.482L99 296.482ZM135.5 226.47L136.243 225.801L135.5 224.977L134.757 225.801L135.5 226.47ZM172 266.952L173 266.952L173 266.567L172.743 266.282L172 266.952ZM172 289.442L171.272 290.127L173 291.964L173 289.442L172 289.442ZM135.5 250.647L136.228 249.962L135.5 249.188L134.772 249.962L135.5 250.647ZM99 289.442L98 289.442L98 291.964L99.7283 290.127L99 289.442ZM99 266.952L98.2573 266.282L98 266.567L98 266.952L99 266.952ZM135.5 159L136.243 158.331L135.5 157.507L134.757 158.331L135.5 159ZM172 199.482L173 199.482L173 199.098L172.743 198.812L172 199.482ZM172 258.518L171.248 259.178L173 261.174L173 258.518L172 258.518ZM135.5 216.912L136.252 216.252L135.5 215.395L134.748 216.252L135.5 216.912ZM99 258.518L98 258.518L98 261.174L99.7517 259.178L99 258.518ZM99 199.482L98.2573 198.812L98 199.098L98 199.482L99 199.482ZM135.05 290L135.784 289.322L135.043 288.519L134.309 289.329L135.05 290ZM158.932 315.864L159.932 315.864L159.932 315.473L159.666 315.185L158.932 315.864ZM158.932 330.482L158.204 331.168L159.932 332.998L159.932 330.482L158.932 330.482ZM135.05 305.181L135.777 304.495L135.059 303.734L134.332 304.485L135.05 305.181ZM111.617 329.358L110.617 329.358L110.617 331.827L112.335 330.054L111.617 329.358ZM111.617 315.864L110.876 315.192L110.617 315.478L110.617 315.864L111.617 315.864ZM135.5 256L134.757 256.67L171.257 297.152L172 296.482L172.743 295.812L136.243 255.331L135.5 256ZM172 296.482L171 296.482L171 318.972L172 318.972L173 318.972L173 296.482L172 296.482ZM172 318.972L172.728 318.287L136.228 279.491L135.5 280.176L134.772 280.861L171.272 319.657L172 318.972ZM135.5 280.176L134.772 279.491L98.2717 318.287L99 318.972L99.7283 319.657L136.228 280.861L135.5 280.176ZM99 318.972L100 318.972L100 296.482L99 296.482L98 296.482L98 318.972L99 318.972ZM99 296.482L99.7427 297.152L136.243 256.67L135.5 256L134.757 255.331L98.2573 295.812L99 296.482ZM135.5 226.47L134.757 227.14L171.257 267.621L172 266.952L172.743 266.282L136.243 225.801L135.5 226.47ZM172 266.952L171 266.952L171 289.442L172 289.442L173 289.442L173 266.952L172 266.952ZM172 289.442L172.728 288.757L136.228 249.962L135.5 250.647L134.772 251.332L171.272 290.127L172 289.442ZM135.5 250.647L134.772 249.962L98.2717 288.757L99 289.442L99.7283 290.127L136.228 251.332L135.5 250.647ZM99 289.442L100 289.442L100 266.952L99 266.952L98 266.952L98 289.442L99 289.442ZM99 266.952L99.7427 267.621L136.243 227.14L135.5 226.47L134.757 225.801L98.2573 266.282L99 266.952ZM135.5 159L134.757 159.67L171.257 200.152L172 199.482L172.743 198.812L136.243 158.331L135.5 159ZM172 199.482L171 199.482L171 258.518L172 258.518L173 258.518L173 199.482L172 199.482ZM172 258.518L172.752 257.859L136.252 216.252L135.5 216.912L134.748 217.571L171.248 259.178L172 258.518ZM135.5 216.912L134.748 216.252L98.2483 257.859L99 258.518L99.7517 259.178L136.252 217.571L135.5 216.912ZM99 258.518L100 258.518L100 199.482L99 199.482L98 199.482L98 258.518L99 258.518ZM99 199.482L99.7427 200.152L136.243 159.67L135.5 159L134.757 158.331L98.2573 198.812L99 199.482ZM135.05 290L134.315 290.679L158.197 316.542L158.932 315.864L159.666 315.185L135.784 289.322L135.05 290ZM158.932 315.864L157.932 315.864L157.932 330.482L158.932 330.482L159.932 330.482L159.932 315.864L158.932 315.864ZM158.932 330.482L159.659 329.796L135.777 304.495L135.05 305.181L134.323 305.868L158.204 331.168L158.932 330.482ZM135.05 305.181L134.332 304.485L110.899 328.662L111.617 329.358L112.335 330.054L135.768 305.877L135.05 305.181ZM111.617 329.358L112.617 329.358L112.617 315.864L111.617 315.864L110.617 315.864L110.617 329.358L111.617 329.358ZM111.617 315.864L112.358 316.535L135.791 290.672L135.05 290L134.309 289.329L110.876 315.192L111.617 315.864Z" fill="white"/>
</g>
<defs>
<clipPath id="clip0_1606_97">
<rect width="1496" height="330" fill="white"/>
</clipPath>
</defs>
</svg>
