<svg width="933" height="425" viewBox="0 0 933 425" fill="none" xmlns="http://www.w3.org/2000/svg">
<g clip-path="url(#clip0_1606_127)">
<path d="M370.73 289.572H396.503L407.994 371.815H408.323L419.814 289.572H445.587V404.482H428.514V317.479H428.186L415.053 404.482H399.951L386.818 317.479H386.49V404.482H370.73V289.572ZM459.062 289.572H477.119V404.482H459.062V289.572ZM490.643 289.572H513.297L530.861 358.354H531.19V289.572H547.277V404.482H528.727L507.059 320.598H506.73V404.482H490.643V289.572ZM560.698 289.572H578.756V404.482H560.698V289.572ZM615.754 406.124C606.999 406.124 600.378 403.662 595.891 398.737C591.404 393.703 589.161 386.534 589.161 377.232V370.666H606.233V378.545C606.233 385.987 609.352 389.708 615.59 389.708C618.654 389.708 620.953 388.833 622.485 387.082C624.126 385.221 624.947 382.266 624.947 378.217C624.947 373.402 623.853 369.188 621.664 365.577C619.475 361.856 615.426 357.424 609.516 352.28C602.074 345.714 596.876 339.804 593.921 334.551C590.966 329.188 589.489 323.169 589.489 316.494C589.489 307.41 591.787 300.406 596.384 295.481C600.98 290.447 607.656 287.93 616.411 287.93C625.057 287.93 631.568 290.447 635.946 295.481C640.433 300.406 642.676 307.52 642.676 316.822V321.583H625.604V315.673C625.604 311.733 624.838 308.888 623.306 307.137C621.773 305.276 619.53 304.346 616.575 304.346C610.556 304.346 607.546 308.012 607.546 315.345C607.546 319.503 608.641 323.388 610.829 327C613.128 330.611 617.232 334.989 623.141 340.132C630.693 346.699 635.891 352.663 638.736 358.026C641.582 363.388 643.004 369.681 643.004 376.904C643.004 386.315 640.652 393.538 635.946 398.573C631.349 403.607 624.619 406.124 615.754 406.124ZM667.476 305.988H648.597V289.572H704.411V305.988H685.533V404.482H667.476V305.988ZM713.154 289.572H739.912C749.214 289.572 755.999 291.76 760.267 296.138C764.535 300.406 766.669 307.027 766.669 316.001V323.06C766.669 334.989 762.73 342.54 754.85 345.714V346.042C759.227 347.355 762.292 350.037 764.043 354.086C765.903 358.135 766.833 363.552 766.833 370.337V390.529C766.833 393.812 766.943 396.493 767.162 398.573C767.381 400.543 767.928 402.512 768.803 404.482H750.418C749.761 402.622 749.323 400.871 749.104 399.229C748.886 397.588 748.776 394.633 748.776 390.365V369.352C748.776 364.099 747.901 360.433 746.15 358.354C744.508 356.275 741.608 355.235 737.449 355.235H731.211V404.482H713.154V289.572ZM737.777 338.819C741.389 338.819 744.07 337.889 745.821 336.028C747.682 334.168 748.612 331.049 748.612 326.671V317.807C748.612 313.648 747.846 310.639 746.314 308.778C744.891 306.918 742.593 305.988 739.419 305.988H731.211V338.819H737.777ZM779.362 289.572H797.419V404.482H779.362V289.572ZM810.943 289.572H860.191V305.988H829.001V336.357H853.788V352.773H829.001V388.067H860.191V404.482H810.943V289.572ZM894.374 406.124C885.619 406.124 878.998 403.662 874.511 398.737C870.024 393.703 867.78 386.534 867.78 377.232V370.666H884.853V378.545C884.853 385.987 887.972 389.708 894.21 389.708C897.274 389.708 899.572 388.833 901.104 387.082C902.746 385.221 903.567 382.266 903.567 378.217C903.567 373.402 902.472 369.188 900.284 365.577C898.095 361.856 894.046 357.424 888.136 352.28C880.694 345.714 875.496 339.804 872.541 334.551C869.586 329.188 868.109 323.169 868.109 316.494C868.109 307.41 870.407 300.406 875.003 295.481C879.6 290.447 886.275 287.93 895.031 287.93C903.676 287.93 910.188 290.447 914.565 295.481C919.052 300.406 921.296 307.52 921.296 316.822V321.583H904.223V315.673C904.223 311.733 903.457 308.888 901.925 307.137C900.393 305.276 898.15 304.346 895.195 304.346C889.176 304.346 886.166 308.012 886.166 315.345C886.166 319.503 887.26 323.388 889.449 327C891.747 330.611 895.851 334.989 901.761 340.132C909.312 346.699 914.511 352.663 917.356 358.026C920.201 363.388 921.624 369.681 921.624 376.904C921.624 386.315 919.271 393.538 914.565 398.573C909.969 403.607 903.238 406.124 894.374 406.124Z" fill="#ED1C24"/>
<path d="M370.73 147.888H388.788V262.798H370.73V147.888ZM402.312 147.888H424.965L442.53 216.67H442.859V147.888H458.946V262.798H440.396L418.727 178.914H418.399V262.798H402.312V147.888ZM472.367 147.888H499.946C508.92 147.888 515.65 150.295 520.137 155.111C524.624 159.926 526.868 166.985 526.868 176.287V234.399C526.868 243.701 524.624 250.76 520.137 255.575C515.65 260.391 508.92 262.798 499.946 262.798H472.367V147.888ZM499.618 246.383C502.572 246.383 504.816 245.507 506.348 243.756C507.99 242.005 508.81 239.16 508.81 235.22V175.466C508.81 171.526 507.99 168.681 506.348 166.93C504.816 165.179 502.572 164.304 499.618 164.304H490.425V246.383H499.618ZM539.057 147.888H557.114V262.798H539.057V147.888ZM584.591 147.888H609.051L627.765 262.798H609.707L606.424 239.98V240.309H585.904L582.621 262.798H565.877L584.591 147.888ZM604.29 224.714L596.246 167.915H595.918L588.038 224.714H604.29ZM636.525 147.888H659.179L676.744 216.67H677.072V147.888H693.16V262.798H674.61L652.941 178.914H652.613V262.798H636.525V147.888Z" fill="#ED1C24"/>
<path d="M370.73 11.0894H388.788V109.584H418.5V126H370.73V11.0894ZM453.425 127.642C444.67 127.642 437.994 125.179 433.398 120.254C428.801 115.22 426.503 108.052 426.503 98.7498V11.0894H444.561V100.063C444.561 104.003 445.327 106.848 446.859 108.599C448.5 110.35 450.799 111.226 453.753 111.226C456.708 111.226 458.952 110.35 460.484 108.599C462.125 106.848 462.946 104.003 462.946 100.063V11.0894H480.347V98.7498C480.347 108.052 478.049 115.22 473.452 120.254C468.856 125.179 462.18 127.642 453.425 127.642ZM507.325 27.5052H488.447V11.0894H544.261V27.5052H525.383V126H507.325V27.5052ZM553.004 11.0894H571.061V57.8744H590.432V11.0894H608.489V126H590.432V74.2902H571.061V126H553.004V11.0894ZM621.937 11.0894H671.184V27.5052H639.994V57.8744H664.782V74.2902H639.994V109.584H671.184V126H621.937V11.0894ZM681.573 11.0894H708.33C717.633 11.0894 724.418 13.2782 728.686 17.6557C732.954 21.9238 735.088 28.5449 735.088 37.5188V44.5776C735.088 56.5064 731.148 64.0577 723.269 67.2314V67.5598C727.646 68.873 730.711 71.5543 732.462 75.6035C734.322 79.6527 735.252 85.0699 735.252 91.8551V112.047C735.252 115.33 735.362 118.011 735.581 120.09C735.799 122.06 736.347 124.03 737.222 126H718.836C718.18 124.14 717.742 122.389 717.523 120.747C717.304 119.105 717.195 116.151 717.195 111.882V90.8702C717.195 85.6171 716.319 81.9509 714.568 79.8716C712.927 77.7923 710.027 76.7526 705.868 76.7526H699.63V126H681.573V11.0894ZM706.196 60.3368C709.808 60.3368 712.489 59.4066 714.24 57.5461C716.101 55.6857 717.031 52.5667 717.031 48.1891V39.3246C717.031 35.1659 716.265 32.1563 714.733 30.2959C713.31 28.4354 711.012 27.5052 707.838 27.5052H699.63V60.3368H706.196ZM761.734 11.0894H786.194L804.908 126H786.85L783.567 103.182V103.51H763.048L759.764 126H743.02L761.734 11.0894ZM781.433 87.9153L773.39 31.1167H773.061L765.182 87.9153H781.433ZM813.668 11.0894H836.322L853.887 79.8716H854.216V11.0894H870.303V126H851.753L830.084 42.1153H829.756V126H813.668V11.0894Z" fill="#ED1C24"/>
<path d="M88.7139 192.85L44.7803 242.455H20.373L62.4756 192.85L20.373 143.246H44.7803L88.7139 192.85ZM161.936 192.85L118.002 242.455H53.9336L99.0869 192.85L53.9336 143.246H118.002L161.936 192.85ZM53.9336 192.238L25.8652 224.695H10L37.458 192.238L11.2207 160.393H25.8652L53.9336 192.238Z" fill="#ED1C24"/>
<path d="M88.7139 192.85L89.8368 193.845L90.7176 192.85L89.8368 191.856L88.7139 192.85ZM44.7803 242.455V243.955H45.4555L45.9032 243.449L44.7803 242.455ZM20.373 242.455L19.2294 241.484L17.1324 243.955H20.373V242.455ZM62.4756 192.85L63.6192 193.821L64.443 192.85L63.6192 191.88L62.4756 192.85ZM20.373 143.246V141.746H17.1324L19.2294 144.217L20.373 143.246ZM44.7803 143.246L45.9032 142.251L45.4555 141.746H44.7803V143.246ZM161.936 192.85L163.058 193.845L163.939 192.85L163.058 191.856L161.936 192.85ZM118.002 242.455V243.955H118.677L119.125 243.449L118.002 242.455ZM53.9336 242.455L52.8243 241.445L50.5398 243.955H53.9336V242.455ZM99.0869 192.85L100.196 193.86L101.115 192.85L100.196 191.841L99.0869 192.85ZM53.9336 143.246V141.746H50.5398L52.8243 144.256L53.9336 143.246ZM118.002 143.246L119.125 142.251L118.677 141.746H118.002V143.246ZM53.9336 192.238L55.0682 193.219L55.9248 192.229L55.0589 191.246L53.9336 192.238ZM25.8652 224.695V226.195H26.5512L26.9998 225.676L25.8652 224.695ZM10 224.695L8.85482 223.726L6.76627 226.195H10V224.695ZM37.458 192.238L38.6032 193.207L39.412 192.251L38.6157 191.284L37.458 192.238ZM11.2207 160.393V158.893H8.04129L10.063 161.347L11.2207 160.393ZM25.8652 160.393L26.9905 159.402L26.5426 158.893H25.8652V160.393ZM88.7139 192.85L87.591 191.856L43.6574 241.46L44.7803 242.455L45.9032 243.449L89.8368 193.845L88.7139 192.85ZM44.7803 242.455V240.955H20.373V242.455V243.955H44.7803V242.455ZM20.373 242.455L21.5167 243.426L63.6192 193.821L62.4756 192.85L61.332 191.88L19.2294 241.484L20.373 242.455ZM62.4756 192.85L63.6192 191.88L21.5167 142.275L20.373 143.246L19.2294 144.217L61.332 193.821L62.4756 192.85ZM20.373 143.246V144.746H44.7803V143.246V141.746H20.373V143.246ZM44.7803 143.246L43.6574 144.241L87.591 193.845L88.7139 192.85L89.8368 191.856L45.9032 142.251L44.7803 143.246ZM161.936 192.85L160.813 191.856L116.879 241.46L118.002 242.455L119.125 243.449L163.058 193.845L161.936 192.85ZM118.002 242.455V240.955H53.9336V242.455V243.955H118.002V242.455ZM53.9336 242.455L55.0429 243.465L100.196 193.86L99.0869 192.85L97.9777 191.841L52.8243 241.445L53.9336 242.455ZM99.0869 192.85L100.196 191.841L55.0429 142.236L53.9336 143.246L52.8243 144.256L97.9777 193.86L99.0869 192.85ZM53.9336 143.246V144.746H118.002V143.246V141.746H53.9336V143.246ZM118.002 143.246L116.879 144.241L160.813 193.845L161.936 192.85L163.058 191.856L119.125 142.251L118.002 143.246ZM53.9336 192.238L52.799 191.257L24.7306 223.714L25.8652 224.695L26.9998 225.676L55.0682 193.219L53.9336 192.238ZM25.8652 224.695V223.195H10V224.695V226.195H25.8652V224.695ZM10 224.695L11.1452 225.664L38.6032 193.207L37.458 192.238L36.3128 191.269L8.85482 223.726L10 224.695ZM37.458 192.238L38.6157 191.284L12.3784 159.44L11.2207 160.393L10.063 161.347L36.3003 193.192L37.458 192.238ZM11.2207 160.393V161.893H25.8652V160.393V158.893H11.2207V160.393ZM25.8652 160.393L24.74 161.385L52.8083 193.23L53.9336 192.238L55.0589 191.246L26.9905 159.402L25.8652 160.393Z" fill="black"/>
<path d="M245.904 191.641L289.492 242.455H313.708L271.936 191.641L313.708 140.826H289.492L245.904 191.641ZM173.256 191.641L216.845 242.455H280.411L235.612 191.641L280.411 140.826H216.845L173.256 191.641ZM280.411 191.014L308.26 224.263H324L296.757 191.014L322.789 158.392H308.26L280.411 191.014Z" fill="#FFDE16"/>
<path d="M245.904 191.641L244.766 192.617L243.928 191.641L244.766 190.664L245.904 191.641ZM289.492 242.455V243.955H288.803L288.354 243.432L289.492 242.455ZM313.708 242.455L314.867 241.503L316.883 243.955H313.708V242.455ZM271.936 191.641L270.777 192.593L269.994 191.641L270.777 190.688L271.936 191.641ZM313.708 140.826V139.326H316.883L314.867 141.779L313.708 140.826ZM289.492 140.826L288.354 139.85L288.803 139.326H289.492V140.826ZM173.256 191.641L172.117 192.617L171.28 191.641L172.117 190.664L173.256 191.641ZM216.845 242.455V243.955H216.155L215.706 243.432L216.845 242.455ZM280.411 242.455L281.536 241.463L283.733 243.955H280.411V242.455ZM235.612 191.641L234.487 192.633L233.613 191.641L234.487 190.649L235.612 191.641ZM280.411 140.826V139.326H283.733L281.536 141.818L280.411 140.826ZM216.845 140.826L215.706 139.85L216.155 139.326H216.845V140.826ZM280.411 191.014L279.261 191.977L278.447 191.005L279.27 190.04L280.411 191.014ZM308.26 224.263V225.763H307.559L307.11 225.226L308.26 224.263ZM324 224.263L325.16 223.312L327.168 225.763H324V224.263ZM296.757 191.014L295.597 191.964L294.828 191.026L295.584 190.078L296.757 191.014ZM322.789 158.392V156.892H325.905L323.962 159.327L322.789 158.392ZM308.26 158.392L307.119 157.418L307.568 156.892H308.26V158.392ZM245.904 191.641L247.043 190.664L290.631 241.479L289.492 242.455L288.354 243.432L244.766 192.617L245.904 191.641ZM289.492 242.455V240.955H313.708V242.455V243.955H289.492V242.455ZM313.708 242.455L312.549 243.408L270.777 192.593L271.936 191.641L273.094 190.688L314.867 241.503L313.708 242.455ZM271.936 191.641L270.777 190.688L312.549 139.874L313.708 140.826L314.867 141.779L273.094 192.593L271.936 191.641ZM313.708 140.826V142.326H289.492V140.826V139.326H313.708V140.826ZM289.492 140.826L290.631 141.803L247.043 192.617L245.904 191.641L244.766 190.664L288.354 139.85L289.492 140.826ZM173.256 191.641L174.394 190.664L217.983 241.479L216.845 242.455L215.706 243.432L172.117 192.617L173.256 191.641ZM216.845 242.455V240.955H280.411V242.455V243.955H216.845V242.455ZM280.411 242.455L279.286 243.447L234.487 192.633L235.612 191.641L236.737 190.649L281.536 241.463L280.411 242.455ZM235.612 191.641L234.487 190.649L279.286 139.834L280.411 140.826L281.536 141.818L236.737 192.633L235.612 191.641ZM280.411 140.826V142.326H216.845V140.826V139.326H280.411V140.826ZM216.845 140.826L217.983 141.803L174.394 192.617L173.256 191.641L172.117 190.664L215.706 139.85L216.845 140.826ZM280.411 191.014L281.561 190.051L309.41 223.3L308.26 224.263L307.11 225.226L279.261 191.977L280.411 191.014ZM308.26 224.263V222.763H324V224.263V225.763H308.26V224.263ZM324 224.263L322.84 225.214L295.597 191.964L296.757 191.014L297.917 190.063L325.16 223.312L324 224.263ZM296.757 191.014L295.584 190.078L321.617 157.456L322.789 158.392L323.962 159.327L297.929 191.949L296.757 191.014ZM322.789 158.392V159.892H308.26V158.392V156.892H322.789V158.392ZM308.26 158.392L309.401 159.366L281.552 191.988L280.411 191.014L279.27 190.04L307.119 157.418L308.26 158.392Z" fill="black"/>
<path d="M166.702 104.632L210.197 54.6055L210.197 26.8125L166.702 74.7549L123.207 26.8125L123.207 54.6055L166.702 104.632ZM166.702 188.011L210.197 137.983L210.197 65.0273L166.702 116.444L123.207 65.0273L123.207 137.983L166.702 188.011ZM166.165 65.0273L194.625 33.0654L194.625 15L166.165 46.2666L138.242 16.3896L138.242 33.0654L166.165 65.0273Z" fill="white"/>
<path d="M166.702 104.632L167.834 105.616L166.702 106.918L165.57 105.616L166.702 104.632ZM210.197 54.6055L211.697 54.6055L211.697 55.1664L211.329 55.5897L210.197 54.6055ZM210.197 26.8125L209.086 25.8046L211.697 22.9267L211.697 26.8125L210.197 26.8125ZM166.702 74.7549L167.813 75.7628L166.702 76.9873L165.591 75.7628L166.702 74.7549ZM123.207 26.8125L121.707 26.8125L121.707 22.9267L124.318 25.8046L123.207 26.8125ZM123.207 54.6055L122.075 55.5897L121.707 55.1664L121.707 54.6055L123.207 54.6055ZM166.702 188.011L167.834 188.995L166.702 190.297L165.57 188.995L166.702 188.011ZM210.197 137.983L211.697 137.983L211.697 138.544L211.329 138.968L210.197 137.983ZM210.197 65.0273L209.052 64.0586L211.697 60.9316L211.697 65.0273L210.197 65.0273ZM166.702 116.444L167.847 117.413L166.702 118.767L165.557 117.413L166.702 116.444ZM123.207 65.0273L121.707 65.0273L121.707 60.9316L124.352 64.0586L123.207 65.0273ZM123.207 137.983L122.075 138.968L121.707 138.544L121.707 137.983L123.207 137.983ZM166.165 65.0273L167.285 66.0249L166.154 67.295L165.035 66.0142L166.165 65.0273ZM194.625 33.0654L196.125 33.0654L196.125 33.6365L195.745 34.0629L194.625 33.0654ZM194.625 15L193.516 13.9903L196.125 11.1237L196.125 15L194.625 15ZM166.165 46.2666L167.274 47.2763L166.179 48.479L165.069 47.2908L166.165 46.2666ZM138.242 16.3896L136.742 16.3896L136.742 12.5879L139.338 15.3654L138.242 16.3896ZM138.242 33.0654L137.112 34.0523L136.742 33.6284L136.742 33.0654L138.242 33.0654ZM166.702 104.632L165.57 103.648L209.065 53.6213L210.197 54.6055L211.329 55.5897L167.834 105.616L166.702 104.632ZM210.197 54.6055L208.697 54.6055L208.697 26.8125L210.197 26.8125L211.697 26.8125L211.697 54.6055L210.197 54.6055ZM210.197 26.8125L211.308 27.8204L167.813 75.7628L166.702 74.7549L165.591 73.747L209.086 25.8046L210.197 26.8125ZM166.702 74.7549L165.591 75.7628L122.096 27.8204L123.207 26.8125L124.318 25.8046L167.813 73.747L166.702 74.7549ZM123.207 26.8125L124.707 26.8125L124.707 54.6055L123.207 54.6055L121.707 54.6055L121.707 26.8125L123.207 26.8125ZM123.207 54.6055L124.339 53.6213L167.834 103.648L166.702 104.632L165.57 105.616L122.075 55.5897L123.207 54.6055ZM166.702 188.011L165.57 187.027L209.065 136.999L210.197 137.983L211.329 138.968L167.834 188.995L166.702 188.011ZM210.197 137.983L208.697 137.983L208.697 65.0273L210.197 65.0273L211.697 65.0273L211.697 137.983L210.197 137.983ZM210.197 65.0273L211.342 65.9961L167.847 117.413L166.702 116.444L165.557 115.476L209.052 64.0586L210.197 65.0273ZM166.702 116.444L165.557 117.413L122.062 65.9961L123.207 65.0273L124.352 64.0586L167.847 115.476L166.702 116.444ZM123.207 65.0273L124.707 65.0273L124.707 137.983L123.207 137.983L121.707 137.983L121.707 65.0273L123.207 65.0273ZM123.207 137.983L124.339 136.999L167.834 187.027L166.702 188.011L165.57 188.995L122.075 138.968L123.207 137.983ZM166.165 65.0273L165.045 64.0298L193.505 32.0679L194.625 33.0654L195.745 34.0629L167.285 66.0249L166.165 65.0273ZM194.625 33.0654L193.125 33.0654L193.125 15L194.625 15L196.125 15L196.125 33.0654L194.625 33.0654ZM194.625 15L195.734 16.0097L167.274 47.2763L166.165 46.2666L165.056 45.2569L193.516 13.9903L194.625 15ZM166.165 46.2666L165.069 47.2908L137.146 17.4139L138.242 16.3896L139.338 15.3654L167.261 45.2424L166.165 46.2666ZM138.242 16.3896L139.742 16.3896L139.742 33.0654L138.242 33.0654L136.742 33.0654L136.742 16.3896L138.242 16.3896ZM138.242 33.0654L139.372 32.0786L167.294 64.0405L166.165 65.0273L165.035 66.0142L137.112 34.0523L138.242 33.0654Z" fill="black"/>
<path d="M166.702 319.887L210.197 368.864L210.197 396.074L166.702 349.138L123.207 396.074L123.207 368.864L166.702 319.887ZM166.702 284.159L210.197 333.137L210.197 360.347L166.702 313.41L123.207 360.347L123.207 333.137L166.702 284.159ZM166.702 202.529L210.197 251.508L210.197 322.934L166.702 272.595L123.207 322.934L123.207 251.508L166.702 202.529ZM166.165 361.022L194.625 392.313L194.625 410L166.165 379.389L138.242 408.64L138.242 392.313L166.165 361.022Z" fill="black"/>
<path d="M166.702 319.887L167.824 318.891L166.702 317.628L165.58 318.891L166.702 319.887ZM210.197 368.864L211.697 368.864L211.697 368.294L211.319 367.868L210.197 368.864ZM210.197 396.074L209.097 397.094L211.697 399.9L211.697 396.074L210.197 396.074ZM166.702 349.138L167.802 348.118L166.702 346.931L165.602 348.118L166.702 349.138ZM123.207 396.074L121.707 396.074L121.707 399.9L124.307 397.094L123.207 396.074ZM123.207 368.864L122.085 367.868L121.707 368.294L121.707 368.864L123.207 368.864ZM166.702 284.159L167.824 283.163L166.702 281.9L165.58 283.163L166.702 284.159ZM210.197 333.137L211.697 333.137L211.697 332.567L211.319 332.141L210.197 333.137ZM210.197 360.347L209.097 361.366L211.697 364.172L211.697 360.347L210.197 360.347ZM166.702 313.41L167.802 312.391L166.702 311.203L165.602 312.391L166.702 313.41ZM123.207 360.347L121.707 360.347L121.707 364.172L124.307 361.366L123.207 360.347ZM123.207 333.137L122.085 332.141L121.707 332.567L121.707 333.137L123.207 333.137ZM166.702 202.529L167.824 201.533L166.702 200.27L165.58 201.533L166.702 202.529ZM210.197 251.508L211.697 251.508L211.697 250.938L211.319 250.512L210.197 251.508ZM210.197 322.934L209.062 323.914L211.697 326.964L211.697 322.934L210.197 322.934ZM166.702 272.595L167.837 271.614L166.702 270.3L165.567 271.614L166.702 272.595ZM123.207 322.934L121.707 322.934L121.707 326.964L124.342 323.914L123.207 322.934ZM123.207 251.508L122.085 250.512L121.707 250.938L121.707 251.508L123.207 251.508ZM166.165 361.022L167.275 360.013L166.154 358.781L165.046 360.024L166.165 361.022ZM194.625 392.313L196.125 392.313L196.125 391.733L195.734 391.304L194.625 392.313ZM194.625 410L193.526 411.021L196.125 413.816L196.125 410L194.625 410ZM166.165 379.389L167.263 378.367L166.179 377.201L165.08 378.353L166.165 379.389ZM138.242 408.64L136.742 408.64L136.742 412.383L139.327 409.675L138.242 408.64ZM138.242 392.313L137.123 391.315L136.742 391.742L136.742 392.313L138.242 392.313ZM166.702 319.887L165.58 320.883L209.076 369.86L210.197 368.864L211.319 367.868L167.824 318.891L166.702 319.887ZM210.197 368.864L208.697 368.864L208.697 396.074L210.197 396.074L211.697 396.074L211.697 368.864L210.197 368.864ZM210.197 396.074L211.297 395.055L167.802 348.118L166.702 349.138L165.602 350.157L209.097 397.094L210.197 396.074ZM166.702 349.138L165.602 348.118L122.107 395.055L123.207 396.074L124.307 397.094L167.802 350.157L166.702 349.138ZM123.207 396.074L124.707 396.074L124.707 368.864L123.207 368.864L121.707 368.864L121.707 396.074L123.207 396.074ZM123.207 368.864L124.328 369.86L167.824 320.883L166.702 319.887L165.58 318.891L122.085 367.868L123.207 368.864ZM166.702 284.159L165.58 285.155L209.076 334.133L210.197 333.137L211.319 332.141L167.824 283.163L166.702 284.159ZM210.197 333.137L208.697 333.137L208.697 360.347L210.197 360.347L211.697 360.347L211.697 333.137L210.197 333.137ZM210.197 360.347L211.297 359.327L167.802 312.391L166.702 313.41L165.602 314.43L209.097 361.366L210.197 360.347ZM166.702 313.41L165.602 312.391L122.107 359.327L123.207 360.347L124.307 361.366L167.802 314.43L166.702 313.41ZM123.207 360.347L124.707 360.347L124.707 333.137L123.207 333.137L121.707 333.137L121.707 360.347L123.207 360.347ZM123.207 333.137L124.328 334.133L167.824 285.155L166.702 284.159L165.58 283.163L122.085 332.141L123.207 333.137ZM166.702 202.529L165.58 203.525L209.076 252.504L210.197 251.508L211.319 250.512L167.824 201.533L166.702 202.529ZM210.197 251.508L208.697 251.508L208.697 322.934L210.197 322.934L211.697 322.934L211.697 251.508L210.197 251.508ZM210.197 322.934L211.332 321.953L167.837 271.614L166.702 272.595L165.567 273.575L209.062 323.914L210.197 322.934ZM166.702 272.595L165.567 271.614L122.072 321.953L123.207 322.934L124.342 323.914L167.837 273.575L166.702 272.595ZM123.207 322.934L124.707 322.934L124.707 251.508L123.207 251.508L121.707 251.508L121.707 322.934L123.207 322.934ZM123.207 251.508L124.328 252.504L167.824 203.525L166.702 202.529L165.58 201.533L122.085 250.512L123.207 251.508ZM166.165 361.022L165.055 362.032L193.515 393.323L194.625 392.313L195.734 391.304L167.275 360.013L166.165 361.022ZM194.625 392.313L193.125 392.313L193.125 410L194.625 410L196.125 410L196.125 392.313L194.625 392.313ZM194.625 410L195.723 408.979L167.263 378.367L166.165 379.389L165.066 380.41L193.526 411.021L194.625 410ZM166.165 379.389L165.08 378.353L137.157 407.604L138.242 408.64L139.327 409.675L167.25 380.424L166.165 379.389ZM138.242 408.64L139.742 408.64L139.742 392.313L138.242 392.313L136.742 392.313L136.742 408.64L138.242 408.64ZM138.242 392.313L139.361 393.312L167.284 362.021L166.165 361.022L165.046 360.024L137.123 391.315L138.242 392.313Z" fill="white"/>
</g>
<defs>
<clipPath id="clip0_1606_127">
<rect width="933" height="425" fill="white"/>
</clipPath>
</defs>
</svg>
