<svg width="940" height="419" viewBox="0 0 940 419" fill="none" xmlns="http://www.w3.org/2000/svg">
<g clip-path="url(#clip0_1621_138)">
<path d="M369.692 122C369.152 122 368.666 121.838 368.234 121.514C367.91 121.082 367.748 120.596 367.748 120.056V10.544C367.748 10.004 367.91 9.57201 368.234 9.248C368.666 8.816 369.152 8.6 369.692 8.6H384.596C385.136 8.6 385.568 8.816 385.892 9.248C386.324 9.57201 386.54 10.004 386.54 10.544V104.99C386.54 105.53 386.81 105.8 387.35 105.8H422.342C422.882 105.8 423.314 106.016 423.638 106.448C424.07 106.772 424.286 107.204 424.286 107.744V120.056C424.286 120.596 424.07 121.082 423.638 121.514C423.314 121.838 422.882 122 422.342 122H369.692ZM459.365 123.296C450.077 123.296 442.625 120.326 437.009 114.386C431.501 108.338 428.747 100.4 428.747 90.572V10.544C428.747 10.004 428.909 9.57201 429.233 9.248C429.665 8.816 430.151 8.6 430.691 8.6H445.595C446.135 8.6 446.567 8.816 446.891 9.248C447.323 9.57201 447.539 10.004 447.539 10.544V92.516C447.539 96.836 448.619 100.346 450.779 103.046C452.939 105.746 455.801 107.096 459.365 107.096C462.929 107.096 465.791 105.746 467.951 103.046C470.111 100.346 471.191 96.836 471.191 92.516V10.544C471.191 10.004 471.353 9.57201 471.677 9.248C472.109 8.816 472.595 8.6 473.135 8.6H488.039C488.579 8.6 489.011 8.816 489.335 9.248C489.767 9.57201 489.983 10.004 489.983 10.544V90.572C489.983 100.4 487.175 108.338 481.559 114.386C475.943 120.326 468.545 123.296 459.365 123.296ZM559.326 8.6C559.866 8.6 560.298 8.816 560.622 9.248C561.054 9.57201 561.27 10.004 561.27 10.544V22.856C561.27 23.396 561.054 23.882 560.622 24.314C560.298 24.638 559.866 24.8 559.326 24.8H538.752C538.212 24.8 537.942 25.07 537.942 25.61V120.056C537.942 120.596 537.726 121.082 537.294 121.514C536.97 121.838 536.538 122 535.998 122H521.094C520.554 122 520.068 121.838 519.636 121.514C519.312 121.082 519.15 120.596 519.15 120.056V25.61C519.15 25.07 518.88 24.8 518.34 24.8H498.9C498.36 24.8 497.874 24.638 497.442 24.314C497.118 23.882 496.956 23.396 496.956 22.856V10.544C496.956 10.004 497.118 9.57201 497.442 9.248C497.874 8.816 498.36 8.6 498.9 8.6H559.326ZM609.813 10.544C609.813 10.004 609.975 9.57201 610.299 9.248C610.731 8.816 611.217 8.6 611.757 8.6H626.661C627.201 8.6 627.633 8.816 627.957 9.248C628.389 9.57201 628.605 10.004 628.605 10.544V120.056C628.605 120.596 628.389 121.082 627.957 121.514C627.633 121.838 627.201 122 626.661 122H611.757C611.217 122 610.731 121.838 610.299 121.514C609.975 121.082 609.813 120.596 609.813 120.056V74.21C609.813 73.67 609.543 73.4 609.003 73.4H588.429C587.889 73.4 587.619 73.67 587.619 74.21V120.056C587.619 120.596 587.403 121.082 586.971 121.514C586.647 121.838 586.215 122 585.675 122H570.771C570.231 122 569.745 121.838 569.313 121.514C568.989 121.082 568.827 120.596 568.827 120.056V10.544C568.827 10.004 568.989 9.57201 569.313 9.248C569.745 8.816 570.231 8.6 570.771 8.6H585.675C586.215 8.6 586.647 8.816 586.971 9.248C587.403 9.57201 587.619 10.004 587.619 10.544V56.228C587.619 56.768 587.889 57.038 588.429 57.038H609.003C609.543 57.038 609.813 56.768 609.813 56.228V10.544ZM696.346 22.856C696.346 23.396 696.13 23.882 695.698 24.314C695.374 24.638 694.942 24.8 694.402 24.8H659.41C658.87 24.8 658.6 25.07 658.6 25.61V56.228C658.6 56.768 658.87 57.038 659.41 57.038H680.146C680.686 57.038 681.118 57.254 681.442 57.686C681.874 58.01 682.09 58.442 682.09 58.982V71.456C682.09 71.996 681.874 72.482 681.442 72.914C681.118 73.238 680.686 73.4 680.146 73.4H659.41C658.87 73.4 658.6 73.67 658.6 74.21V104.99C658.6 105.53 658.87 105.8 659.41 105.8H694.402C694.942 105.8 695.374 106.016 695.698 106.448C696.13 106.772 696.346 107.204 696.346 107.744V120.056C696.346 120.596 696.13 121.082 695.698 121.514C695.374 121.838 694.942 122 694.402 122H641.752C641.212 122 640.726 121.838 640.294 121.514C639.97 121.082 639.808 120.596 639.808 120.056V10.544C639.808 10.004 639.97 9.57201 640.294 9.248C640.726 8.816 641.212 8.6 641.752 8.6H694.402C694.942 8.6 695.374 8.816 695.698 9.248C696.13 9.57201 696.346 10.004 696.346 10.544V22.856ZM749.493 122C748.413 122 747.711 121.46 747.387 120.38L733.617 73.886C733.401 73.454 733.131 73.238 732.807 73.238H724.221C723.681 73.238 723.411 73.508 723.411 74.048V120.056C723.411 120.596 723.195 121.082 722.763 121.514C722.439 121.838 722.007 122 721.467 122H706.563C706.023 122 705.537 121.838 705.105 121.514C704.781 121.082 704.619 120.596 704.619 120.056V10.544C704.619 10.004 704.781 9.57201 705.105 9.248C705.537 8.816 706.023 8.6 706.563 8.6H737.019C742.743 8.6 747.765 10.004 752.085 12.812C756.513 15.512 759.915 19.4 762.291 24.476C764.775 29.444 766.017 35.168 766.017 41.648C766.017 48.344 764.721 54.122 762.129 58.982C759.537 63.842 755.919 67.514 751.275 69.998C750.843 70.106 750.681 70.43 750.789 70.97L766.665 119.732C766.773 119.948 766.827 120.218 766.827 120.542C766.827 121.514 766.233 122 765.045 122H749.493ZM724.221 24.8C723.681 24.8 723.411 25.07 723.411 25.61V57.848C723.411 58.388 723.681 58.658 724.221 58.658H734.103C737.991 58.658 741.123 57.146 743.499 54.122C745.983 51.098 747.225 46.994 747.225 41.81C747.225 36.626 745.983 32.522 743.499 29.498C741.123 26.366 737.991 24.8 734.103 24.8H724.221ZM820.976 122C819.68 122 818.978 121.406 818.87 120.218L815.792 103.208C815.792 102.668 815.468 102.398 814.82 102.398H791.168C790.52 102.398 790.196 102.668 790.196 103.208L787.118 120.218C787.01 121.406 786.308 122 785.012 122H770.27C768.758 122 768.164 121.298 768.488 119.894L792.464 10.382C792.68 9.194 793.382 8.6 794.57 8.6H811.742C812.93 8.6 813.632 9.194 813.848 10.382L837.824 119.894V120.542C837.824 121.514 837.23 122 836.042 122H820.976ZM793.112 86.846C793.004 87.386 793.274 87.656 793.922 87.656H811.904C812.552 87.656 812.822 87.386 812.714 86.846L803.318 35.654C803.21 35.33 803.048 35.168 802.832 35.168C802.616 35.168 802.454 35.33 802.346 35.654L793.112 86.846ZM889.268 10.544C889.268 10.004 889.43 9.57201 889.754 9.248C890.186 8.816 890.672 8.6 891.212 8.6H905.954C906.494 8.6 906.926 8.816 907.25 9.248C907.682 9.57201 907.898 10.004 907.898 10.544V120.056C907.898 120.596 907.682 121.082 907.25 121.514C906.926 121.838 906.494 122 905.954 122H888.944C887.864 122 887.162 121.46 886.838 120.38L862.7 51.692C862.592 51.368 862.376 51.26 862.052 51.368C861.836 51.368 861.728 51.53 861.728 51.854L861.89 120.056C861.89 120.596 861.674 121.082 861.242 121.514C860.918 121.838 860.486 122 859.946 122H845.204C844.664 122 844.178 121.838 843.746 121.514C843.422 121.082 843.26 120.596 843.26 120.056V10.544C843.26 10.004 843.422 9.57201 843.746 9.248C844.178 8.816 844.664 8.6 845.204 8.6H861.89C862.97 8.6 863.672 9.14 863.996 10.22L888.296 78.422C888.404 78.746 888.566 78.908 888.782 78.908C889.106 78.8 889.268 78.584 889.268 78.26V10.544Z" fill="white"/>
<path d="M369.692 260C369.152 260 368.666 259.838 368.234 259.514C367.91 259.082 367.748 258.596 367.748 258.056V148.544C367.748 148.004 367.91 147.572 368.234 147.248C368.666 146.816 369.152 146.6 369.692 146.6H384.596C385.136 146.6 385.568 146.816 385.892 147.248C386.324 147.572 386.54 148.004 386.54 148.544V258.056C386.54 258.596 386.324 259.082 385.892 259.514C385.568 259.838 385.136 260 384.596 260H369.692ZM441.885 148.544C441.885 148.004 442.047 147.572 442.371 147.248C442.803 146.816 443.289 146.6 443.829 146.6H458.571C459.111 146.6 459.543 146.816 459.867 147.248C460.299 147.572 460.515 148.004 460.515 148.544V258.056C460.515 258.596 460.299 259.082 459.867 259.514C459.543 259.838 459.111 260 458.571 260H441.561C440.481 260 439.779 259.46 439.455 258.38L415.317 189.692C415.209 189.368 414.993 189.26 414.669 189.368C414.453 189.368 414.345 189.53 414.345 189.854L414.507 258.056C414.507 258.596 414.291 259.082 413.859 259.514C413.535 259.838 413.103 260 412.563 260H397.821C397.281 260 396.795 259.838 396.363 259.514C396.039 259.082 395.877 258.596 395.877 258.056V148.544C395.877 148.004 396.039 147.572 396.363 147.248C396.795 146.816 397.281 146.6 397.821 146.6H414.507C415.587 146.6 416.289 147.14 416.613 148.22L440.913 216.422C441.021 216.746 441.183 216.908 441.399 216.908C441.723 216.8 441.885 216.584 441.885 216.26V148.544ZM471.828 260C471.288 260 470.802 259.838 470.37 259.514C470.046 259.082 469.884 258.596 469.884 258.056V148.544C469.884 148.004 470.046 147.572 470.37 147.248C470.802 146.816 471.288 146.6 471.828 146.6H499.53C508.818 146.6 516.216 149.408 521.724 155.024C527.34 160.64 530.148 168.146 530.148 177.542V229.058C530.148 238.454 527.34 245.96 521.724 251.576C516.216 257.192 508.818 260 499.53 260H471.828ZM488.676 242.99C488.676 243.53 488.946 243.8 489.486 243.8L499.206 243.638C502.77 243.638 505.632 242.234 507.792 239.426C510.06 236.51 511.248 232.676 511.356 227.924V178.676C511.356 173.816 510.222 169.982 507.954 167.174C505.794 164.258 502.824 162.8 499.044 162.8H489.486C488.946 162.8 488.676 163.07 488.676 163.61V242.99ZM540.14 260C539.6 260 539.114 259.838 538.682 259.514C538.358 259.082 538.196 258.596 538.196 258.056V148.544C538.196 148.004 538.358 147.572 538.682 147.248C539.114 146.816 539.6 146.6 540.14 146.6H555.044C555.584 146.6 556.016 146.816 556.34 147.248C556.772 147.572 556.988 148.004 556.988 148.544V258.056C556.988 258.596 556.772 259.082 556.34 259.514C556.016 259.838 555.584 260 555.044 260H540.14ZM612.333 260C611.037 260 610.335 259.406 610.227 258.218L607.149 241.208C607.149 240.668 606.825 240.398 606.177 240.398H582.525C581.877 240.398 581.553 240.668 581.553 241.208L578.475 258.218C578.367 259.406 577.665 260 576.369 260H561.627C560.115 260 559.521 259.298 559.845 257.894L583.821 148.382C584.037 147.194 584.739 146.6 585.927 146.6H603.099C604.287 146.6 604.989 147.194 605.205 148.382L629.181 257.894V258.542C629.181 259.514 628.587 260 627.399 260H612.333ZM584.469 224.846C584.361 225.386 584.631 225.656 585.279 225.656H603.261C603.909 225.656 604.179 225.386 604.071 224.846L594.675 173.654C594.567 173.33 594.405 173.168 594.189 173.168C593.973 173.168 593.811 173.33 593.703 173.654L584.469 224.846ZM678.113 148.544C678.113 148.004 678.275 147.572 678.599 147.248C679.031 146.816 679.517 146.6 680.057 146.6H694.799C695.339 146.6 695.771 146.816 696.095 147.248C696.527 147.572 696.743 148.004 696.743 148.544V258.056C696.743 258.596 696.527 259.082 696.095 259.514C695.771 259.838 695.339 260 694.799 260H677.789C676.709 260 676.007 259.46 675.683 258.38L651.545 189.692C651.437 189.368 651.221 189.26 650.897 189.368C650.681 189.368 650.573 189.53 650.573 189.854L650.735 258.056C650.735 258.596 650.519 259.082 650.087 259.514C649.763 259.838 649.331 260 648.791 260H634.049C633.509 260 633.023 259.838 632.591 259.514C632.267 259.082 632.105 258.596 632.105 258.056V148.544C632.105 148.004 632.267 147.572 632.591 147.248C633.023 146.816 633.509 146.6 634.049 146.6H650.735C651.815 146.6 652.517 147.14 652.841 148.22L677.141 216.422C677.249 216.746 677.411 216.908 677.627 216.908C677.951 216.8 678.113 216.584 678.113 216.26V148.544Z" fill="white"/>
<path d="M418.616 291.896C419.156 291.032 419.966 290.6 421.046 290.6H435.95C436.49 290.6 436.922 290.816 437.246 291.248C437.678 291.572 437.894 292.004 437.894 292.544V402.056C437.894 402.596 437.678 403.082 437.246 403.514C436.922 403.838 436.49 404 435.95 404H421.046C420.506 404 420.02 403.838 419.588 403.514C419.264 403.082 419.102 402.596 419.102 402.056V325.592C419.102 325.16 418.994 324.944 418.778 324.944C418.562 324.944 418.346 325.106 418.13 325.43L404.036 351.026C403.496 351.89 403.01 352.322 402.578 352.322C402.146 352.322 401.66 351.89 401.12 351.026L387.026 325.43C386.81 325.106 386.594 324.944 386.378 324.944C386.162 324.944 386.054 325.16 386.054 325.592V402.056C386.054 402.596 385.838 403.082 385.406 403.514C385.082 403.838 384.65 404 384.11 404H369.206C368.666 404 368.18 403.838 367.748 403.514C367.424 403.082 367.262 402.596 367.262 402.056V292.544C367.262 292.004 367.424 291.572 367.748 291.248C368.18 290.816 368.666 290.6 369.206 290.6H384.11C385.19 290.6 386 291.032 386.54 291.896L402.254 319.598C402.578 320.03 402.902 320.03 403.226 319.598L418.616 291.896ZM447.952 404C447.412 404 446.926 403.838 446.494 403.514C446.17 403.082 446.008 402.596 446.008 402.056V292.544C446.008 292.004 446.17 291.572 446.494 291.248C446.926 290.816 447.412 290.6 447.952 290.6H462.856C463.396 290.6 463.828 290.816 464.152 291.248C464.584 291.572 464.8 292.004 464.8 292.544V402.056C464.8 402.596 464.584 403.082 464.152 403.514C463.828 403.838 463.396 404 462.856 404H447.952ZM519.334 292.544C519.334 292.004 519.496 291.572 519.82 291.248C520.252 290.816 520.738 290.6 521.278 290.6H536.02C536.56 290.6 536.992 290.816 537.316 291.248C537.748 291.572 537.964 292.004 537.964 292.544V402.056C537.964 402.596 537.748 403.082 537.316 403.514C536.992 403.838 536.56 404 536.02 404H519.01C517.93 404 517.228 403.46 516.904 402.38L492.766 333.692C492.658 333.368 492.442 333.26 492.118 333.368C491.902 333.368 491.794 333.53 491.794 333.854L491.956 402.056C491.956 402.596 491.74 403.082 491.308 403.514C490.984 403.838 490.552 404 490.012 404H475.27C474.73 404 474.244 403.838 473.812 403.514C473.488 403.082 473.326 402.596 473.326 402.056V292.544C473.326 292.004 473.488 291.572 473.812 291.248C474.244 290.816 474.73 290.6 475.27 290.6H491.956C493.036 290.6 493.738 291.14 494.062 292.22L518.362 360.422C518.47 360.746 518.632 360.908 518.848 360.908C519.172 360.8 519.334 360.584 519.334 360.26V292.544ZM548.468 404C547.928 404 547.442 403.838 547.01 403.514C546.686 403.082 546.524 402.596 546.524 402.056V292.544C546.524 292.004 546.686 291.572 547.01 291.248C547.442 290.816 547.928 290.6 548.468 290.6H563.372C563.912 290.6 564.344 290.816 564.668 291.248C565.1 291.572 565.316 292.004 565.316 292.544V402.056C565.316 402.596 565.1 403.082 564.668 403.514C564.344 403.838 563.912 404 563.372 404H548.468ZM600.572 405.296C591.608 405.296 584.372 402.596 578.864 397.196C573.356 391.796 570.602 384.722 570.602 375.974V371.762C570.602 371.222 570.764 370.79 571.088 370.466C571.52 370.034 572.006 369.818 572.546 369.818H587.288C587.828 369.818 588.26 370.034 588.584 370.466C589.016 370.79 589.232 371.222 589.232 371.762V375.002C589.232 379.214 590.258 382.616 592.31 385.208C594.47 387.8 597.224 389.096 600.572 389.096C603.92 389.096 606.674 387.908 608.834 385.532C610.994 383.048 612.074 379.808 612.074 375.812C612.074 373.004 611.48 370.574 610.292 368.522C609.104 366.47 607.43 364.526 605.27 362.69C603.11 360.854 599.654 358.208 594.902 354.752C589.502 350.864 585.128 347.408 581.78 344.384C578.54 341.36 575.786 337.742 573.518 333.53C571.358 329.21 570.278 324.242 570.278 318.626C570.278 309.662 572.978 302.534 578.378 297.242C583.778 291.95 590.906 289.304 599.762 289.304C608.726 289.304 615.962 292.112 621.47 297.728C626.978 303.236 629.732 310.58 629.732 319.76V323.648C629.732 324.188 629.516 324.674 629.084 325.106C628.76 325.43 628.328 325.592 627.788 325.592H613.208C612.668 325.592 612.182 325.43 611.75 325.106C611.426 324.674 611.264 324.188 611.264 323.648V319.436C611.264 315.224 610.184 311.876 608.024 309.392C605.972 306.8 603.218 305.504 599.762 305.504C596.522 305.504 593.876 306.692 591.824 309.068C589.772 311.336 588.746 314.522 588.746 318.626C588.746 322.514 589.826 325.808 591.986 328.508C594.254 331.208 598.628 334.934 605.108 339.686C611.696 344.546 616.664 348.542 620.012 351.674C623.36 354.698 625.952 358.046 627.788 361.718C629.624 365.39 630.542 369.764 630.542 374.84C630.542 384.02 627.788 391.418 622.28 397.034C616.772 402.542 609.536 405.296 600.572 405.296ZM691.909 290.6C692.449 290.6 692.881 290.816 693.205 291.248C693.637 291.572 693.853 292.004 693.853 292.544V304.856C693.853 305.396 693.637 305.882 693.205 306.314C692.881 306.638 692.449 306.8 691.909 306.8H671.335C670.795 306.8 670.525 307.07 670.525 307.61V402.056C670.525 402.596 670.309 403.082 669.877 403.514C669.553 403.838 669.121 404 668.581 404H653.677C653.137 404 652.651 403.838 652.219 403.514C651.895 403.082 651.733 402.596 651.733 402.056V307.61C651.733 307.07 651.463 306.8 650.923 306.8H631.483C630.943 306.8 630.457 306.638 630.025 306.314C629.701 305.882 629.539 305.396 629.539 304.856V292.544C629.539 292.004 629.701 291.572 630.025 291.248C630.457 290.816 630.943 290.6 631.483 290.6H691.909ZM742.963 404C741.883 404 741.181 403.46 740.857 402.38L727.087 355.886C726.871 355.454 726.601 355.238 726.277 355.238H717.691C717.151 355.238 716.881 355.508 716.881 356.048V402.056C716.881 402.596 716.665 403.082 716.233 403.514C715.909 403.838 715.477 404 714.937 404H700.033C699.493 404 699.007 403.838 698.575 403.514C698.251 403.082 698.089 402.596 698.089 402.056V292.544C698.089 292.004 698.251 291.572 698.575 291.248C699.007 290.816 699.493 290.6 700.033 290.6H730.489C736.213 290.6 741.235 292.004 745.555 294.812C749.983 297.512 753.385 301.4 755.761 306.476C758.245 311.444 759.487 317.168 759.487 323.648C759.487 330.344 758.191 336.122 755.599 340.982C753.007 345.842 749.389 349.514 744.745 351.998C744.313 352.106 744.151 352.43 744.259 352.97L760.135 401.732C760.243 401.948 760.297 402.218 760.297 402.542C760.297 403.514 759.703 404 758.515 404H742.963ZM717.691 306.8C717.151 306.8 716.881 307.07 716.881 307.61V339.848C716.881 340.388 717.151 340.658 717.691 340.658H727.573C731.461 340.658 734.593 339.146 736.969 336.122C739.453 333.098 740.695 328.994 740.695 323.81C740.695 318.626 739.453 314.522 736.969 311.498C734.593 308.366 731.461 306.8 727.573 306.8H717.691ZM765.795 404C765.255 404 764.769 403.838 764.337 403.514C764.013 403.082 763.851 402.596 763.851 402.056V292.544C763.851 292.004 764.013 291.572 764.337 291.248C764.769 290.816 765.255 290.6 765.795 290.6H780.699C781.239 290.6 781.671 290.816 781.995 291.248C782.427 291.572 782.643 292.004 782.643 292.544V402.056C782.643 402.596 782.427 403.082 781.995 403.514C781.671 403.838 781.239 404 780.699 404H765.795ZM847.707 304.856C847.707 305.396 847.491 305.882 847.059 306.314C846.735 306.638 846.303 306.8 845.763 306.8H810.771C810.231 306.8 809.961 307.07 809.961 307.61V338.228C809.961 338.768 810.231 339.038 810.771 339.038H831.507C832.047 339.038 832.479 339.254 832.803 339.686C833.235 340.01 833.451 340.442 833.451 340.982V353.456C833.451 353.996 833.235 354.482 832.803 354.914C832.479 355.238 832.047 355.4 831.507 355.4H810.771C810.231 355.4 809.961 355.67 809.961 356.21V386.99C809.961 387.53 810.231 387.8 810.771 387.8H845.763C846.303 387.8 846.735 388.016 847.059 388.448C847.491 388.772 847.707 389.204 847.707 389.744V402.056C847.707 402.596 847.491 403.082 847.059 403.514C846.735 403.838 846.303 404 845.763 404H793.113C792.573 404 792.087 403.838 791.655 403.514C791.331 403.082 791.169 402.596 791.169 402.056V292.544C791.169 292.004 791.331 291.572 791.655 291.248C792.087 290.816 792.573 290.6 793.113 290.6H845.763C846.303 290.6 846.735 290.816 847.059 291.248C847.491 291.572 847.707 292.004 847.707 292.544V304.856ZM879.39 405.296C870.426 405.296 863.19 402.596 857.682 397.196C852.174 391.796 849.42 384.722 849.42 375.974V371.762C849.42 371.222 849.582 370.79 849.906 370.466C850.338 370.034 850.824 369.818 851.364 369.818H866.106C866.646 369.818 867.078 370.034 867.402 370.466C867.834 370.79 868.05 371.222 868.05 371.762V375.002C868.05 379.214 869.076 382.616 871.128 385.208C873.288 387.8 876.042 389.096 879.39 389.096C882.738 389.096 885.492 387.908 887.652 385.532C889.812 383.048 890.892 379.808 890.892 375.812C890.892 373.004 890.298 370.574 889.11 368.522C887.922 366.47 886.248 364.526 884.088 362.69C881.928 360.854 878.472 358.208 873.72 354.752C868.32 350.864 863.946 347.408 860.598 344.384C857.358 341.36 854.604 337.742 852.336 333.53C850.176 329.21 849.096 324.242 849.096 318.626C849.096 309.662 851.796 302.534 857.196 297.242C862.596 291.95 869.724 289.304 878.58 289.304C887.544 289.304 894.78 292.112 900.288 297.728C905.796 303.236 908.55 310.58 908.55 319.76V323.648C908.55 324.188 908.334 324.674 907.902 325.106C907.578 325.43 907.146 325.592 906.606 325.592H892.026C891.486 325.592 891 325.43 890.568 325.106C890.244 324.674 890.082 324.188 890.082 323.648V319.436C890.082 315.224 889.002 311.876 886.842 309.392C884.79 306.8 882.036 305.504 878.58 305.504C875.34 305.504 872.694 306.692 870.642 309.068C868.59 311.336 867.564 314.522 867.564 318.626C867.564 322.514 868.644 325.808 870.804 328.508C873.072 331.208 877.446 334.934 883.926 339.686C890.514 344.546 895.482 348.542 898.83 351.674C902.178 354.698 904.77 358.046 906.606 361.718C908.442 365.39 909.36 369.764 909.36 374.84C909.36 384.02 906.606 391.418 901.098 397.034C895.59 402.542 888.354 405.296 879.39 405.296Z" fill="white"/>
<path d="M91.7139 189.85L47.7803 239.455H23.373L65.4756 189.85L23.373 140.246H47.7803L91.7139 189.85ZM164.936 189.85L121.002 239.455H56.9336L102.087 189.85L56.9336 140.246H121.002L164.936 189.85ZM56.9336 189.238L28.8652 221.695H13L40.458 189.238L14.2207 157.393H28.8652L56.9336 189.238Z" fill="#ED1C24"/>
<path d="M91.7139 189.85L92.8368 190.845L93.7176 189.85L92.8368 188.856L91.7139 189.85ZM47.7803 239.455V240.955H48.4555L48.9032 240.449L47.7803 239.455ZM23.373 239.455L22.2294 238.484L20.1324 240.955H23.373V239.455ZM65.4756 189.85L66.6192 190.821L67.443 189.85L66.6192 188.88L65.4756 189.85ZM23.373 140.246V138.746H20.1324L22.2294 141.217L23.373 140.246ZM47.7803 140.246L48.9032 139.251L48.4555 138.746H47.7803V140.246ZM164.936 189.85L166.058 190.845L166.939 189.85L166.058 188.856L164.936 189.85ZM121.002 239.455V240.955H121.677L122.125 240.449L121.002 239.455ZM56.9336 239.455L55.8243 238.445L53.5398 240.955H56.9336V239.455ZM102.087 189.85L103.196 190.86L104.115 189.85L103.196 188.841L102.087 189.85ZM56.9336 140.246V138.746H53.5398L55.8243 141.256L56.9336 140.246ZM121.002 140.246L122.125 139.251L121.677 138.746H121.002V140.246ZM56.9336 189.238L58.0682 190.219L58.9248 189.229L58.0589 188.246L56.9336 189.238ZM28.8652 221.695V223.195H29.5512L29.9998 222.676L28.8652 221.695ZM13 221.695L11.8548 220.726L9.76627 223.195H13V221.695ZM40.458 189.238L41.6032 190.207L42.412 189.251L41.6157 188.284L40.458 189.238ZM14.2207 157.393V155.893H11.0413L13.063 158.347L14.2207 157.393ZM28.8652 157.393L29.9905 156.402L29.5426 155.893H28.8652V157.393ZM91.7139 189.85L90.591 188.856L46.6574 238.46L47.7803 239.455L48.9032 240.449L92.8368 190.845L91.7139 189.85ZM47.7803 239.455V237.955H23.373V239.455V240.955H47.7803V239.455ZM23.373 239.455L24.5167 240.426L66.6192 190.821L65.4756 189.85L64.332 188.88L22.2294 238.484L23.373 239.455ZM65.4756 189.85L66.6192 188.88L24.5167 139.275L23.373 140.246L22.2294 141.217L64.332 190.821L65.4756 189.85ZM23.373 140.246V141.746H47.7803V140.246V138.746H23.373V140.246ZM47.7803 140.246L46.6574 141.241L90.591 190.845L91.7139 189.85L92.8368 188.856L48.9032 139.251L47.7803 140.246ZM164.936 189.85L163.813 188.856L119.879 238.46L121.002 239.455L122.125 240.449L166.058 190.845L164.936 189.85ZM121.002 239.455V237.955H56.9336V239.455V240.955H121.002V239.455ZM56.9336 239.455L58.0429 240.465L103.196 190.86L102.087 189.85L100.978 188.841L55.8243 238.445L56.9336 239.455ZM102.087 189.85L103.196 188.841L58.0429 139.236L56.9336 140.246L55.8243 141.256L100.978 190.86L102.087 189.85ZM56.9336 140.246V141.746H121.002V140.246V138.746H56.9336V140.246ZM121.002 140.246L119.879 141.241L163.813 190.845L164.936 189.85L166.058 188.856L122.125 139.251L121.002 140.246ZM56.9336 189.238L55.799 188.257L27.7306 220.714L28.8652 221.695L29.9998 222.676L58.0682 190.219L56.9336 189.238ZM28.8652 221.695V220.195H13V221.695V223.195H28.8652V221.695ZM13 221.695L14.1452 222.664L41.6032 190.207L40.458 189.238L39.3128 188.269L11.8548 220.726L13 221.695ZM40.458 189.238L41.6157 188.284L15.3784 156.44L14.2207 157.393L13.063 158.347L39.3003 190.192L40.458 189.238ZM14.2207 157.393V158.893H28.8652V157.393V155.893H14.2207V157.393ZM28.8652 157.393L27.74 158.385L55.8083 190.23L56.9336 189.238L58.0589 188.246L29.9905 156.402L28.8652 157.393Z" fill="black"/>
<path d="M248.904 188.641L292.492 239.455H316.708L274.936 188.641L316.708 137.826H292.492L248.904 188.641ZM176.256 188.641L219.845 239.455H283.411L238.612 188.641L283.411 137.826H219.845L176.256 188.641ZM283.411 188.014L311.26 221.263H327L299.757 188.014L325.789 155.392H311.26L283.411 188.014Z" fill="#FFDE16"/>
<path d="M248.904 188.641L247.766 189.617L246.928 188.641L247.766 187.664L248.904 188.641ZM292.492 239.455V240.955H291.803L291.354 240.432L292.492 239.455ZM316.708 239.455L317.867 238.503L319.883 240.955H316.708V239.455ZM274.936 188.641L273.777 189.593L272.994 188.641L273.777 187.688L274.936 188.641ZM316.708 137.826V136.326H319.883L317.867 138.779L316.708 137.826ZM292.492 137.826L291.354 136.85L291.803 136.326H292.492V137.826ZM176.256 188.641L175.117 189.617L174.28 188.641L175.117 187.664L176.256 188.641ZM219.845 239.455V240.955H219.155L218.706 240.432L219.845 239.455ZM283.411 239.455L284.536 238.463L286.733 240.955H283.411V239.455ZM238.612 188.641L237.487 189.633L236.613 188.641L237.487 187.649L238.612 188.641ZM283.411 137.826V136.326H286.733L284.536 138.818L283.411 137.826ZM219.845 137.826L218.706 136.85L219.155 136.326H219.845V137.826ZM283.411 188.014L282.261 188.977L281.447 188.005L282.27 187.04L283.411 188.014ZM311.26 221.263V222.763H310.559L310.11 222.226L311.26 221.263ZM327 221.263L328.16 220.312L330.168 222.763H327V221.263ZM299.757 188.014L298.597 188.964L297.828 188.026L298.584 187.078L299.757 188.014ZM325.789 155.392V153.892H328.905L326.962 156.327L325.789 155.392ZM311.26 155.392L310.119 154.418L310.568 153.892H311.26V155.392ZM248.904 188.641L250.043 187.664L293.631 238.479L292.492 239.455L291.354 240.432L247.766 189.617L248.904 188.641ZM292.492 239.455V237.955H316.708V239.455V240.955H292.492V239.455ZM316.708 239.455L315.549 240.408L273.777 189.593L274.936 188.641L276.094 187.688L317.867 238.503L316.708 239.455ZM274.936 188.641L273.777 187.688L315.549 136.874L316.708 137.826L317.867 138.779L276.094 189.593L274.936 188.641ZM316.708 137.826V139.326H292.492V137.826V136.326H316.708V137.826ZM292.492 137.826L293.631 138.803L250.043 189.617L248.904 188.641L247.766 187.664L291.354 136.85L292.492 137.826ZM176.256 188.641L177.394 187.664L220.983 238.479L219.845 239.455L218.706 240.432L175.117 189.617L176.256 188.641ZM219.845 239.455V237.955H283.411V239.455V240.955H219.845V239.455ZM283.411 239.455L282.286 240.447L237.487 189.633L238.612 188.641L239.737 187.649L284.536 238.463L283.411 239.455ZM238.612 188.641L237.487 187.649L282.286 136.834L283.411 137.826L284.536 138.818L239.737 189.633L238.612 188.641ZM283.411 137.826V139.326H219.845V137.826V136.326H283.411V137.826ZM219.845 137.826L220.983 138.803L177.394 189.617L176.256 188.641L175.117 187.664L218.706 136.85L219.845 137.826ZM283.411 188.014L284.561 187.051L312.41 220.3L311.26 221.263L310.11 222.226L282.261 188.977L283.411 188.014ZM311.26 221.263V219.763H327V221.263V222.763H311.26V221.263ZM327 221.263L325.84 222.214L298.597 188.964L299.757 188.014L300.917 187.063L328.16 220.312L327 221.263ZM299.757 188.014L298.584 187.078L324.617 154.456L325.789 155.392L326.962 156.327L300.929 188.949L299.757 188.014ZM325.789 155.392V156.892H311.26V155.392V153.892H325.789V155.392ZM311.26 155.392L312.401 156.366L284.552 188.988L283.411 188.014L282.27 187.04L310.119 154.418L311.26 155.392Z" fill="black"/>
<path d="M169.702 101.632L213.197 51.6055L213.197 23.8125L169.702 71.7549L126.207 23.8125L126.207 51.6055L169.702 101.632ZM169.702 185.011L213.197 134.983L213.197 62.0273L169.702 113.444L126.207 62.0273L126.207 134.983L169.702 185.011ZM169.165 62.0273L197.625 30.0654L197.625 12L169.165 43.2666L141.242 13.3896L141.242 30.0654L169.165 62.0273Z" fill="white"/>
<path d="M169.702 101.632L170.834 102.616L169.702 103.918L168.57 102.616L169.702 101.632ZM213.197 51.6055L214.697 51.6055L214.697 52.1664L214.329 52.5897L213.197 51.6055ZM213.197 23.8125L212.086 22.8046L214.697 19.9267L214.697 23.8125L213.197 23.8125ZM169.702 71.7549L170.813 72.7628L169.702 73.9873L168.591 72.7628L169.702 71.7549ZM126.207 23.8125L124.707 23.8125L124.707 19.9267L127.318 22.8046L126.207 23.8125ZM126.207 51.6055L125.075 52.5897L124.707 52.1664L124.707 51.6055L126.207 51.6055ZM169.702 185.011L170.834 185.995L169.702 187.297L168.57 185.995L169.702 185.011ZM213.197 134.983L214.697 134.983L214.697 135.544L214.329 135.968L213.197 134.983ZM213.197 62.0273L212.052 61.0586L214.697 57.9316L214.697 62.0273L213.197 62.0273ZM169.702 113.444L170.847 114.413L169.702 115.767L168.557 114.413L169.702 113.444ZM126.207 62.0273L124.707 62.0273L124.707 57.9316L127.352 61.0586L126.207 62.0273ZM126.207 134.983L125.075 135.968L124.707 135.544L124.707 134.983L126.207 134.983ZM169.165 62.0273L170.285 63.0249L169.154 64.295L168.035 63.0142L169.165 62.0273ZM197.625 30.0654L199.125 30.0654L199.125 30.6365L198.745 31.0629L197.625 30.0654ZM197.625 12L196.515 10.9903L199.125 8.1237L199.125 12L197.625 12ZM169.165 43.2666L170.274 44.2763L169.179 45.479L168.069 44.2908L169.165 43.2666ZM141.242 13.3896L139.742 13.3896L139.742 9.58787L142.338 12.3654L141.242 13.3896ZM141.242 30.0654L140.112 31.0523L139.742 30.6284L139.742 30.0654L141.242 30.0654ZM169.702 101.632L168.57 100.648L212.065 50.6213L213.197 51.6055L214.329 52.5897L170.834 102.616L169.702 101.632ZM213.197 51.6055L211.697 51.6055L211.697 23.8125L213.197 23.8125L214.697 23.8125L214.697 51.6055L213.197 51.6055ZM213.197 23.8125L214.308 24.8204L170.813 72.7628L169.702 71.7549L168.591 70.747L212.086 22.8046L213.197 23.8125ZM169.702 71.7549L168.591 72.7628L125.096 24.8204L126.207 23.8125L127.318 22.8046L170.813 70.747L169.702 71.7549ZM126.207 23.8125L127.707 23.8125L127.707 51.6055L126.207 51.6055L124.707 51.6055L124.707 23.8125L126.207 23.8125ZM126.207 51.6055L127.339 50.6213L170.834 100.648L169.702 101.632L168.57 102.616L125.075 52.5897L126.207 51.6055ZM169.702 185.011L168.57 184.027L212.065 133.999L213.197 134.983L214.329 135.968L170.834 185.995L169.702 185.011ZM213.197 134.983L211.697 134.983L211.697 62.0273L213.197 62.0273L214.697 62.0273L214.697 134.983L213.197 134.983ZM213.197 62.0273L214.342 62.9961L170.847 114.413L169.702 113.444L168.557 112.476L212.052 61.0586L213.197 62.0273ZM169.702 113.444L168.557 114.413L125.062 62.9961L126.207 62.0273L127.352 61.0586L170.847 112.476L169.702 113.444ZM126.207 62.0273L127.707 62.0273L127.707 134.983L126.207 134.983L124.707 134.983L124.707 62.0273L126.207 62.0273ZM126.207 134.983L127.339 133.999L170.834 184.027L169.702 185.011L168.57 185.995L125.075 135.968L126.207 134.983ZM169.165 62.0273L168.045 61.0298L196.505 29.0679L197.625 30.0654L198.745 31.0629L170.285 63.0249L169.165 62.0273ZM197.625 30.0654L196.125 30.0654L196.125 12L197.625 12L199.125 12L199.125 30.0654L197.625 30.0654ZM197.625 12L198.734 13.0097L170.274 44.2763L169.165 43.2666L168.056 42.2569L196.515 10.9903L197.625 12ZM169.165 43.2666L168.069 44.2908L140.146 14.4139L141.242 13.3896L142.338 12.3654L170.261 42.2424L169.165 43.2666ZM141.242 13.3896L142.742 13.3896L142.742 30.0654L141.242 30.0654L139.742 30.0654L139.742 13.3896L141.242 13.3896ZM141.242 30.0654L142.372 29.0786L170.294 61.0405L169.165 62.0273L168.035 63.0142L140.112 31.0523L141.242 30.0654Z" fill="black"/>
<path d="M169.702 316.887L213.197 365.864L213.197 393.074L169.702 346.138L126.207 393.074L126.207 365.864L169.702 316.887ZM169.702 281.159L213.197 330.137L213.197 357.347L169.702 310.41L126.207 357.347L126.207 330.137L169.702 281.159ZM169.702 199.529L213.197 248.508L213.197 319.934L169.702 269.595L126.207 319.934L126.207 248.508L169.702 199.529ZM169.165 358.022L197.625 389.313L197.625 407L169.165 376.389L141.242 405.64L141.242 389.313L169.165 358.022Z" fill="black"/>
<path d="M169.702 316.887L170.823 315.891L169.702 314.628L168.58 315.891L169.702 316.887ZM213.197 365.864L214.697 365.864L214.697 365.294L214.319 364.868L213.197 365.864ZM213.197 393.074L212.097 394.094L214.697 396.9L214.697 393.074L213.197 393.074ZM169.702 346.138L170.802 345.118L169.702 343.931L168.602 345.118L169.702 346.138ZM126.207 393.074L124.707 393.074L124.707 396.9L127.307 394.094L126.207 393.074ZM126.207 365.864L125.085 364.868L124.707 365.294L124.707 365.864L126.207 365.864ZM169.702 281.159L170.823 280.163L169.702 278.9L168.58 280.163L169.702 281.159ZM213.197 330.137L214.697 330.137L214.697 329.567L214.319 329.141L213.197 330.137ZM213.197 357.347L212.097 358.366L214.697 361.172L214.697 357.347L213.197 357.347ZM169.702 310.41L170.802 309.391L169.702 308.203L168.602 309.391L169.702 310.41ZM126.207 357.347L124.707 357.347L124.707 361.172L127.307 358.366L126.207 357.347ZM126.207 330.137L125.085 329.141L124.707 329.567L124.707 330.137L126.207 330.137ZM169.702 199.529L170.823 198.533L169.702 197.27L168.58 198.533L169.702 199.529ZM213.197 248.508L214.697 248.508L214.697 247.938L214.319 247.512L213.197 248.508ZM213.197 319.934L212.062 320.914L214.697 323.964L214.697 319.934L213.197 319.934ZM169.702 269.595L170.837 268.614L169.702 267.3L168.567 268.614L169.702 269.595ZM126.207 319.934L124.707 319.934L124.707 323.964L127.342 320.914L126.207 319.934ZM126.207 248.508L125.085 247.512L124.707 247.938L124.707 248.508L126.207 248.508ZM169.165 358.022L170.274 357.013L169.154 355.781L168.046 357.024L169.165 358.022ZM197.625 389.313L199.125 389.313L199.125 388.733L198.734 388.304L197.625 389.313ZM197.625 407L196.526 408.021L199.125 410.816L199.125 407L197.625 407ZM169.165 376.389L170.263 375.367L169.179 374.201L168.08 375.353L169.165 376.389ZM141.242 405.64L139.742 405.64L139.742 409.383L142.327 406.675L141.242 405.64ZM141.242 389.313L140.123 388.315L139.742 388.742L139.742 389.313L141.242 389.313ZM169.702 316.887L168.58 317.883L212.075 366.86L213.197 365.864L214.319 364.868L170.823 315.891L169.702 316.887ZM213.197 365.864L211.697 365.864L211.697 393.074L213.197 393.074L214.697 393.074L214.697 365.864L213.197 365.864ZM213.197 393.074L214.297 392.055L170.802 345.118L169.702 346.138L168.602 347.157L212.097 394.094L213.197 393.074ZM169.702 346.138L168.602 345.118L125.107 392.055L126.207 393.074L127.307 394.094L170.802 347.157L169.702 346.138ZM126.207 393.074L127.707 393.074L127.707 365.864L126.207 365.864L124.707 365.864L124.707 393.074L126.207 393.074ZM126.207 365.864L127.328 366.86L170.823 317.883L169.702 316.887L168.58 315.891L125.085 364.868L126.207 365.864ZM169.702 281.159L168.58 282.155L212.075 331.133L213.197 330.137L214.319 329.141L170.823 280.163L169.702 281.159ZM213.197 330.137L211.697 330.137L211.697 357.347L213.197 357.347L214.697 357.347L214.697 330.137L213.197 330.137ZM213.197 357.347L214.297 356.327L170.802 309.391L169.702 310.41L168.602 311.43L212.097 358.366L213.197 357.347ZM169.702 310.41L168.602 309.391L125.107 356.327L126.207 357.347L127.307 358.366L170.802 311.43L169.702 310.41ZM126.207 357.347L127.707 357.347L127.707 330.137L126.207 330.137L124.707 330.137L124.707 357.347L126.207 357.347ZM126.207 330.137L127.328 331.133L170.823 282.155L169.702 281.159L168.58 280.163L125.085 329.141L126.207 330.137ZM169.702 199.529L168.58 200.525L212.075 249.504L213.197 248.508L214.319 247.512L170.823 198.533L169.702 199.529ZM213.197 248.508L211.697 248.508L211.697 319.934L213.197 319.934L214.697 319.934L214.697 248.508L213.197 248.508ZM213.197 319.934L214.332 318.953L170.837 268.614L169.702 269.595L168.567 270.575L212.062 320.914L213.197 319.934ZM169.702 269.595L168.567 268.614L125.072 318.953L126.207 319.934L127.342 320.914L170.837 270.575L169.702 269.595ZM126.207 319.934L127.707 319.934L127.707 248.508L126.207 248.508L124.707 248.508L124.707 319.934L126.207 319.934ZM126.207 248.508L127.328 249.504L170.823 200.525L169.702 199.529L168.58 198.533L125.085 247.512L126.207 248.508ZM169.165 358.022L168.055 359.032L196.515 390.323L197.625 389.313L198.734 388.304L170.274 357.013L169.165 358.022ZM197.625 389.313L196.125 389.313L196.125 407L197.625 407L199.125 407L199.125 389.313L197.625 389.313ZM197.625 407L198.723 405.979L170.263 375.367L169.165 376.389L168.066 377.41L196.526 408.021L197.625 407ZM169.165 376.389L168.08 375.353L140.157 404.604L141.242 405.64L142.327 406.675L170.25 377.424L169.165 376.389ZM141.242 405.64L142.742 405.64L142.742 389.313L141.242 389.313L139.742 389.313L139.742 405.64L141.242 405.64ZM141.242 389.313L142.361 390.312L170.284 359.021L169.165 358.022L168.046 357.024L140.123 388.315L141.242 389.313Z" fill="white"/>
</g>
<defs>
<clipPath id="clip0_1621_138">
<rect width="940" height="419" fill="white"/>
</clipPath>
</defs>
</svg>
